<?xml version="1.0" encoding="UTF-8"?>
<!DOCTYPE svg PUBLIC "-//W3C//DTD SVG 1.1//EN" "http://www.w3.org/Graphics/SVG/1.1/DTD/svg11.dtd">
<!-- Creator: CorelDRAW 2019 (64-Bit Keine kommerzielle Nutzung) -->
<svg xmlns="http://www.w3.org/2000/svg" xml:space="preserve" width="85.7251mm" height="85.725mm" version="1.1" style="shape-rendering:geometricPrecision; text-rendering:geometricPrecision; image-rendering:optimizeQuality; fill-rule:evenodd; clip-rule:evenodd"
viewBox="0 0 9211.88 9211.87"
 xmlns:xlink="http://www.w3.org/1999/xlink"
 xmlns:xodm="http://www.corel.com/coreldraw/odm/2003">
 <defs>
  <style type="text/css">
   <![CDATA[
    .fil1 {fill:black}
    .fil3 {fill:#FEFEFE;fill-rule:nonzero}
    .fil2 {fill:red;fill-opacity:0.000000}
    .fil0 {fill:url(#id0)}
    .fil4 {fill:url(#id1)}
   ]]>
  </style>
  <linearGradient id="id0" gradientUnits="userSpaceOnUse" x1="-0" y1="4605.93" x2="9211.87" y2="4605.93">
   <stop offset="0" style="stop-opacity:0; stop-color:black"/>
   <stop offset="1" style="stop-opacity:0; stop-color:#1F1B20"/>
  </linearGradient>
  <linearGradient id="id1" gradientUnits="userSpaceOnUse" x1="1280.86" y1="5596.63" x2="3317.59" y2="5596.63">
   <stop offset="0" style="stop-opacity:0; stop-color:#FEFEFE"/>
   <stop offset="0.509804" style="stop-opacity:1; stop-color:#FEFEFE"/>
   <stop offset="1" style="stop-opacity:1; stop-color:#FEFEFE"/>
  </linearGradient>
 </defs>
 <g id="Ebene_x0020_1">
  <metadata id="CorelCorpID_0Corel-Layer"/>
  <path class="fil0" d="M2302.96 0l4605.94 0c1268.43,0 2302.96,1034.53 2302.96,2302.96l0 4605.94c0,1268.43 -1034.53,2302.96 -2302.96,2302.96l-4605.94 0c-1268.43,0 -2302.96,-1034.53 -2302.96,-2302.96l0 -4605.94c0,-1268.43 1034.53,-2302.96 2302.96,-2302.96z"/>
  <rect class="fil1" x="-0.01" y="1051.97" width="9211.88" height="7107.93" rx="2072.41" ry="1599.08"/>
  <polygon class="fil2" points="1051.97,2004.43 8159.9,2004.43 8159.9,7207.43 1051.97,7207.43 "/>
  <polygon class="fil3" points="1513,3485.56 1513,4600.93 2129.51,4600.93 2129.51,4802.62 1270.96,4802.62 1270.96,3485.56 "/>
  <path id="1" class="fil3" d="M2888.89 4701.11l-4.04 0c-13.11,13.78 -28.57,27.9 -47.06,42.35 -18.49,14.45 -39.67,28.24 -63.21,41.02 -23.52,12.77 -49.74,22.86 -78.66,30.58 -28.91,7.74 -60.17,11.77 -93.78,11.77 -45.39,0 -87.74,-7.06 -127.07,-21.17 -39.67,-14.12 -73.29,-34.63 -101.53,-61.19 -28.23,-26.55 -50.42,-58.49 -66.55,-96.48 -16.14,-37.65 -24.21,-80 -24.21,-126.39 0,-51.43 9.41,-97.15 27.91,-138.16 18.82,-40.67 45.04,-74.96 78.32,-103.2 33.62,-28.24 73.62,-49.75 120.35,-64.54 46.39,-14.8 98.15,-22.19 154.63,-22.19 41.34,0 79.33,2.69 114.29,7.74 34.62,5.37 65.21,11.76 91.43,18.82l0 -38.32c0,-22.18 -3.7,-43.7 -11.42,-64.21 -7.39,-20.84 -19.5,-39 -36.31,-55.13 -16.81,-16.14 -38.65,-28.57 -65.55,-38.32 -26.89,-9.41 -59.83,-14.12 -98.5,-14.12 -47.06,0 -94.46,5.04 -141.86,15.46 -47.06,10.42 -98.5,26.22 -153.62,47.06l0 -182.2c48.08,-20.84 98.83,-36.98 152.61,-48.07 54.13,-11.43 110.26,-17.15 169.43,-17.82 69.58,0 130.77,8.4 182.86,25.54 52.11,17.15 96.14,40.68 131.11,70.6 35.29,29.92 61.85,65.22 79.33,105.89 17.15,40.67 25.89,85.04 25.89,132.78l0 359.7c0,63.2 0.68,117.31 2.02,162.69 1.34,45.05 2.69,85.39 4.03,121.02l-210.77 0 -10.08 -101.52zm-19.17 -305.24c-22.18,-5.37 -47.73,-10.08 -76.64,-14.45 -28.91,-4.37 -58.16,-6.38 -87.4,-6.38 -57.15,0 -102.19,11.42 -135.14,33.95 -33.28,22.86 -49.75,57.48 -49.75,104.21 0,21.51 3.7,40.34 11.43,56.47 7.39,16.14 17.47,29.58 30.25,40.01 12.78,10.42 27.91,18.48 44.71,23.87 17.14,5.04 35.29,7.73 54.12,7.73 23.53,0 46.06,-3.02 66.9,-9.41 20.84,-6.05 40.33,-14.11 57.81,-23.52 17.82,-9.41 33.61,-20.17 47.73,-31.94 14.12,-12.1 26.22,-23.53 35.97,-34.62l0 -145.9z"/>
  <path id="2" class="fil3" d="M3786.76 4525.63c0,-20.5 -5.72,-37.31 -17.15,-50.42 -11.42,-13.11 -26.89,-23.87 -46.05,-32.95 -18.83,-8.74 -40.68,-16.47 -65.22,-23.19 -24.88,-6.39 -50.43,-13.11 -77.32,-19.5 -34.29,-9.41 -67.24,-19.83 -98.5,-32.27 -31.59,-12.1 -59.5,-27.9 -83.37,-47.73 -23.87,-19.49 -43.03,-44.37 -57.15,-74.29 -14.12,-29.93 -21.18,-66.23 -21.18,-109.59 0,-53.45 9.41,-99.51 28.57,-138.5 19.16,-39 45.05,-71.27 77.32,-96.81 32.61,-25.89 70.6,-44.71 113.63,-57.15 43.03,-12.44 88.41,-18.83 136.47,-18.83 58.5,0 113.29,4.71 164.39,14.12 51.09,9.41 97.48,21.85 138.83,36.64l0 189.26c-21.51,-7.06 -44.37,-13.45 -68.57,-19.5 -23.88,-6.05 -48.08,-11.42 -72.61,-15.8 -24.88,-4.37 -49.09,-8.07 -73.62,-10.76 -24.21,-3.03 -47.07,-4.37 -68.91,-4.37 -27.56,0 -50.76,2.7 -69.92,7.74 -18.83,5.37 -34.29,12.43 -46.06,21.18 -12.1,8.74 -20.5,18.82 -25.88,30.25 -5.05,11.43 -7.74,23.53 -7.74,35.97 0,21.51 5.72,39.33 17.14,53.12 11.43,13.78 27.57,24.88 47.74,33.28 20.17,8.74 41.68,15.8 63.86,21.18 22.19,5.71 44.04,11.09 64.88,16.46 32.94,7.74 65.55,17.15 98.5,28.57 32.6,11.1 62.19,26.56 88.41,46.73 26.22,19.83 47.73,45.71 64.21,77.65 16.81,31.94 25.21,72.28 25.21,121.69 0,53.78 -10.09,100.85 -30.59,140.86 -20.17,40 -48.4,73.28 -84.71,99.84 -36.64,26.55 -80,46.39 -131.1,59.16 -50.76,12.78 -106.57,19.16 -167.74,19.16 -60.51,0 -114.63,-4.71 -163.04,-14.12 -48.07,-9.75 -88.07,-21.51 -119.68,-35.97l0 -187.91c51.44,18.83 98.5,31.6 141.87,38.33 43.36,6.72 83.7,10.08 121.35,10.08 28.57,0 55.79,-2.02 80.67,-6.38 24.88,-4.37 46.39,-10.76 64.55,-20.17 17.82,-9.08 32.27,-20.51 42.68,-34.62 10.42,-14.12 15.81,-30.93 15.81,-50.43z"/>
  <path id="3" class="fil3" d="M4801.94 4801.28c-26.22,7.73 -57.48,14.12 -93.78,18.83 -36.64,4.36 -70.6,6.72 -102.19,6.72 -80,0 -145.56,-13.11 -196.65,-38.99 -51.1,-25.89 -87.07,-63.21 -107.91,-111.61 -15.13,-34.97 -22.86,-82.02 -22.86,-141.86l0 -494.16 -178.17 0 0 -191.61 178.17 0 0 -266.23 233.96 0 0 266.23 275.65 0 0 191.61 -275.65 0 0 463.9c0,36.64 5.72,63.87 16.81,81.69 19.5,30.25 58.83,45.38 116.99,45.38 27.23,0 53.78,-2.02 80.34,-6.38 26.56,-4.37 51.77,-9.76 75.3,-16.14l0 192.62z"/>
  <path id="4" class="fil3" d="M5546.87 4701.11l-4.04 0c-13.11,13.78 -28.57,27.9 -47.06,42.35 -18.49,14.45 -39.67,28.24 -63.21,41.02 -23.52,12.77 -49.74,22.86 -78.66,30.58 -28.91,7.74 -60.17,11.77 -93.78,11.77 -45.39,0 -87.74,-7.06 -127.07,-21.17 -39.67,-14.12 -73.29,-34.63 -101.53,-61.19 -28.23,-26.55 -50.42,-58.49 -66.55,-96.48 -16.14,-37.65 -24.21,-80 -24.21,-126.39 0,-51.43 9.41,-97.15 27.91,-138.16 18.82,-40.67 45.04,-74.96 78.32,-103.2 33.62,-28.24 73.62,-49.75 120.35,-64.54 46.39,-14.8 98.15,-22.19 154.63,-22.19 41.34,0 79.33,2.69 114.29,7.74 34.62,5.37 65.21,11.76 91.43,18.82l0 -38.32c0,-22.18 -3.7,-43.7 -11.42,-64.21 -7.39,-20.84 -19.5,-39 -36.31,-55.13 -16.81,-16.14 -38.65,-28.57 -65.55,-38.32 -26.89,-9.41 -59.83,-14.12 -98.5,-14.12 -47.06,0 -94.46,5.04 -141.86,15.46 -47.06,10.42 -98.5,26.22 -153.62,47.06l0 -182.2c48.08,-20.84 98.83,-36.98 152.61,-48.07 54.13,-11.43 110.26,-17.15 169.43,-17.82 69.58,0 130.77,8.4 182.86,25.54 52.11,17.15 96.14,40.68 131.11,70.6 35.29,29.92 61.85,65.22 79.33,105.89 17.15,40.67 25.89,85.04 25.89,132.78l0 359.7c0,63.2 0.68,117.31 2.02,162.69 1.34,45.05 2.69,85.39 4.03,121.02l-210.77 0 -10.08 -101.52zm-19.17 -305.24c-22.18,-5.37 -47.73,-10.08 -76.64,-14.45 -28.91,-4.37 -58.16,-6.38 -87.4,-6.38 -57.15,0 -102.19,11.42 -135.14,33.95 -33.28,22.86 -49.75,57.48 -49.75,104.21 0,21.51 3.7,40.34 11.43,56.47 7.39,16.14 17.47,29.58 30.25,40.01 12.78,10.42 27.91,18.48 44.71,23.87 17.14,5.04 35.29,7.73 54.12,7.73 23.53,0 46.06,-3.02 66.9,-9.41 20.84,-6.05 40.33,-14.11 57.81,-23.52 17.82,-9.41 33.61,-20.17 47.73,-31.94 14.12,-12.1 26.22,-23.53 35.97,-34.62l0 -145.9z"/>
  <path id="5" class="fil3" d="M6236.32 3981.06l4.03 0c13.79,-19.84 31.26,-39 52.11,-58.16 21.18,-19.16 45.05,-35.63 71.93,-50.09 26.9,-14.46 56.81,-26.22 89.08,-34.97 32.6,-9.07 67.24,-13.44 103.87,-13.44 34.97,0 68.58,4.03 101.18,11.77 32.28,8.07 62.2,20.17 89.08,36.98 26.9,16.81 50.76,38.32 71.27,64.87 20.85,26.9 36.98,58.5 48.74,95.13 6.73,20.51 11.09,42.69 13.44,66.56 2.35,23.87 3.36,51.77 3.36,83.37l0 619.54 -233.96 0 0 -583.56c0,-25.55 -1.01,-47.4 -3.03,-65.89 -2.02,-18.48 -5.37,-34.62 -10.76,-48.4 -11.77,-30.26 -29.58,-51.77 -53.45,-64.88 -24.2,-13.11 -53.12,-19.84 -87.06,-19.84 -45.38,0 -88.75,10.76 -130.43,32.27 -41.68,21.18 -78.32,52.45 -110.6,93.12l0 657.18 -233.96 0 0 -954.02 193.63 0 21.51 132.45z"/>
  <path id="6" class="fil3" d="M7552.37 4641.27c22.87,0 44.71,-3.02 65.56,-8.74 20.5,-6.05 40,-14.12 58.49,-23.87 18.48,-10.08 34.62,-20.85 48.74,-32.6 14.11,-12.11 26.22,-23.53 35.97,-34.63l0 -453.13c-27.56,-22.52 -58.49,-41.02 -92.45,-56.14 -34.29,-14.8 -70.59,-22.19 -108.58,-22.19 -24.2,0 -49.75,5.04 -76.31,14.79 -26.56,9.75 -50.76,26.56 -72.95,50.43 -21.85,23.52 -40.33,56.47 -55.13,98.49 -14.79,42.03 -22.18,95.81 -22.18,160.68 0,96.14 18.48,171.11 55.79,224.89 36.98,54.13 91.44,81.36 163.04,82.02zm-460.87 -296.82c0,-83.37 11.43,-158 34.62,-223.21 22.86,-65.21 54.46,-120 94.12,-164.38 39.67,-44.37 85.39,-77.32 136.48,-99.5 51.43,-21.86 104.55,-32.95 159.67,-32.95 25.89,0 50.09,2.35 73.29,6.73 22.86,4.71 44.7,11.09 64.87,18.82 20.51,8.07 39.33,16.82 57.15,26.56 17.82,10.08 34.29,20.17 49.42,30.58l2.02 0c-0.68,-13.11 -1.35,-31.59 -1.69,-55.46 -0.33,-24.21 -0.33,-50.09 -0.33,-78.33l0 -396.66 233.96 0 0 1142.26c0,63.2 0.68,117.31 2.02,162.69 1.34,45.05 2.69,85.72 4.04,121.02l-211.45 0 -9.75 -101.86 -4.04 0c-13.78,16.47 -30.25,32.61 -49.75,48.41 -19.49,15.46 -40.67,29.25 -64.2,40.67 -23.2,11.43 -49.09,20.5 -76.98,27.23 -27.91,6.39 -58.16,9.75 -91.1,9.75 -52.11,0 -101.85,-9.07 -149.58,-27.56 -47.4,-18.48 -90.09,-46.72 -128.08,-85.04 -37.65,-38.66 -67.9,-88.75 -90.76,-150.94 -22.52,-61.85 -33.96,-134.8 -33.96,-218.84z"/>
  <path class="fil3" d="M3640.6 5832.32l0 -495.08 131.05 0c11.62,0 23.37,0.38 35.38,1.13 12,0.76 23.63,1.77 35,3.29 11.38,1.52 22.24,3.29 32.86,5.44 10.62,2.02 20.47,4.55 29.31,7.58 26.41,8.34 49.66,19.72 70,34 20.22,14.27 37.16,31.21 50.81,50.67 13.77,19.46 24.14,41.32 31.21,65.32 6.95,24.02 10.49,50.17 10.49,78.22 0,26.67 -2.9,51.69 -8.84,74.94 -5.94,23.37 -14.92,44.61 -27.04,63.81 -12.13,19.33 -27.29,36.27 -45.75,50.92 -18.45,14.66 -40.19,26.66 -65.33,36.14 -20.98,7.83 -44.85,13.78 -71.4,17.69 -26.66,3.92 -56.74,5.94 -89.96,5.94l-117.77 0zm128.39 -75.81c52.94,0 94.39,-7.34 124.21,-21.87 26.41,-13.01 46.37,-32.1 59.9,-56.99 13.52,-24.9 20.34,-56.74 20.34,-95.53 0,-20.22 -2.28,-38.42 -6.69,-54.72 -4.43,-16.3 -10.87,-30.83 -19.21,-43.47 -8.34,-12.77 -18.57,-23.63 -30.45,-32.73 -12,-9.22 -25.52,-16.68 -40.55,-22.62 -14.03,-5.43 -29.7,-9.35 -46.88,-11.87 -17.31,-2.4 -36.64,-3.66 -58.12,-3.66l-39.93 0 0 343.46 37.41 0z"/>
  <path id="1" class="fil3" d="M4336.99 5770.91c17.05,0 34.87,-1.64 53.32,-5.05 18.58,-3.42 37.28,-8.34 56.23,-14.66l0 69.62c-11.25,4.93 -28.68,9.61 -52.19,14.02 -23.37,4.43 -47.77,6.58 -72.91,6.58 -25.39,0 -49.53,-3.29 -72.41,-9.86 -22.74,-6.44 -42.7,-17.05 -59.9,-31.58 -17.05,-14.54 -30.57,-33.49 -40.68,-56.61 -9.98,-23.25 -15.03,-51.31 -15.03,-84.42 0,-32.59 4.67,-61.03 14.15,-85.55 9.35,-24.38 21.99,-44.61 37.78,-60.65 15.8,-16.04 33.86,-28.05 54.33,-36.14 20.34,-7.96 41.45,-12 63.19,-12 22.74,0 43.71,3.41 62.93,10.36 19.07,6.82 35.76,17.69 49.66,32.47 14.02,14.79 24.9,33.74 32.6,57 7.83,23.37 11.76,50.8 11.76,82.64 -0.26,12.26 -0.63,22.75 -1.14,31.33l-235.29 0c1.27,16.69 4.93,30.84 11.12,42.71 6.19,11.76 14.15,21.35 24.26,28.68 9.98,7.33 21.61,12.77 34.87,16.05 13.4,3.41 27.8,5.05 43.35,5.05zm-35.13 -238.06c-11.12,0 -20.98,2.02 -29.7,6.06 -8.59,4.17 -16.04,9.61 -22.36,16.68 -6.32,7.08 -11.25,15.29 -14.92,24.64 -3.79,9.36 -6.19,19.34 -7.46,29.95l141.03 0c0,-10.61 -1.4,-20.59 -4.3,-29.95 -2.78,-9.35 -6.95,-17.56 -12.51,-24.64 -5.57,-7.07 -12.51,-12.51 -20.73,-16.68 -8.34,-4.04 -17.95,-6.06 -29.06,-6.06z"/>
  <path id="2" class="fil3" d="M4857.34 5473.7l-138.75 358.62 -86.8 0 -139.13 -358.62 92.49 0 49.91 136.98c14.28,38.42 27.29,76.96 39.18,115.38l1.52 0c10.36,-33.24 23.13,-71.02 38.42,-113.23l49.9 -139.13 93.26 0z"/>
  <path id="3" class="fil3" d="M5094.4 5770.91c17.05,0 34.87,-1.64 53.32,-5.05 18.58,-3.42 37.28,-8.34 56.23,-14.66l0 69.62c-11.25,4.93 -28.68,9.61 -52.19,14.02 -23.37,4.43 -47.77,6.58 -72.91,6.58 -25.39,0 -49.53,-3.29 -72.41,-9.86 -22.74,-6.44 -42.7,-17.05 -59.9,-31.58 -17.05,-14.54 -30.57,-33.49 -40.68,-56.61 -9.98,-23.25 -15.03,-51.31 -15.03,-84.42 0,-32.59 4.67,-61.03 14.15,-85.55 9.35,-24.38 21.99,-44.61 37.78,-60.65 15.8,-16.04 33.86,-28.05 54.33,-36.14 20.34,-7.96 41.45,-12 63.19,-12 22.74,0 43.71,3.41 62.93,10.36 19.07,6.82 35.76,17.69 49.66,32.47 14.02,14.79 24.9,33.74 32.6,57 7.83,23.37 11.76,50.8 11.76,82.64 -0.26,12.26 -0.63,22.75 -1.14,31.33l-235.29 0c1.27,16.69 4.93,30.84 11.12,42.71 6.19,11.76 14.15,21.35 24.26,28.68 9.98,7.33 21.61,12.77 34.87,16.05 13.4,3.41 27.8,5.05 43.35,5.05zm-35.13 -238.06c-11.12,0 -20.98,2.02 -29.7,6.06 -8.59,4.17 -16.04,9.61 -22.36,16.68 -6.32,7.08 -11.25,15.29 -14.92,24.64 -3.79,9.36 -6.19,19.34 -7.46,29.95l141.03 0c0,-10.61 -1.4,-20.59 -4.3,-29.95 -2.78,-9.35 -6.95,-17.56 -12.51,-24.64 -5.57,-7.07 -12.51,-12.51 -20.73,-16.68 -8.34,-4.04 -17.95,-6.06 -29.06,-6.06z"/>
  <polygon id="4" class="fil3" points="5301.5,5832.32 5301.5,5296.3 5389.44,5296.3 5389.44,5832.32 "/>
  <path id="5" class="fil3" d="M5740.85 5653.02c0,-18.96 -2.27,-35.76 -6.69,-50.29 -4.43,-14.54 -10.49,-26.67 -18.45,-36.53 -7.83,-9.85 -17.31,-17.31 -28.43,-22.23 -11.11,-4.93 -23.24,-7.33 -36.27,-7.33 -12.76,0 -24.64,2.4 -35.63,7.33 -10.99,4.92 -20.47,12.38 -28.3,22.23 -7.83,9.85 -14.02,21.99 -18.45,36.53 -4.42,14.53 -6.69,31.33 -6.69,50.29 0,18.96 2.28,35.76 6.69,50.29 4.43,14.53 10.62,26.66 18.58,36.4 8.09,9.72 17.57,17.05 28.56,22.1 10.86,5.06 23,7.59 36.01,7.59 13.01,0 25.02,-2.53 35.89,-7.59 10.86,-5.05 20.21,-12.38 28.05,-22.1 7.96,-9.74 14.02,-21.87 18.45,-36.4 4.43,-14.53 6.69,-31.33 6.69,-50.29zm90.98 0c0,28.18 -4.17,53.83 -12.64,76.95 -8.34,23.25 -20.34,43.09 -36.14,59.64 -15.67,16.56 -34.62,29.33 -56.87,38.29 -22.23,8.97 -47,13.53 -74.43,13.53 -28.18,0 -53.45,-4.56 -75.81,-13.53 -22.37,-8.96 -41.33,-21.73 -56.87,-38.29 -15.54,-16.55 -27.42,-36.39 -35.76,-59.64 -8.21,-23.13 -12.38,-48.78 -12.38,-76.95 0,-28.19 4.17,-53.84 12.64,-76.96 8.34,-23.24 20.34,-43.08 36.14,-59.64 15.67,-16.55 34.62,-29.31 56.86,-38.29 22.24,-8.97 47.01,-13.52 74.43,-13.52 28.19,0 53.46,4.55 75.82,13.52 22.36,8.97 41.32,21.74 56.87,38.29 15.54,16.56 27.41,36.4 35.75,59.64 8.22,23.13 12.39,48.78 12.39,76.96z"/>
  <path id="6" class="fil3" d="M6077.23 5535.11c-15.29,0.26 -29.82,4.05 -43.71,11.25 -13.78,7.2 -26.04,17.05 -36.65,29.31l0 159.84c3.66,4.3 8.09,8.47 13.4,12.64 5.18,4.3 10.86,8.09 17.31,11.63 6.45,3.42 13.52,6.32 21.35,8.47 7.7,2.28 15.8,3.42 24.26,3.42 13.52,0 25.65,-2.91 36.27,-8.73 10.62,-5.81 19.46,-14.02 26.53,-24.64 6.95,-10.62 12.39,-23.25 16.05,-37.91 3.66,-14.66 5.56,-31.08 5.56,-49.02 0,-19.21 -1.89,-36.14 -5.68,-50.68 -3.92,-14.66 -9.35,-26.66 -16.3,-36.39 -7.08,-9.61 -15.54,-16.81 -25.4,-21.74 -9.85,-4.92 -20.85,-7.46 -32.98,-7.46zm11.63 306.31c-19.33,0 -36.77,-3.55 -52.57,-10.49 -15.67,-7.08 -28.68,-15.8 -39.04,-26.16l-1.52 0c0.25,4.92 0.51,11.87 0.75,20.98 0.26,8.96 0.38,18.83 0.38,29.43l0 149.24 -87.94 0 0 -530.73 77.08 0 3.79 40.19 1.39 0c10.99,-14.41 24.9,-26.16 41.95,-35.39 17.06,-9.22 36.9,-13.89 59.39,-13.89 19.46,0 38.66,3.66 57.62,10.86 18.96,7.33 35.63,18.45 50.29,33.48 14.54,15.16 26.17,34.12 35.01,57.11 8.71,22.88 13.14,50.17 13.14,81.77 0,33.36 -4.67,62.16 -14.03,86.43 -9.48,24.26 -21.86,44.35 -37.15,60.27 -15.29,15.93 -32.34,27.8 -50.92,35.39 -18.7,7.7 -37.91,11.5 -57.62,11.5z"/>
  <path id="7" class="fil3" d="M6788.27 5613.72c0,-7.72 -0.26,-14.79 -0.76,-21.48 -0.51,-6.71 -1.39,-12.52 -2.53,-17.44 -2.78,-10.86 -8.09,-19.59 -15.93,-26.28 -7.96,-6.69 -19.08,-10.11 -33.36,-10.36 -7.72,0 -15.55,1.13 -23.76,3.28 -8.09,2.28 -16.17,5.44 -24.26,9.48 -7.96,4.17 -15.67,9.1 -22.87,14.92 -7.33,5.81 -13.91,12.26 -19.84,19.46l0 247.04 -87.95 0 0 -218.6c0,-7.72 -0.25,-14.79 -0.75,-21.48 -0.51,-6.71 -1.4,-12.52 -2.53,-17.44 -2.78,-10.86 -7.96,-19.59 -15.8,-26.28 -7.72,-6.69 -18.96,-10.11 -33.49,-10.36 -7.7,0 -15.54,1.13 -23.75,3.28 -8.09,2.28 -16.17,5.44 -24.26,9.48 -7.96,4.17 -15.67,9.1 -22.87,14.92 -7.33,5.81 -13.91,12.26 -19.85,19.46l0 247.04 -87.94 0 0 -358.62 72.78 0 8.09 49.8 1.52 0c5.18,-7.46 11.76,-14.66 19.59,-21.87 7.95,-7.2 16.92,-13.39 26.91,-18.83 9.98,-5.43 20.98,-9.85 32.98,-13.14 12.01,-3.41 24.64,-5.05 38.04,-5.05 23.63,0 44.98,5.31 63.94,15.8 18.83,10.49 33.24,26.79 43.09,49.02l1.52 0c6.95,-9.6 14.66,-18.45 23.13,-26.28 8.6,-7.95 18.07,-14.66 28.43,-20.34 10.36,-5.68 21.48,-10.11 33.48,-13.39 12,-3.16 24.77,-4.8 38.42,-4.8 25.65,0.25 47.26,5.56 64.57,16.04 17.43,10.49 30.83,24.9 40.31,43.22 2.4,4.67 4.55,9.85 6.19,15.29 1.77,5.56 3.16,11.87 4.3,18.7 1.14,6.95 1.89,14.66 2.4,23 0.51,8.47 0.76,18.07 0.76,28.94l0 222.52 -87.94 0 0 -218.6z"/>
  <path id="8" class="fil3" d="M7157.12 5770.91c17.05,0 34.87,-1.64 53.32,-5.05 18.58,-3.42 37.28,-8.34 56.23,-14.66l0 69.62c-11.25,4.93 -28.68,9.61 -52.19,14.02 -23.37,4.43 -47.77,6.58 -72.91,6.58 -25.39,0 -49.53,-3.29 -72.41,-9.86 -22.74,-6.44 -42.7,-17.05 -59.9,-31.58 -17.05,-14.54 -30.57,-33.49 -40.68,-56.61 -9.98,-23.25 -15.03,-51.31 -15.03,-84.42 0,-32.59 4.67,-61.03 14.15,-85.55 9.35,-24.38 21.99,-44.61 37.78,-60.65 15.8,-16.04 33.86,-28.05 54.33,-36.14 20.34,-7.96 41.45,-12 63.19,-12 22.74,0 43.71,3.41 62.93,10.36 19.07,6.82 35.76,17.69 49.66,32.47 14.02,14.79 24.9,33.74 32.6,57 7.83,23.37 11.76,50.8 11.76,82.64 -0.26,12.26 -0.63,22.75 -1.14,31.33l-235.29 0c1.27,16.69 4.93,30.84 11.12,42.71 6.19,11.76 14.15,21.35 24.26,28.68 9.98,7.33 21.61,12.77 34.87,16.05 13.4,3.41 27.8,5.05 43.35,5.05zm-35.13 -238.06c-11.12,0 -20.98,2.02 -29.7,6.06 -8.59,4.17 -16.04,9.61 -22.36,16.68 -6.32,7.08 -11.25,15.29 -14.92,24.64 -3.79,9.36 -6.19,19.34 -7.46,29.95l141.03 0c0,-10.61 -1.4,-20.59 -4.3,-29.95 -2.78,-9.35 -6.95,-17.56 -12.51,-24.64 -5.57,-7.07 -12.51,-12.51 -20.73,-16.68 -8.34,-4.04 -17.95,-6.06 -29.06,-6.06z"/>
  <path id="9" class="fil3" d="M7441.31 5523.5l1.52 0c5.18,-7.46 11.76,-14.66 19.59,-21.87 7.95,-7.2 16.92,-13.39 27.04,-18.83 10.11,-5.43 21.35,-9.85 33.48,-13.14 12.26,-3.41 25.27,-5.05 39.05,-5.05 13.14,0 25.78,1.52 38.03,4.42 12.13,3.04 23.38,7.59 33.49,13.91 10.1,6.32 19.07,14.4 26.78,24.38 7.84,10.11 13.91,22 18.33,35.76 2.53,7.72 4.17,16.05 5.05,25.03 0.88,8.96 1.27,19.45 1.27,31.33l0 232.88 -87.95 0 0 -219.37c0,-9.61 -0.38,-17.82 -1.14,-24.77 -0.75,-6.94 -2.02,-13.01 -4.04,-18.19 -4.43,-11.37 -11.12,-19.46 -20.09,-24.39 -9.09,-4.92 -19.97,-7.45 -32.72,-7.45 -17.06,0 -33.37,4.04 -49.03,12.13 -15.67,7.95 -29.44,19.71 -41.58,35l0 247.04 -87.94 0 0 -358.62 72.78 0 8.09 49.8z"/>
  <path id="10" class="fil3" d="M8000.47 5831.82c-9.86,2.9 -21.61,5.31 -35.26,7.07 -13.78,1.64 -26.54,2.54 -38.42,2.54 -30.08,0 -54.72,-4.93 -73.92,-14.66 -19.2,-9.74 -32.73,-23.76 -40.57,-41.95 -5.68,-13.14 -8.59,-30.84 -8.59,-53.33l0 -185.75 -66.98 0 0 -72.03 66.98 0 0 -100.08 87.94 0 0 100.08 103.62 0 0 72.03 -103.62 0 0 174.38c0,13.78 2.15,24.01 6.32,30.7 7.33,11.38 22.11,17.06 43.97,17.06 10.24,0 20.22,-0.76 30.21,-2.41 9.98,-1.63 19.45,-3.66 28.3,-6.06l0 72.41z"/>
  <polygon class="fil4" points="1302.35,5554.08 3317.59,5554.08 3296.1,5639.19 1280.86,5639.19 "/>
 </g>
</svg>
