<?xml version="1.0" encoding="UTF-8"?>
<!DOCTYPE svg PUBLIC "-//W3C//DTD SVG 1.1//EN" "http://www.w3.org/Graphics/SVG/1.1/DTD/svg11.dtd">
<!-- Creator: CorelDRAW 2019 (64-Bit Keine kommerzielle Nutzung) -->
<svg xmlns="http://www.w3.org/2000/svg" xml:space="preserve" width="85.7251mm" height="66.1459mm" version="1.1" style="shape-rendering:geometricPrecision; text-rendering:geometricPrecision; image-rendering:optimizeQuality; fill-rule:evenodd; clip-rule:evenodd"
viewBox="0 0 7885275 6084316"
 xmlns:xlink="http://www.w3.org/1999/xlink"
 xmlns:xodm="http://www.corel.com/coreldraw/odm/2003">
 <defs>
  <style type="text/css">
   <![CDATA[
    .fil0 {fill:black}
    .fil2 {fill:#FEFEFE;fill-rule:nonzero}
    .fil1 {fill:red;fill-opacity:0.000000}
    .fil3 {fill:url(#id0)}
   ]]>
  </style>
  <linearGradient id="id0" gradientUnits="userSpaceOnUse" x1="1096404" y1="3890184" x2="2839827" y2="3890184">
   <stop offset="0" style="stop-opacity:0; stop-color:#FEFEFE"/>
   <stop offset="0.509804" style="stop-opacity:1; stop-color:#FEFEFE"/>
   <stop offset="1" style="stop-opacity:1; stop-color:#FEFEFE"/>
  </linearGradient>
 </defs>
 <g id="Ebene_x0020_1">
  <metadata id="CorelCorpID_0Corel-Layer"/>
  <rect class="fil0" x="-9" y="-7" width="7885275" height="6084317" rx="1773961" ry="1368797"/>
  <polygon class="fil1" points="900479,815294 6984796,815294 6984796,5269013 900479,5269013 "/>
  <polygon class="fil2" points="1295115,2083127 1295115,3037867 1822842,3037867 1822842,3210520 1087932,3210520 1087932,2083127 "/>
  <path id="1" class="fil2" d="M2472860 3123623l-3459 0c-11222,11792 -24458,23879 -40279,36251 -15830,12372 -33960,24173 -54105,35110 -20135,10928 -42579,19565 -67332,26178 -24744,6623 -51501,10072 -80274,10072 -38854,0 -75104,-6043 -108770,-18121 -33960,-12087 -62733,-29646 -86906,-52375 -24164,-22729 -43159,-50066 -56965,-82583 -13816,-32231 -20724,-68482 -20724,-108191 0,-44023 8058,-83162 23888,-118263 16106,-34816 38550,-64168 67037,-88341 28782,-24173 63018,-42588 103021,-55245 39709,-12666 84018,-18995 132364,-18995 35386,0 67902,2300 97833,6623 29637,4599 55815,10063 78259,16106l0 -32801c0,-18985 -3164,-37410 -9778,-54960 -6328,-17836 -16695,-33381 -31081,-47187 -14386,-13816 -33086,-24458 -56110,-32801 -23014,-8058 -51216,-12087 -84312,-12087 -40279,0 -80853,4314 -121427,13236 -40279,8922 -84312,22444 -131499,40279l0 -155958c41153,-17836 84597,-31651 130635,-41144 46332,-9787 94384,-14681 145030,-15251 59559,0 111934,7193 156528,21864 44603,14681 82297,34825 112229,60433 30207,25608 52946,55825 67902,90640 14681,34816 22159,72796 22159,113655l0 307896c0,54095 579,100418 1729,139263 1150,38559 2300,73090 3449,103592l-180416 0 -8628 -86897zm-16410 -261278c-18985,-4599 -40859,-8628 -65602,-12372 -24744,-3744 -49781,-5464 -74810,-5464 -48917,0 -87476,9778 -115678,29058 -28487,19565 -42588,49202 -42588,89205 0,18415 3164,34531 9787,48337 6328,13816 14956,25323 25893,34245 10937,8922 23888,15821 38274,20429 14671,4314 30207,6614 46323,6614 20144,0 39424,-2585 57269,-8058 17836,-5179 34521,-12077 49487,-20135 15251,-8058 28772,-17265 40859,-27337 12087,-10357 22444,-20144 30787,-29637l0 -124886z"/>
  <path id="2" class="fil2" d="M3241426 2973415c0,-17550 -4894,-31937 -14681,-43159 -9778,-11222 -23014,-20429 -39415,-28202 -16115,-7478 -34825,-14101 -55825,-19850 -21294,-5473 -43168,-11222 -66182,-16695 -29352,-8058 -57554,-16971 -84312,-27623 -27043,-10357 -50931,-23879 -71361,-40859 -20429,-16686 -36830,-37980 -48917,-63588 -12087,-25617 -18130,-56689 -18130,-93805 0,-45752 8058,-85177 24458,-118557 16401,-33381 38559,-61003 66182,-82868 27917,-22159 60433,-38274 97263,-48917 36830,-10652 75675,-16115 116819,-16115 50076,0 96978,4029 140716,12087 43729,8058 83438,18700 118833,31366l0 162001c-18415,-6043 -37980,-11516 -58695,-16695 -20439,-5179 -41153,-9778 -62153,-13522 -21294,-3744 -42018,-6908 -63018,-9208 -20724,-2594 -40289,-3744 -58989,-3744 -23594,0 -43453,2309 -59854,6623 -16115,4599 -29352,10642 -39424,18130 -10357,7478 -17550,16106 -22150,25893 -4323,9787 -6623,20144 -6623,30787 0,18415 4894,33666 14671,45467 9787,11792 23603,21294 40868,28487 17265,7478 35680,13522 54666,18130 18995,4884 37695,9493 55540,14092 28193,6623 56110,14681 84312,24458 27908,9502 53231,22738 75675,40004 22444,16971 40859,39130 54960,66467 14386,27337 21579,61868 21579,104162 0,46038 -8637,86326 -26188,120572 -17265,34236 -41429,62723 -72510,85462 -31366,22729 -68482,39709 -112220,50637 -43453,10937 -91220,16401 -143586,16401 -51796,0 -98119,-4029 -139557,-12087 -41144,-8343 -75389,-18415 -102442,-30787l0 -160851c44032,16115 84312,27052 121436,32810 37115,5749 71646,8628 103877,8628 24458,0 47758,-1729 69052,-5464 21294,-3744 39709,-9208 55254,-17265 15251,-7773 27623,-17560 36536,-29637 8922,-12087 13531,-26473 13531,-43168z"/>
  <path id="3" class="fil2" d="M4110411 3209370c-22444,6614 -49202,12087 -80274,16115 -31366,3735 -60433,5749 -87476,5749 -68482,0 -124601,-11222 -168329,-33372 -43738,-22159 -74534,-54105 -92370,-95534 -12951,-29931 -19565,-70211 -19565,-121427l0 -422994 -152508 0 0 -164015 152508 0 0 -227889 200266 0 0 227889 235955 0 0 164015 -235955 0 0 397092c0,31366 4894,54675 14386,69926 16695,25893 50361,38845 100142,38845 23309,0 46038,-1729 68767,-5464 22738,-3744 44318,-8352 64453,-13816l0 164880z"/>
  <path id="4" class="fil2" d="M4748066 3123623l-3459 0c-11222,11792 -24458,23879 -40279,36251 -15830,12372 -33960,24173 -54105,35110 -20135,10928 -42579,19565 -67332,26178 -24744,6623 -51501,10072 -80274,10072 -38854,0 -75104,-6043 -108770,-18121 -33960,-12087 -62733,-29646 -86906,-52375 -24164,-22729 -43159,-50066 -56965,-82583 -13816,-32231 -20724,-68482 -20724,-108191 0,-44023 8058,-83162 23888,-118263 16106,-34816 38550,-64168 67037,-88341 28782,-24173 63018,-42588 103021,-55245 39709,-12666 84018,-18995 132364,-18995 35386,0 67902,2300 97833,6623 29637,4599 55815,10063 78259,16106l0 -32801c0,-18985 -3164,-37410 -9778,-54960 -6328,-17836 -16695,-33381 -31081,-47187 -14386,-13816 -33086,-24458 -56110,-32801 -23014,-8058 -51216,-12087 -84312,-12087 -40279,0 -80853,4314 -121427,13236 -40279,8922 -84312,22444 -131499,40279l0 -155958c41153,-17836 84597,-31651 130635,-41144 46332,-9787 94384,-14681 145030,-15251 59559,0 111934,7193 156528,21864 44603,14681 82297,34825 112229,60433 30207,25608 52946,55825 67902,90640 14681,34816 22159,72796 22159,113655l0 307896c0,54095 579,100418 1729,139263 1150,38559 2300,73090 3449,103592l-180416 0 -8628 -86897zm-16410 -261278c-18985,-4599 -40859,-8628 -65602,-12372 -24744,-3744 -49781,-5464 -74810,-5464 -48917,0 -87476,9778 -115678,29058 -28487,19565 -42588,49202 -42588,89205 0,18415 3164,34531 9787,48337 6328,13816 14956,25323 25893,34245 10937,8922 23888,15821 38274,20429 14671,4314 30207,6614 46323,6614 20144,0 39424,-2585 57269,-8058 17836,-5179 34521,-12077 49487,-20135 15251,-8058 28772,-17265 40859,-27337 12087,-10357 22444,-20144 30787,-29637l0 -124886z"/>
  <path id="5" class="fil2" d="M5338231 2507271l3449 0c11801,-16980 26758,-33381 44603,-49781 18130,-16401 38559,-30502 61574,-42873 23023,-12381 48632,-22444 76254,-29931 27908,-7763 57554,-11507 88911,-11507 29931,0 58704,3449 86611,10072 27632,6908 53240,17265 76254,31651 23023,14386 43453,32801 61003,55530 17845,23023 31651,50076 41724,81433 5758,17560 9493,36545 11507,56974 2014,20429 2879,44318 2879,71361l0 530320 -200266 0 0 -499524c0,-21874 -865,-40574 -2594,-56404 -1729,-15821 -4599,-29637 -9208,-41429 -10072,-25902 -25323,-44318 -45752,-55540 -20715,-11222 -45467,-16980 -74525,-16980 -38845,0 -75969,9208 -111649,27623 -35680,18130 -67037,44897 -94669,79713l0 562542 -200266 0 0 -816628 165745 0 18415 113379z"/>
  <path id="6" class="fil2" d="M6464750 3072398c19574,0 38274,-2585 56119,-7478 17550,-5179 34236,-12087 50066,-20429 15821,-8628 29637,-17845 41724,-27908 12077,-10367 22444,-20144 30787,-29646l0 -387875c-23594,-19280 -50066,-35110 -79133,-48052 -29352,-12666 -60424,-18995 -92940,-18995 -20715,0 -42588,4314 -65317,12657 -22738,8343 -43453,22738 -62447,43168 -18700,20135 -34521,48337 -47187,84303 -12657,35975 -18985,82012 -18985,137543 0,82297 15821,146465 47758,192503 31651,46332 78269,69641 139557,70211zm-394498 -254076c0,-71361 9787,-135243 29637,-191068 19565,-55815 46617,-102718 80568,-140707 33960,-37980 73090,-66182 116828,-85167 44023,-18709 89491,-28202 136678,-28202 22159,0 42873,2014 62733,5758 19565,4029 38265,9493 55530,16106 17560,6908 33666,14395 48917,22738 15251,8628 29352,17265 42303,26178l1729 0c-579,-11222 -1159,-27043 -1444,-47473 -285,-20724 -285,-42873 -285,-67047l0 -339538 200266 0 0 977764c0,54095 579,100418 1729,139263 1150,38559 2300,73375 3459,103592l-180995 0 -8343 -87191 -3459 0c-11792,14101 -25893,27917 -42588,41438 -16686,13236 -34816,25038 -54951,34816 -19859,9787 -42018,17550 -65897,23309 -23888,5473 -49781,8343 -77983,8343 -44603,0 -87182,-7763 -128041,-23594 -40574,-15821 -77119,-39994 -109635,-72796 -32231,-33096 -58124,-75969 -77689,-129200 -19280,-52946 -29067,-115384 -29067,-187324z"/>
  <path class="fil2" d="M3116320 4091931l0 -423785 112174 0c9943,0 20006,322 30281,966 10275,653 20227,1518 29959,2815 9741,1297 19041,2815 28128,4654 9088,1729 17523,3891 25093,6485 22609,7138 42505,16879 59918,29104 17311,12215 31808,26712 43490,43370 11783,16658 20659,35368 26712,55917 5951,20558 8978,42947 8978,66955 0,22830 -2484,44244 -7570,64149 -5087,20006 -12767,38182 -23143,54620 -10385,16548 -23364,31044 -39157,43591 -15794,12547 -34402,22821 -55926,30934 -17955,6706 -38394,11792 -61114,15140 -22821,3357 -48567,5087 -77008,5087l-100814 0zm109902 -64894c45320,0 80798,-6282 106323,-18719 22609,-11139 39691,-27475 51271,-48779 11571,-21313 17412,-48567 17412,-81773 0,-17311 -1950,-32884 -5731,-46838 -3790,-13954 -9309,-26390 -16447,-37207 -7138,-10928 -15895,-20227 -26068,-28018 -10275,-7892 -21846,-14276 -34714,-19362 -12013,-4645 -25424,-8003 -40132,-10164 -14819,-2051 -31366,-3137 -49754,-3137l-34181 0 0 293997 32019 0z"/>
  <path id="1" class="fil2" d="M3712417 4039363c14598,0 29849,-1407 45642,-4323 15904,-2925 31909,-7138 48135,-12547l0 59596c-9631,4222 -24550,8223 -44676,12004 -20006,3790 -40887,5629 -62411,5629 -21736,0 -42395,-2815 -61978,-8444 -19464,-5510 -36554,-14598 -51271,-27034 -14598,-12445 -26169,-28671 -34825,-48457 -8545,-19905 -12868,-43922 -12868,-72262 0,-27899 4001,-52237 12114,-73228 8003,-20871 18820,-38182 32341,-51915 13522,-13733 28984,-24008 46507,-30934 17412,-6816 35478,-10275 54086,-10275 19464,0 37419,2916 53865,8867 16327,5841 30612,15140 42505,27797 12004,12657 21313,28883 27908,48788 6706,20006 10063,43480 10063,70735 -221,10495 -543,19473 -975,26822l-201407 0c1085,14285 4222,26399 9520,36563 5298,10063 12114,18277 20770,24550 8545,6273 18498,10928 29849,13742 11470,2916 23796,4323 37106,4323zm-30069 -203780c-9520,0 -17955,1729 -25424,5188 -7349,3569 -13733,8223 -19142,14276 -5409,6062 -9631,13089 -12767,21092 -3247,8012 -5298,16557 -6384,25636l120719 0c0,-9079 -1196,-17624 -3679,-25636 -2382,-8003 -5951,-15030 -10707,-21092 -4765,-6052 -10707,-10707 -17744,-14276 -7138,-3459 -15361,-5188 -24872,-5188z"/>
  <path id="2" class="fil2" d="M4157837 3784955l-118769 306976 -74304 0 -119091 -306976 79170 0 42726 117251c12225,32884 23364,65878 33537,98762l1297 0c8867,-28450 19795,-60792 32884,-96923l42717 -119091 79832 0z"/>
  <path id="3" class="fil2" d="M4360752 4039363c14598,0 29849,-1407 45642,-4323 15904,-2925 31909,-7138 48135,-12547l0 59596c-9631,4222 -24550,8223 -44676,12004 -20006,3790 -40887,5629 -62411,5629 -21736,0 -42395,-2815 -61978,-8444 -19464,-5510 -36554,-14598 -51271,-27034 -14598,-12445 -26169,-28671 -34825,-48457 -8545,-19905 -12868,-43922 -12868,-72262 0,-27899 4001,-52237 12114,-73228 8003,-20871 18820,-38182 32341,-51915 13522,-13733 28984,-24008 46507,-30934 17412,-6816 35478,-10275 54086,-10275 19464,0 37419,2916 53865,8867 16327,5841 30612,15140 42505,27797 12004,12657 21313,28883 27908,48788 6706,20006 10063,43480 10063,70735 -221,10495 -543,19473 -975,26822l-201407 0c1085,14285 4222,26399 9520,36563 5298,10063 12114,18277 20770,24550 8545,6273 18498,10928 29849,13742 11470,2916 23796,4323 37106,4323zm-30069 -203780c-9520,0 -17955,1729 -25424,5188 -7349,3569 -13733,8223 -19142,14276 -5409,6062 -9631,13089 -12767,21092 -3247,8012 -5298,16557 -6384,25636l120719 0c0,-9079 -1196,-17624 -3679,-25636 -2382,-8003 -5951,-15030 -10707,-21092 -4765,-6052 -10707,-10707 -17744,-14276 -7138,-3459 -15361,-5188 -24872,-5188z"/>
  <polygon id="4" class="fil2" points="4538032,4091931 4538032,3633100 4613311,3633100 4613311,4091931 "/>
  <path id="5" class="fil2" d="M4914114 3938448c0,-16226 -1941,-30612 -5731,-43048 -3790,-12445 -8978,-22830 -15794,-31265 -6706,-8435 -14819,-14819 -24339,-19031 -9511,-4222 -19896,-6273 -31044,-6273 -10918,0 -21092,2051 -30502,6273 -9410,4213 -17523,10596 -24228,19031 -6706,8435 -12004,18820 -15794,31265 -3781,12436 -5731,26822 -5731,43048 0,16226 1950,30612 5731,43048 3790,12436 9088,22821 15904,31155 6926,8324 15039,14598 24449,18921 9300,4332 19684,6494 30824,6494 11139,0 21414,-2162 30722,-6494 9300,-4323 17302,-10596 24008,-18921 6816,-8334 12004,-18719 15794,-31155 3790,-12436 5731,-26822 5731,-43048zm77882 0c0,24118 -3569,46074 -10817,65869 -7138,19905 -17412,36885 -30934,51051 -13411,14175 -29637,25102 -48678,32774 -19031,7681 -40233,11581 -63708,11581 -24118,0 -45752,-3900 -64894,-11581 -19151,-7671 -35377,-18599 -48678,-32774 -13301,-14165 -23474,-31146 -30612,-51051 -7028,-19795 -10596,-41751 -10596,-65869 0,-24127 3569,-46084 10817,-65878 7138,-19896 17412,-36876 30934,-51051 13411,-14165 29637,-25093 48668,-32774 19041,-7681 40243,-11571 63708,-11571 24127,0 45762,3891 64903,11571 19142,7681 35368,18608 48678,32774 13301,14175 23465,31155 30603,51051 7037,19795 10606,41751 10606,65878z"/>
  <path id="6" class="fil2" d="M5202050 3837524c-13089,221 -25525,3468 -37419,9631 -11792,6163 -22288,14598 -31375,25093l0 136825c3137,3679 6926,7248 11470,10817 4434,3679 9300,6926 14819,9953 5519,2925 11571,5409 18277,7248 6595,1950 13522,2925 20770,2925 11571,0 21956,-2493 31044,-7469 9088,-4976 16658,-12004 22711,-21092 5951,-9088 10606,-19905 13742,-32452 3137,-12547 4756,-26602 4756,-41963 0,-16447 -1619,-30934 -4866,-43379 -3357,-12547 -8003,-22821 -13954,-31146 -6062,-8223 -13301,-14386 -21745,-18608 -8435,-4213 -17845,-6384 -28230,-6384zm9953 262198c-16548,0 -31477,-3035 -44998,-8978 -13411,-6062 -24550,-13522 -33418,-22389l-1297 0c212,4213 432,10164 644,17955 221,7671 322,16115 322,25194l0 127746 -75279 0 0 -454296 65980 0 3247 34402 1187 0c9410,-12335 21313,-22389 35910,-30290 14607,-7892 31587,-11893 50839,-11893 16658,0 33096,3137 49321,9300 16226,6273 30502,15794 43048,28662 12445,12979 22398,29205 29968,48889 7460,19583 11250,42947 11250,69990 0,28552 -4001,53212 -12013,73982 -8113,20770 -18709,37961 -31799,51593 -13089,13632 -27687,23796 -43591,30290 -16005,6595 -32452,9842 -49321,9842z"/>
  <path id="7" class="fil2" d="M5810694 3904810c0,-6604 -221,-12657 -653,-18387 -432,-5740 -1187,-10716 -2162,-14929 -2382,-9300 -6926,-16769 -13632,-22499 -6816,-5731 -16336,-8656 -28552,-8867 -6604,0 -13310,966 -20338,2805 -6926,1950 -13843,4654 -20770,8113 -6816,3569 -13411,7791 -19574,12767 -6273,4976 -11903,10495 -16980,16658l0 211460 -75288 0 0 -187122c0,-6604 -212,-12657 -644,-18387 -432,-5740 -1196,-10716 -2162,-14929 -2382,-9300 -6816,-16769 -13522,-22499 -6604,-5731 -16226,-8656 -28671,-8867 -6595,0 -13301,966 -20328,2805 -6926,1950 -13843,4654 -20770,8113 -6816,3569 -13411,7791 -19574,12767 -6273,4976 -11903,10495 -16989,16658l0 211460 -75279 0 0 -306976 62300 0 6926 42625 1297 0c4434,-6384 10063,-12547 16769,-18719 6807,-6163 14487,-11461 23033,-16115 8545,-4645 17955,-8435 28230,-11250 10284,-2916 21092,-4323 32562,-4323 20227,0 38504,4544 54730,13522 16115,8978 28450,22931 36885,41963l1297 0c5951,-8214 12547,-15794 19795,-22499 7359,-6807 15472,-12547 24339,-17412 8867,-4866 18387,-8656 28662,-11461 10275,-2704 21202,-4112 32884,-4112 21956,212 40454,4756 55273,13733 14920,8978 26390,21313 34503,36996 2051,4001 3891,8435 5298,13089 1518,4756 2704,10164 3679,16005 975,5951 1619,12547 2051,19684 432,7248 653,15472 653,24771l0 190479 -75279 0 0 -187122z"/>
  <path id="8" class="fil2" d="M6126426 4039363c14598,0 29849,-1407 45642,-4323 15904,-2925 31909,-7138 48135,-12547l0 59596c-9631,4222 -24550,8223 -44676,12004 -20006,3790 -40887,5629 -62411,5629 -21736,0 -42395,-2815 -61978,-8444 -19464,-5510 -36554,-14598 -51271,-27034 -14598,-12445 -26169,-28671 -34825,-48457 -8545,-19905 -12868,-43922 -12868,-72262 0,-27899 4001,-52237 12114,-73228 8003,-20871 18820,-38182 32341,-51915 13522,-13733 28984,-24008 46507,-30934 17412,-6816 35478,-10275 54086,-10275 19464,0 37419,2916 53865,8867 16327,5841 30612,15140 42505,27797 12004,12657 21313,28883 27908,48788 6706,20006 10063,43480 10063,70735 -221,10495 -543,19473 -975,26822l-201407 0c1085,14285 4222,26399 9520,36563 5298,10063 12114,18277 20770,24550 8545,6273 18498,10928 29849,13742 11470,2916 23796,4323 37106,4323zm-30069 -203780c-9520,0 -17955,1729 -25424,5188 -7349,3569 -13733,8223 -19142,14276 -5409,6062 -9631,13089 -12767,21092 -3247,8012 -5298,16557 -6384,25636l120719 0c0,-9079 -1196,-17624 -3679,-25636 -2382,-8003 -5951,-15030 -10707,-21092 -4765,-6052 -10707,-10707 -17744,-14276 -7138,-3459 -15361,-5188 -24872,-5188z"/>
  <path id="9" class="fil2" d="M6369685 3827580l1297 0c4434,-6384 10063,-12547 16769,-18719 6807,-6163 14487,-11461 23143,-16115 8656,-4645 18277,-8435 28662,-11250 10495,-2916 21634,-4323 33427,-4323 11250,0 22067,1297 32553,3781 10385,2603 20016,6494 28671,11903 8646,5409 16327,12326 22922,20871 6715,8656 11903,18829 15692,30612 2162,6604 3569,13742 4323,21423 754,7671 1085,16649 1085,26822l0 199346 -75288 0 0 -187775c0,-8223 -322,-15251 -975,-21202 -644,-5942 -1729,-11139 -3459,-15573 -3790,-9732 -9520,-16658 -17201,-20880 -7782,-4213 -17090,-6374 -28009,-6374 -14607,0 -28561,3459 -41972,10385 -13411,6807 -25203,16870 -35588,29959l0 211460 -75279 0 0 -306976 62300 0 6926 42625z"/>
  <path id="10" class="fil2" d="M6848320 4091499c-8444,2484 -18498,4544 -30180,6052 -11792,1407 -22720,2171 -32884,2171 -25746,0 -46838,-4222 -63275,-12547 -16437,-8334 -28018,-20338 -34724,-35910 -4866,-11250 -7349,-26399 -7349,-45651l0 -159002 -57333 0 0 -61656 57333 0 0 -85664 75279 0 0 85664 88699 0 0 61656 -88699 0 0 149270c0,11792 1840,20549 5409,26280 6273,9741 18930,14607 37640,14607 8766,0 17311,-653 25856,-2060 8545,-1398 16649,-3137 24228,-5188l0 61978z"/>
  <polygon class="fil3" points="1114800,3853759 2839827,3853759 2821431,3926610 1096404,3926610 "/>
 </g>
</svg>
