<?xml version="1.0" encoding="UTF-8"?>
<!DOCTYPE svg PUBLIC "-//W3C//DTD SVG 1.1//EN" "http://www.w3.org/Graphics/SVG/1.1/DTD/svg11.dtd">
<!-- Creator: CorelDRAW 2019 (64-Bit Keine kommerzielle Nutzung) -->
<svg xmlns="http://www.w3.org/2000/svg" xml:space="preserve" width="80.2mm" height="80.2mm" version="1.1" style="shape-rendering:geometricPrecision; text-rendering:geometricPrecision; image-rendering:optimizeQuality; fill-rule:evenodd; clip-rule:evenodd"
viewBox="0 0 3988.38 3988.38"
 xmlns:xlink="http://www.w3.org/1999/xlink"
 xmlns:xodm="http://www.corel.com/coreldraw/odm/2003">
 <defs>
  <style type="text/css">
   <![CDATA[
    .str0 {stroke:#2B2A29;stroke-width:9.95;stroke-miterlimit:22.9256}
    .fil0 {fill:black}
    .fil2 {fill:#FEFEFE;fill-rule:nonzero}
    .fil1 {fill:red;fill-opacity:0.000000}
    .fil3 {fill:url(#id0)}
   ]]>
  </style>
  <linearGradient id="id0" gradientUnits="userSpaceOnUse" x1="428.04" y1="2429.56" x2="1370.62" y2="2429.56">
   <stop offset="0" style="stop-opacity:0; stop-color:#FEFEFE"/>
   <stop offset="0.509804" style="stop-opacity:1; stop-color:#FEFEFE"/>
   <stop offset="1" style="stop-opacity:1; stop-color:#FEFEFE"/>
  </linearGradient>
 </defs>
 <g id="Ebene_x0020_1">
  <metadata id="CorelCorpID_0Corel-Layer"/>
  <path class="fil0 str0" d="M999.58 4.97l1989.22 0c547.81,0 994.61,446.8 994.61,994.61l0 1989.22c0,547.81 -446.8,994.61 -994.61,994.61l-1989.22 0c-547.81,0 -994.61,-446.8 -994.61,-994.61l0 -1989.22c0,-547.81 446.8,-994.61 994.61,-994.61z"/>
  <polygon class="fil1" points="298.92,768.19 3269.48,768.19 3269.48,2806.59 298.92,2806.59 "/>
  <polygon class="fil2" points="535.48,1452.58 535.48,1968.75 820.79,1968.75 820.79,2062.1 423.46,2062.1 423.46,1452.58 "/>
  <path id="1" class="fil2" d="M1172.22 2015.12l-1.87 0c-6.07,6.38 -13.22,12.91 -21.78,19.6 -8.56,6.69 -18.36,13.07 -29.25,18.98 -10.89,5.91 -23.02,10.58 -36.4,14.15 -13.38,3.58 -27.84,5.45 -43.4,5.45 -21.01,0 -40.6,-3.27 -58.81,-9.8 -18.36,-6.53 -33.92,-16.03 -46.99,-28.32 -13.06,-12.29 -23.33,-27.07 -30.8,-44.65 -7.47,-17.43 -11.2,-37.02 -11.2,-58.49 0,-23.8 4.36,-44.96 12.91,-63.94 8.71,-18.82 20.84,-34.69 36.24,-47.76 15.56,-13.07 34.07,-23.03 55.7,-29.87 21.47,-6.85 45.42,-10.27 71.56,-10.27 19.13,0 36.71,1.24 52.89,3.58 16.02,2.49 30.18,5.44 42.31,8.71l0 -17.73c0,-10.26 -1.71,-20.23 -5.29,-29.71 -3.42,-9.64 -9.03,-18.05 -16.8,-25.51 -7.78,-7.47 -17.89,-13.22 -30.34,-17.73 -12.44,-4.36 -27.69,-6.53 -45.58,-6.53 -21.78,0 -43.71,2.33 -65.65,7.16 -21.78,4.82 -45.58,12.13 -71.09,21.78l0 -84.32c22.25,-9.64 45.74,-17.11 70.63,-22.24 25.05,-5.29 51.03,-7.94 78.41,-8.25 32.2,0 60.52,3.89 84.63,11.82 24.11,7.94 44.49,18.83 60.68,32.67 16.33,13.84 28.62,30.18 36.71,49 7.94,18.82 11.98,39.36 11.98,61.45l0 166.46c0,29.25 0.31,54.29 0.93,75.29 0.62,20.85 1.24,39.52 1.86,56.01l-97.54 0 -4.66 -46.98zm-8.87 -141.26c-10.26,-2.49 -22.09,-4.66 -35.47,-6.69 -13.38,-2.02 -26.91,-2.95 -40.45,-2.95 -26.45,0 -47.29,5.29 -62.54,15.71 -15.4,10.58 -23.03,26.6 -23.03,48.23 0,9.96 1.71,18.67 5.29,26.13 3.42,7.47 8.09,13.69 14,18.51 5.91,4.82 12.91,8.55 20.69,11.05 7.93,2.33 16.33,3.58 25.04,3.58 10.89,0 21.31,-1.4 30.96,-4.36 9.64,-2.8 18.66,-6.53 26.75,-10.89 8.25,-4.36 15.56,-9.33 22.09,-14.78 6.53,-5.6 12.13,-10.89 16.64,-16.02l0 -67.52z"/>
  <path id="2" class="fil2" d="M1587.74 1933.91c0,-9.49 -2.65,-17.27 -7.94,-23.33 -5.29,-6.07 -12.44,-11.05 -21.31,-15.25 -8.71,-4.04 -18.83,-7.62 -30.18,-10.73 -11.51,-2.96 -23.34,-6.07 -35.78,-9.03 -15.87,-4.36 -31.12,-9.18 -45.58,-14.93 -14.62,-5.6 -27.54,-12.91 -38.58,-22.09 -11.05,-9.02 -19.91,-20.53 -26.45,-34.38 -6.53,-13.85 -9.8,-30.65 -9.8,-50.72 0,-24.74 4.36,-46.05 13.22,-64.1 8.87,-18.05 20.85,-32.98 35.78,-44.8 15.09,-11.98 32.67,-20.69 52.58,-26.45 19.91,-5.76 40.91,-8.71 63.16,-8.71 27.07,0 52.43,2.18 76.08,6.53 23.64,4.36 45.11,10.11 64.25,16.96l0 87.59c-9.96,-3.27 -20.53,-6.23 -31.73,-9.03 -11.05,-2.8 -22.25,-5.29 -33.6,-7.31 -11.51,-2.02 -22.72,-3.73 -34.07,-4.98 -11.2,-1.4 -21.78,-2.02 -31.89,-2.02 -12.76,0 -23.49,1.25 -32.36,3.58 -8.71,2.49 -15.87,5.75 -21.31,9.8 -5.6,4.04 -9.49,8.71 -11.98,14 -2.34,5.29 -3.58,10.89 -3.58,16.64 0,9.96 2.65,18.2 7.93,24.58 5.29,6.38 12.76,11.51 22.1,15.4 9.33,4.04 19.29,7.31 29.55,9.8 10.27,2.64 20.38,5.13 30.03,7.62 15.24,3.58 30.34,7.94 45.58,13.22 15.09,5.14 28.78,12.29 40.91,21.63 12.13,9.18 22.09,21.16 29.71,35.94 7.78,14.78 11.67,33.45 11.67,56.31 0,24.89 -4.67,46.67 -14.16,65.19 -9.33,18.51 -22.4,33.91 -39.2,46.2 -16.96,12.29 -37.02,21.47 -60.67,27.38 -23.49,5.91 -49.32,8.87 -77.63,8.87 -28,0 -53.05,-2.18 -75.45,-6.53 -22.24,-4.51 -40.76,-9.96 -55.38,-16.64l0 -86.96c23.81,8.71 45.58,14.63 65.65,17.74 20.07,3.11 38.74,4.66 56.16,4.66 13.22,0 25.82,-0.93 37.33,-2.95 11.51,-2.02 21.47,-4.98 29.87,-9.33 8.25,-4.2 14.93,-9.49 19.75,-16.02 4.82,-6.53 7.32,-14.31 7.32,-23.34z"/>
  <path id="3" class="fil2" d="M2057.56 2061.48c-12.13,3.58 -26.6,6.53 -43.4,8.71 -16.96,2.02 -32.67,3.11 -47.29,3.11 -37.02,0 -67.36,-6.07 -91.01,-18.04 -23.65,-11.98 -40.3,-29.25 -49.94,-51.65 -7,-16.18 -10.58,-37.96 -10.58,-65.65l0 -228.69 -82.45 0 0 -88.67 82.45 0 0 -123.21 108.27 0 0 123.21 127.57 0 0 88.67 -127.57 0 0 214.69c0,16.96 2.65,29.56 7.78,37.81 9.03,14 27.23,21 54.14,21 12.6,0 24.89,-0.93 37.18,-2.95 12.29,-2.02 23.96,-4.52 34.85,-7.47l0 89.14z"/>
  <path id="4" class="fil2" d="M2402.3 2015.12l-1.87 0c-6.07,6.38 -13.22,12.91 -21.78,19.6 -8.56,6.69 -18.36,13.07 -29.25,18.98 -10.89,5.91 -23.02,10.58 -36.4,14.15 -13.38,3.58 -27.84,5.45 -43.4,5.45 -21.01,0 -40.6,-3.27 -58.81,-9.8 -18.36,-6.53 -33.92,-16.03 -46.99,-28.32 -13.06,-12.29 -23.33,-27.07 -30.8,-44.65 -7.47,-17.43 -11.2,-37.02 -11.2,-58.49 0,-23.8 4.36,-44.96 12.91,-63.94 8.71,-18.82 20.84,-34.69 36.24,-47.76 15.56,-13.07 34.07,-23.03 55.7,-29.87 21.47,-6.85 45.42,-10.27 71.56,-10.27 19.13,0 36.71,1.24 52.89,3.58 16.02,2.49 30.18,5.44 42.31,8.71l0 -17.73c0,-10.26 -1.71,-20.23 -5.29,-29.71 -3.42,-9.64 -9.03,-18.05 -16.8,-25.51 -7.78,-7.47 -17.89,-13.22 -30.34,-17.73 -12.44,-4.36 -27.69,-6.53 -45.58,-6.53 -21.78,0 -43.71,2.33 -65.65,7.16 -21.78,4.82 -45.58,12.13 -71.09,21.78l0 -84.32c22.25,-9.64 45.74,-17.11 70.63,-22.24 25.05,-5.29 51.03,-7.94 78.41,-8.25 32.2,0 60.52,3.89 84.63,11.82 24.11,7.94 44.49,18.83 60.68,32.67 16.33,13.84 28.62,30.18 36.71,49 7.94,18.82 11.98,39.36 11.98,61.45l0 166.46c0,29.25 0.31,54.29 0.93,75.29 0.62,20.85 1.24,39.52 1.86,56.01l-97.54 0 -4.66 -46.98zm-8.87 -141.26c-10.26,-2.49 -22.09,-4.66 -35.47,-6.69 -13.38,-2.02 -26.91,-2.95 -40.45,-2.95 -26.45,0 -47.29,5.29 -62.54,15.71 -15.4,10.58 -23.03,26.6 -23.03,48.23 0,9.96 1.71,18.67 5.29,26.13 3.42,7.47 8.09,13.69 14,18.51 5.91,4.82 12.91,8.55 20.69,11.05 7.93,2.33 16.33,3.58 25.04,3.58 10.89,0 21.31,-1.4 30.96,-4.36 9.64,-2.8 18.66,-6.53 26.75,-10.89 8.25,-4.36 15.56,-9.33 22.09,-14.78 6.53,-5.6 12.13,-10.89 16.64,-16.02l0 -67.52z"/>
  <path id="5" class="fil2" d="M2721.37 1681.89l1.86 0c6.38,-9.18 14.47,-18.05 24.11,-26.91 9.8,-8.87 20.85,-16.49 33.29,-23.18 12.45,-6.69 26.29,-12.13 41.23,-16.18 15.09,-4.2 31.12,-6.22 48.07,-6.22 16.18,0 31.74,1.86 46.83,5.45 14.94,3.73 28.78,9.33 41.23,17.11 12.45,7.78 23.49,17.73 32.98,30.02 9.65,12.45 17.11,27.07 22.56,44.03 3.11,9.49 5.13,19.76 6.22,30.8 1.09,11.05 1.56,23.96 1.56,38.58l0 286.72 -108.27 0 0 -270.07c0,-11.83 -0.47,-21.94 -1.4,-30.49 -0.93,-8.55 -2.49,-16.02 -4.98,-22.4 -5.45,-14 -13.69,-23.96 -24.74,-30.03 -11.2,-6.07 -24.58,-9.18 -40.29,-9.18 -21,0 -41.07,4.98 -60.36,14.93 -19.29,9.8 -36.24,24.27 -51.18,43.1l0 304.14 -108.27 0 0 -441.51 89.61 0 9.96 61.3z"/>
  <path id="6" class="fil2" d="M3330.42 1987.42c10.58,0 20.69,-1.4 30.34,-4.04 9.49,-2.8 18.51,-6.53 27.07,-11.05 8.55,-4.66 16.02,-9.65 22.56,-15.09 6.53,-5.6 12.13,-10.89 16.64,-16.03l0 -209.7c-12.76,-10.42 -27.07,-18.98 -42.78,-25.98 -15.87,-6.85 -32.67,-10.27 -50.25,-10.27 -11.2,0 -23.03,2.33 -35.31,6.84 -12.29,4.51 -23.49,12.29 -33.76,23.34 -10.11,10.89 -18.66,26.13 -25.51,45.58 -6.84,19.45 -10.26,44.34 -10.26,74.36 0,44.49 8.55,79.19 25.82,104.08 17.11,25.05 42.32,37.65 75.45,37.96zm-213.28 -137.37c0,-38.58 5.29,-73.12 16.02,-103.3 10.58,-30.18 25.2,-55.53 43.56,-76.07 18.36,-20.53 39.52,-35.78 63.16,-46.05 23.8,-10.12 48.38,-15.25 73.89,-15.25 11.98,0 23.18,1.09 33.92,3.11 10.58,2.18 20.69,5.13 30.02,8.71 9.49,3.73 18.2,7.78 26.45,12.29 8.25,4.66 15.87,9.33 22.87,14.15l0.93 0c-0.31,-6.07 -0.63,-14.62 -0.78,-25.67 -0.15,-11.2 -0.15,-23.18 -0.15,-36.25l0 -183.57 108.27 0 0 528.62c0,29.25 0.31,54.29 0.93,75.29 0.62,20.85 1.24,39.67 1.87,56.01l-97.85 0 -4.51 -47.14 -1.87 0c-6.38,7.62 -14,15.09 -23.03,22.4 -9.02,7.16 -18.82,13.54 -29.71,18.82 -10.74,5.29 -22.72,9.49 -35.63,12.6 -12.91,2.96 -26.91,4.51 -42.16,4.51 -24.11,0 -47.13,-4.2 -69.22,-12.76 -21.94,-8.55 -41.69,-21.62 -59.27,-39.36 -17.43,-17.89 -31.42,-41.07 -42,-69.85 -10.42,-28.62 -15.71,-62.38 -15.71,-101.28z"/>
  <path class="fil2" d="M1520.11 2538.63l0 -229.12 60.65 0c5.38,0 10.82,0.17 16.37,0.52 5.55,0.35 10.94,0.82 16.2,1.52 5.27,0.7 10.29,1.52 15.21,2.52 4.91,0.93 9.47,2.1 13.57,3.51 12.22,3.86 22.98,9.13 32.39,15.73 9.36,6.6 17.2,14.44 23.51,23.45 6.37,9.01 11.17,19.12 14.44,30.23 3.22,11.11 4.85,23.22 4.85,36.2 0,12.34 -1.34,23.92 -4.09,34.68 -2.75,10.82 -6.9,20.64 -12.51,29.53 -5.61,8.95 -12.63,16.78 -21.17,23.57 -8.54,6.78 -18.6,12.34 -30.24,16.72 -9.71,3.63 -20.76,6.38 -33.04,8.19 -12.34,1.82 -26.26,2.75 -41.63,2.75l-54.5 0zm59.42 -35.08c24.5,0 43.68,-3.4 57.48,-10.12 12.22,-6.02 21.46,-14.85 27.72,-26.37 6.26,-11.52 9.41,-26.26 9.41,-44.21 0,-9.36 -1.05,-17.78 -3.1,-25.32 -2.05,-7.54 -5.03,-14.27 -8.89,-20.12 -3.86,-5.91 -8.59,-10.94 -14.09,-15.15 -5.55,-4.27 -11.81,-7.72 -18.77,-10.47 -6.49,-2.51 -13.75,-4.33 -21.7,-5.5 -8.01,-1.11 -16.96,-1.7 -26.9,-1.7l-18.48 0 0 158.95 17.31 0z"/>
  <path id="1" class="fil2" d="M1842.38 2510.21c7.89,0 16.14,-0.76 24.68,-2.34 8.6,-1.58 17.25,-3.86 26.02,-6.78l0 32.22c-5.21,2.28 -13.27,4.45 -24.15,6.49 -10.82,2.05 -22.11,3.04 -33.74,3.04 -11.75,0 -22.92,-1.52 -33.51,-4.57 -10.52,-2.98 -19.76,-7.89 -27.72,-14.62 -7.89,-6.73 -14.15,-15.5 -18.83,-26.2 -4.62,-10.76 -6.96,-23.75 -6.96,-39.07 0,-15.08 2.16,-28.24 6.55,-39.59 4.33,-11.28 10.17,-20.64 17.49,-28.07 7.31,-7.42 15.67,-12.98 25.14,-16.72 9.41,-3.69 19.18,-5.55 29.24,-5.55 10.52,0 20.23,1.58 29.12,4.79 8.83,3.16 16.55,8.19 22.98,15.03 6.49,6.84 11.52,15.62 15.09,26.38 3.63,10.82 5.44,23.51 5.44,38.24 -0.12,5.67 -0.29,10.53 -0.53,14.5l-108.89 0c0.59,7.72 2.28,14.27 5.15,19.77 2.86,5.44 6.55,9.88 11.23,13.27 4.62,3.39 10,5.91 16.14,7.43 6.2,1.58 12.87,2.34 20.06,2.34zm-16.26 -110.17c-5.15,0 -9.71,0.93 -13.75,2.8 -3.97,1.93 -7.42,4.45 -10.35,7.72 -2.92,3.28 -5.21,7.08 -6.9,11.4 -1.76,4.33 -2.86,8.95 -3.45,13.86l65.27 0c0,-4.91 -0.65,-9.53 -1.99,-13.86 -1.29,-4.33 -3.22,-8.13 -5.79,-11.4 -2.58,-3.27 -5.79,-5.79 -9.59,-7.72 -3.86,-1.87 -8.3,-2.8 -13.45,-2.8z"/>
  <path id="2" class="fil2" d="M2083.2 2372.66l-64.21 165.97 -40.17 0 -64.39 -165.97 42.8 0 23.1 63.39c6.61,17.78 12.63,35.62 18.13,53.4l0.7 0c4.79,-15.38 10.7,-32.87 17.78,-52.4l23.09 -64.39 43.16 0z"/>
  <path id="3" class="fil2" d="M2192.9 2510.21c7.89,0 16.14,-0.76 24.68,-2.34 8.6,-1.58 17.25,-3.86 26.02,-6.78l0 32.22c-5.21,2.28 -13.27,4.45 -24.15,6.49 -10.82,2.05 -22.11,3.04 -33.74,3.04 -11.75,0 -22.92,-1.52 -33.51,-4.57 -10.52,-2.98 -19.76,-7.89 -27.72,-14.62 -7.89,-6.73 -14.15,-15.5 -18.83,-26.2 -4.62,-10.76 -6.96,-23.75 -6.96,-39.07 0,-15.08 2.16,-28.24 6.55,-39.59 4.33,-11.28 10.17,-20.64 17.49,-28.07 7.31,-7.42 15.67,-12.98 25.14,-16.72 9.41,-3.69 19.18,-5.55 29.24,-5.55 10.52,0 20.23,1.58 29.12,4.79 8.83,3.16 16.55,8.19 22.98,15.03 6.49,6.84 11.52,15.62 15.09,26.38 3.63,10.82 5.44,23.51 5.44,38.24 -0.12,5.67 -0.29,10.53 -0.53,14.5l-108.89 0c0.59,7.72 2.28,14.27 5.15,19.77 2.86,5.44 6.55,9.88 11.23,13.27 4.62,3.39 10,5.91 16.14,7.43 6.2,1.58 12.87,2.34 20.06,2.34zm-16.26 -110.17c-5.15,0 -9.71,0.93 -13.75,2.8 -3.97,1.93 -7.42,4.45 -10.35,7.72 -2.92,3.28 -5.21,7.08 -6.9,11.4 -1.76,4.33 -2.86,8.95 -3.45,13.86l65.27 0c0,-4.91 -0.65,-9.53 -1.99,-13.86 -1.29,-4.33 -3.22,-8.13 -5.79,-11.4 -2.58,-3.27 -5.79,-5.79 -9.59,-7.72 -3.86,-1.87 -8.3,-2.8 -13.45,-2.8z"/>
  <polygon id="4" class="fil2" points="2288.75,2538.63 2288.75,2290.56 2329.45,2290.56 2329.45,2538.63 "/>
  <path id="5" class="fil2" d="M2492.08 2455.65c0,-8.77 -1.05,-16.55 -3.1,-23.27 -2.05,-6.73 -4.85,-12.34 -8.54,-16.9 -3.63,-4.56 -8.01,-8.01 -13.16,-10.29 -5.14,-2.28 -10.76,-3.39 -16.78,-3.39 -5.9,0 -11.4,1.11 -16.49,3.39 -5.09,2.28 -9.47,5.73 -13.1,10.29 -3.63,4.56 -6.49,10.17 -8.54,16.9 -2.04,6.72 -3.1,14.5 -3.1,23.27 0,8.77 1.05,16.55 3.1,23.27 2.05,6.72 4.91,12.34 8.6,16.84 3.74,4.5 8.13,7.89 13.22,10.23 5.03,2.34 10.64,3.51 16.66,3.51 6.02,0 11.58,-1.17 16.61,-3.51 5.03,-2.34 9.35,-5.73 12.98,-10.23 3.69,-4.51 6.49,-10.12 8.54,-16.84 2.05,-6.72 3.1,-14.5 3.1,-23.27zm42.11 0c0,13.04 -1.93,24.91 -5.85,35.61 -3.86,10.76 -9.41,19.94 -16.72,27.6 -7.25,7.66 -16.02,13.57 -26.32,17.72 -10.29,4.15 -21.75,6.26 -34.44,6.26 -13.04,0 -24.74,-2.11 -35.08,-6.26 -10.35,-4.15 -19.13,-10.06 -26.32,-17.72 -7.19,-7.66 -12.69,-16.84 -16.55,-27.6 -3.8,-10.7 -5.73,-22.57 -5.73,-35.61 0,-13.04 1.93,-24.91 5.85,-35.62 3.86,-10.76 9.41,-19.94 16.72,-27.6 7.25,-7.66 16.02,-13.57 26.31,-17.72 10.29,-4.15 21.76,-6.26 34.44,-6.26 13.04,0 24.74,2.1 35.09,6.26 10.35,4.15 19.12,10.06 26.32,17.72 7.19,7.66 12.69,16.84 16.55,27.6 3.8,10.7 5.73,22.57 5.73,35.62z"/>
  <path id="6" class="fil2" d="M2647.75 2401.09c-7.08,0.12 -13.8,1.87 -20.23,5.21 -6.38,3.33 -12.05,7.89 -16.96,13.57l0 73.97c1.7,1.99 3.74,3.92 6.2,5.85 2.4,1.99 5.03,3.74 8.01,5.38 2.98,1.58 6.26,2.92 9.88,3.92 3.57,1.05 7.31,1.58 11.23,1.58 6.26,0 11.87,-1.35 16.78,-4.04 4.91,-2.69 9.01,-6.49 12.28,-11.4 3.22,-4.91 5.73,-10.76 7.43,-17.54 1.7,-6.78 2.57,-14.38 2.57,-22.69 0,-8.89 -0.88,-16.72 -2.63,-23.45 -1.82,-6.78 -4.33,-12.34 -7.54,-16.84 -3.28,-4.45 -7.19,-7.78 -11.76,-10.06 -4.56,-2.28 -9.65,-3.45 -15.26,-3.45zm5.38 141.76c-8.95,0 -17.02,-1.64 -24.33,-4.85 -7.25,-3.28 -13.27,-7.31 -18.07,-12.1l-0.7 0c0.11,2.28 0.23,5.5 0.35,9.71 0.12,4.15 0.17,8.71 0.17,13.62l0 69.07 -40.7 0 0 -245.61 35.67 0 1.76 18.6 0.64 0c5.09,-6.67 11.52,-12.1 19.41,-16.38 7.9,-4.27 17.08,-6.43 27.49,-6.43 9.01,0 17.89,1.7 26.67,5.03 8.77,3.39 16.49,8.54 23.27,15.5 6.73,7.02 12.11,15.79 16.2,26.43 4.03,10.59 6.08,23.22 6.08,37.84 0,15.44 -2.16,28.77 -6.49,40 -4.39,11.23 -10.12,20.52 -17.19,27.89 -7.08,7.37 -14.97,12.87 -23.57,16.38 -8.65,3.57 -17.54,5.32 -26.67,5.32z"/>
  <path id="7" class="fil2" d="M2976.81 2437.46c0,-3.57 -0.12,-6.84 -0.35,-9.94 -0.23,-3.1 -0.64,-5.79 -1.17,-8.07 -1.29,-5.03 -3.74,-9.07 -7.37,-12.16 -3.69,-3.1 -8.83,-4.68 -15.44,-4.79 -3.57,0 -7.2,0.52 -11,1.52 -3.74,1.05 -7.48,2.52 -11.23,4.39 -3.69,1.93 -7.25,4.21 -10.58,6.9 -3.39,2.69 -6.44,5.67 -9.18,9.01l0 114.33 -40.7 0 0 -101.17c0,-3.57 -0.11,-6.84 -0.35,-9.94 -0.23,-3.1 -0.65,-5.79 -1.17,-8.07 -1.29,-5.03 -3.69,-9.07 -7.31,-12.16 -3.57,-3.1 -8.77,-4.68 -15.5,-4.79 -3.57,0 -7.19,0.52 -10.99,1.52 -3.74,1.05 -7.48,2.52 -11.23,4.39 -3.69,1.93 -7.25,4.21 -10.58,6.9 -3.39,2.69 -6.44,5.67 -9.19,9.01l0 114.33 -40.7 0 0 -165.97 33.68 0 3.74 23.05 0.7 0c2.4,-3.45 5.44,-6.78 9.07,-10.12 3.68,-3.33 7.83,-6.2 12.45,-8.71 4.62,-2.51 9.71,-4.56 15.26,-6.08 5.56,-1.58 11.4,-2.34 17.6,-2.34 10.94,0 20.82,2.46 29.59,7.31 8.71,4.85 15.38,12.4 19.94,22.69l0.7 0c3.22,-4.44 6.78,-8.54 10.7,-12.16 3.98,-3.68 8.36,-6.78 13.16,-9.41 4.79,-2.63 9.94,-4.68 15.5,-6.2 5.55,-1.46 11.46,-2.22 17.78,-2.22 11.87,0.11 21.87,2.57 29.88,7.42 8.07,4.85 14.27,11.52 18.65,20 1.11,2.16 2.1,4.56 2.86,7.08 0.82,2.57 1.46,5.5 1.99,8.65 0.53,3.22 0.88,6.78 1.11,10.64 0.23,3.92 0.35,8.36 0.35,13.39l0 102.98 -40.7 0 0 -101.17z"/>
  <path id="8" class="fil2" d="M3147.51 2510.21c7.89,0 16.14,-0.76 24.68,-2.34 8.6,-1.58 17.25,-3.86 26.02,-6.78l0 32.22c-5.21,2.28 -13.27,4.45 -24.15,6.49 -10.82,2.05 -22.11,3.04 -33.74,3.04 -11.75,0 -22.92,-1.52 -33.51,-4.57 -10.52,-2.98 -19.76,-7.89 -27.72,-14.62 -7.89,-6.73 -14.15,-15.5 -18.83,-26.2 -4.62,-10.76 -6.96,-23.75 -6.96,-39.07 0,-15.08 2.16,-28.24 6.55,-39.59 4.33,-11.28 10.17,-20.64 17.49,-28.07 7.31,-7.42 15.67,-12.98 25.14,-16.72 9.41,-3.69 19.18,-5.55 29.24,-5.55 10.52,0 20.23,1.58 29.12,4.79 8.83,3.16 16.55,8.19 22.98,15.03 6.49,6.84 11.52,15.62 15.09,26.38 3.63,10.82 5.44,23.51 5.44,38.24 -0.12,5.67 -0.29,10.53 -0.53,14.5l-108.89 0c0.59,7.72 2.28,14.27 5.15,19.77 2.86,5.44 6.55,9.88 11.23,13.27 4.62,3.39 10,5.91 16.14,7.43 6.2,1.58 12.87,2.34 20.06,2.34zm-16.26 -110.17c-5.15,0 -9.71,0.93 -13.75,2.8 -3.97,1.93 -7.42,4.45 -10.35,7.72 -2.92,3.28 -5.21,7.08 -6.9,11.4 -1.76,4.33 -2.86,8.95 -3.45,13.86l65.27 0c0,-4.91 -0.65,-9.53 -1.99,-13.86 -1.29,-4.33 -3.22,-8.13 -5.79,-11.4 -2.58,-3.27 -5.79,-5.79 -9.59,-7.72 -3.86,-1.87 -8.3,-2.8 -13.45,-2.8z"/>
  <path id="9" class="fil2" d="M3279.03 2395.71l0.7 0c2.4,-3.45 5.44,-6.78 9.07,-10.12 3.68,-3.33 7.83,-6.2 12.51,-8.71 4.68,-2.51 9.88,-4.56 15.5,-6.08 5.67,-1.58 11.7,-2.34 18.07,-2.34 6.08,0 11.93,0.7 17.6,2.04 5.61,1.41 10.82,3.51 15.5,6.44 4.67,2.92 8.83,6.66 12.39,11.28 3.63,4.68 6.44,10.18 8.48,16.55 1.17,3.57 1.93,7.43 2.34,11.58 0.41,4.15 0.59,9 0.59,14.5l0 107.78 -40.7 0 0 -101.52c0,-4.45 -0.17,-8.25 -0.53,-11.46 -0.35,-3.21 -0.93,-6.02 -1.87,-8.42 -2.05,-5.26 -5.15,-9.01 -9.3,-11.29 -4.21,-2.28 -9.24,-3.45 -15.14,-3.45 -7.9,0 -15.44,1.87 -22.69,5.61 -7.25,3.68 -13.63,9.12 -19.24,16.2l0 114.33 -40.7 0 0 -165.97 33.68 0 3.74 23.05z"/>
  <path id="10" class="fil2" d="M3537.8 2538.4c-4.57,1.34 -10,2.46 -16.32,3.27 -6.38,0.76 -12.28,1.17 -17.78,1.17 -13.92,0 -25.32,-2.28 -34.21,-6.78 -8.89,-4.51 -15.15,-11 -18.77,-19.41 -2.63,-6.08 -3.97,-14.27 -3.97,-24.68l0 -85.96 -31 0 0 -33.33 31 0 0 -46.31 40.7 0 0 46.31 47.96 0 0 33.33 -47.96 0 0 80.7c0,6.38 0.99,11.11 2.92,14.21 3.39,5.27 10.23,7.9 20.35,7.9 4.74,0 9.36,-0.35 13.98,-1.11 4.62,-0.76 9,-1.7 13.1,-2.8l0 33.51z"/>
  <polygon class="fil3" points="437.99,2409.86 1370.62,2409.86 1360.67,2449.25 428.04,2449.25 "/>
 </g>
</svg>
