<?xml version="1.0" encoding="UTF-8"?>
<!DOCTYPE svg PUBLIC "-//W3C//DTD SVG 1.1//EN" "http://www.w3.org/Graphics/SVG/1.1/DTD/svg11.dtd">
<svg xmlns="http://www.w3.org/2000/svg" xml:space="preserve" width="62.6306mm" height="24.4539mm" version="1.1" style="shape-rendering:geometricPrecision; text-rendering:geometricPrecision; image-rendering:optimizeQuality; fill-rule:evenodd; clip-rule:evenodd"
viewBox="0 0 7455.84 2911.11">
 <defs>
  <style type="text/css">
  </style>
  <linearGradient id="id0" gradientUnits="userSpaceOnUse" x1="10.96" y1="2459.34" x2="2267.3" y2="2459.34">
   <stop offset="0" style="stop-opacity:0; stop-color:#FFFFFF"/>
   <stop offset="1" style="stop-opacity:1; stop-color:#FFFFFF"/>
  </linearGradient>
 </defs>
 <g id="Ebene_x0020_1">
  <metadata id="CorelCorpID_0Corel-Layer"/>
  <g fill="#FFFFFF">
  <path d="M268.14 120.65l0 1235.62 682.98 0 0 223.45 -951.12 0 0 -1459.07 268.14 0zm1524.24 1346.61l-4.48 0c-14.52,15.26 -31.65,30.9 -52.13,46.92 -20.49,16.01 -43.95,31.28 -70.02,45.44 -26.06,14.14 -55.11,25.32 -87.14,33.88 -32.02,8.57 -66.65,13.04 -103.89,13.04 -50.28,0 -97.2,-7.82 -140.77,-23.45 -43.95,-15.64 -81.19,-38.37 -112.47,-67.78 -31.27,-29.42 -55.86,-64.8 -73.72,-106.88 -17.88,-41.71 -26.82,-88.63 -26.82,-140.02 0,-56.97 10.43,-107.63 30.92,-153.06 20.84,-45.06 49.89,-83.05 86.76,-114.33 37.25,-31.28 81.56,-55.12 133.33,-71.5 51.39,-16.39 108.74,-24.58 171.31,-24.58 45.8,0 87.88,2.98 126.62,8.57 38.36,5.95 72.24,13.02 101.28,20.84l0 -42.45c0,-24.57 -4.1,-48.42 -12.65,-71.13 -8.19,-23.08 -21.61,-43.2 -40.23,-61.07 -18.62,-17.88 -42.82,-31.65 -72.62,-42.45 -29.78,-10.43 -66.28,-15.64 -109.12,-15.64 -52.13,0 -104.64,5.58 -157.15,17.13 -52.13,11.55 -109.12,29.05 -170.19,52.13l0 -201.84c53.26,-23.08 109.49,-40.96 169.07,-53.25 59.96,-12.67 122.15,-19 187.7,-19.74 77.08,0 144.87,9.31 202.58,28.3 57.72,19 106.51,45.07 145.25,78.21 39.09,33.14 68.52,72.25 87.88,117.31 19,45.06 28.68,94.21 28.68,147.09l0 398.48c0,70.01 0.75,129.96 2.24,180.23 1.49,49.9 2.98,94.59 4.46,134.07l-233.49 0 -11.17 -112.46zm-21.24 -338.15c-24.57,-5.95 -52.88,-11.17 -84.9,-16.01 -32.02,-4.85 -64.43,-7.07 -96.82,-7.07 -63.31,0 -113.21,12.65 -149.71,37.61 -36.87,25.32 -55.12,63.68 -55.12,115.45 0,23.83 4.1,44.69 12.67,62.56 8.19,17.88 19.36,32.77 33.51,44.32 14.15,11.55 30.92,20.48 49.53,26.44 18.99,5.58 39.09,8.56 59.95,8.56 26.07,0 51.02,-3.35 74.12,-10.43 23.08,-6.7 44.68,-15.63 64.05,-26.06 19.74,-10.43 37.24,-22.34 52.88,-35.38 15.64,-13.4 29.05,-26.07 39.84,-38.36l0 -161.63zm1015.92 143.75c0,-22.71 -6.33,-41.33 -19,-55.86 -12.65,-14.52 -29.78,-26.44 -51.01,-36.5 -20.86,-9.68 -45.07,-18.25 -72.25,-25.69 -27.56,-7.08 -55.87,-14.52 -85.65,-21.61 -37.99,-10.43 -74.49,-21.96 -109.12,-35.75 -35,-13.4 -65.92,-30.9 -92.35,-52.88 -26.44,-21.59 -47.67,-49.15 -63.31,-82.3 -15.64,-33.15 -23.46,-73.37 -23.46,-121.4 0,-59.21 10.43,-110.24 31.65,-153.44 21.23,-43.2 49.9,-78.95 85.65,-107.25 36.13,-28.68 78.21,-49.53 125.88,-63.31 47.67,-13.79 97.94,-20.86 151.19,-20.86 64.81,0 125.51,5.21 182.11,15.64 56.59,10.43 107.99,24.2 153.79,40.59l0 209.66c-23.83,-7.82 -49.15,-14.9 -75.96,-21.61 -26.45,-6.7 -53.26,-12.65 -80.44,-17.5 -27.56,-4.85 -54.38,-8.94 -81.56,-11.92 -26.82,-3.36 -52.14,-4.85 -76.34,-4.85 -30.53,0 -56.24,2.99 -77.46,8.57 -20.86,5.95 -37.99,13.77 -51.02,23.46 -13.4,9.68 -22.71,20.84 -28.67,33.51 -5.6,12.67 -8.57,26.07 -8.57,39.84 0,23.83 6.33,43.57 18.99,58.84 12.67,15.26 30.55,27.56 52.89,36.87 22.34,9.68 46.18,17.5 70.75,23.46 24.58,6.32 48.78,12.29 71.88,18.24 36.49,8.57 72.62,19 109.12,31.65 36.12,12.3 68.89,29.43 97.94,51.77 29.05,21.96 52.88,50.64 71.13,86.02 18.62,35.38 27.93,80.07 27.93,134.81 0,59.58 -11.18,111.72 -33.89,156.04 -22.34,44.31 -53.62,81.18 -93.84,110.6 -40.59,29.42 -88.63,51.39 -145.23,65.53 -56.24,14.15 -118.06,21.23 -185.83,21.23 -67.03,0 -126.98,-5.21 -180.61,-15.64 -53.25,-10.8 -97.57,-23.83 -132.58,-39.84l0 -208.17c56.99,20.86 109.12,35.01 157.16,42.46 48.03,7.44 92.72,11.17 134.44,11.17 31.65,0 61.81,-2.24 89.37,-7.07 27.56,-4.85 51.39,-11.92 71.51,-22.34 19.74,-10.06 35.75,-22.73 47.28,-38.36 11.55,-15.64 17.51,-34.26 17.51,-55.87zm1124.64 305.37c-29.05,8.56 -63.68,15.64 -103.89,20.86 -40.59,4.83 -78.21,7.44 -113.21,7.44 -88.63,0 -161.26,-14.52 -217.85,-43.19 -56.61,-28.68 -96.46,-70.02 -119.54,-123.64 -16.76,-38.74 -25.32,-90.87 -25.32,-157.15l0 -547.44 -197.38 0 0 -212.27 197.38 0 0 -294.93 259.18 0 0 294.93 305.37 0 0 212.27 -305.37 0 0 513.92c0,40.59 6.33,70.76 18.62,90.5 21.61,33.51 65.18,50.27 129.6,50.27 30.17,0 59.58,-2.24 89,-7.07 29.43,-4.85 57.36,-10.81 83.41,-17.88l0 213.39zm825.25 -110.97l-4.48 0c-14.52,15.26 -31.65,30.9 -52.13,46.92 -20.49,16.01 -43.95,31.28 -70.02,45.44 -26.06,14.14 -55.11,25.32 -87.14,33.88 -32.02,8.57 -66.65,13.04 -103.89,13.04 -50.28,0 -97.2,-7.82 -140.77,-23.45 -43.95,-15.64 -81.19,-38.37 -112.47,-67.78 -31.27,-29.42 -55.86,-64.8 -73.72,-106.88 -17.88,-41.71 -26.82,-88.63 -26.82,-140.02 0,-56.97 10.43,-107.63 30.92,-153.06 20.84,-45.06 49.89,-83.05 86.76,-114.33 37.25,-31.28 81.56,-55.12 133.33,-71.5 51.39,-16.39 108.74,-24.58 171.31,-24.58 45.8,0 87.88,2.98 126.62,8.57 38.36,5.95 72.24,13.02 101.28,20.84l0 -42.45c0,-24.57 -4.1,-48.42 -12.65,-71.13 -8.19,-23.08 -21.61,-43.2 -40.23,-61.07 -18.62,-17.88 -42.82,-31.65 -72.62,-42.45 -29.78,-10.43 -66.28,-15.64 -109.12,-15.64 -52.13,0 -104.64,5.58 -157.15,17.13 -52.13,11.55 -109.12,29.05 -170.19,52.13l0 -201.84c53.26,-23.08 109.49,-40.96 169.07,-53.25 59.96,-12.67 122.15,-19 187.7,-19.74 77.08,0 144.87,9.31 202.58,28.3 57.72,19 106.51,45.07 145.25,78.21 39.09,33.14 68.52,72.25 87.88,117.31 19,45.06 28.68,94.21 28.68,147.09l0 398.48c0,70.01 0.75,129.96 2.24,180.23 1.49,49.9 2.98,94.59 4.46,134.07l-233.49 0 -11.17 -112.46zm-21.24 -338.15c-24.57,-5.95 -52.88,-11.17 -84.9,-16.01 -32.02,-4.85 -64.43,-7.07 -96.82,-7.07 -63.31,0 -113.21,12.65 -149.71,37.61 -36.87,25.32 -55.12,63.68 -55.12,115.45 0,23.83 4.1,44.69 12.67,62.56 8.19,17.88 19.36,32.77 33.51,44.32 14.15,11.55 30.92,20.48 49.53,26.44 18.99,5.58 39.09,8.56 59.95,8.56 26.07,0 51.02,-3.35 74.12,-10.43 23.08,-6.7 44.68,-15.63 64.05,-26.06 19.74,-10.43 37.24,-22.34 52.88,-35.38 15.64,-13.4 29.05,-26.07 39.84,-38.36l0 -161.63zm785.03 -459.54l4.46 0c15.27,-21.98 34.63,-43.2 57.72,-64.43 23.46,-21.23 49.9,-39.48 79.69,-55.49 29.8,-16.02 62.94,-29.05 98.69,-38.74 36.12,-10.05 74.49,-14.89 115.07,-14.89 38.74,0 75.97,4.46 112.09,13.04 35.76,8.94 68.9,22.34 98.69,40.96 29.8,18.62 56.24,42.45 78.95,71.87 23.09,29.8 40.96,64.81 54,105.39 7.45,22.73 12.29,47.3 14.89,73.74 2.61,26.44 3.73,57.36 3.73,92.35l0 686.34 -259.18 0 0 -646.48c0,-28.31 -1.12,-52.51 -3.36,-73 -2.24,-20.48 -5.95,-38.36 -11.92,-53.62 -13.04,-33.52 -32.77,-57.36 -59.21,-71.88 -26.81,-14.52 -58.84,-21.98 -96.45,-21.98 -50.27,0 -98.32,11.92 -144.5,35.75 -46.18,23.46 -86.76,58.11 -122.52,103.16l0 728.04 -259.18 0 0 -1056.88 214.51 0 23.83 146.73zm1457.94 731.39c25.33,0 49.53,-3.35 72.63,-9.68 22.71,-6.7 44.31,-15.64 64.8,-26.44 20.48,-11.17 38.36,-23.09 54,-36.12 15.63,-13.42 29.05,-26.07 39.84,-38.37l0 -501.99c-30.53,-24.95 -64.8,-45.44 -102.41,-62.19 -37.99,-16.39 -78.2,-24.58 -120.28,-24.58 -26.81,0 -55.12,5.58 -84.53,16.38 -29.43,10.8 -56.24,29.43 -80.82,55.87 -24.2,26.06 -44.68,62.56 -61.07,109.1 -16.38,46.56 -24.57,106.14 -24.57,178.01 0,106.51 20.48,189.55 61.81,249.14 40.96,59.96 101.3,90.13 180.61,90.87zm-510.56 -328.83c0,-92.35 12.67,-175.03 38.36,-247.28 25.32,-72.24 60.33,-132.94 104.27,-182.1 43.95,-49.15 94.59,-85.65 151.2,-110.22 56.97,-24.21 115.82,-36.5 176.89,-36.5 28.68,0 55.49,2.61 81.19,7.45 25.32,5.21 49.52,12.29 71.87,20.84 22.73,8.94 43.57,18.63 63.31,29.43 19.74,11.17 37.99,22.34 54.75,33.88l2.24 0c-0.75,-14.52 -1.5,-35 -1.87,-61.44 -0.37,-26.82 -0.37,-55.49 -0.37,-86.77l0 -439.43 259.18 0 0 1265.42c0,70.01 0.75,129.96 2.24,180.23 1.49,49.9 2.98,94.96 4.48,134.07l-234.24 0 -10.8 -112.84 -4.48 0c-15.26,18.25 -33.51,36.13 -55.12,53.63 -21.59,17.13 -45.06,32.4 -71.12,45.06 -25.7,12.67 -54.38,22.71 -85.28,30.17 -30.92,7.08 -64.43,10.8 -100.93,10.8 -57.72,0 -112.83,-10.05 -165.71,-30.53 -52.51,-20.48 -99.81,-51.76 -141.89,-94.21 -41.71,-42.83 -75.22,-98.32 -100.55,-167.21 -24.95,-68.52 -37.62,-149.33 -37.62,-242.43z"/>
  <path d="M2625.14 2720.44l0 -548.46 145.17 0c12.87,0 25.89,0.42 39.19,1.25 13.3,0.85 26.18,1.96 38.77,3.64 12.61,1.68 24.64,3.64 36.4,6.02 11.76,2.24 22.68,5.04 32.48,8.39 29.26,9.24 55.01,21.84 77.55,37.67 22.4,15.81 41.17,34.57 56.28,56.13 15.25,21.56 26.74,45.77 34.57,72.37 7.7,26.61 11.62,55.58 11.62,86.65 0,29.55 -3.21,57.26 -9.8,83.02 -6.58,25.89 -16.52,49.42 -29.95,70.69 -13.44,21.42 -30.24,40.18 -50.68,56.42 -20.44,16.24 -44.52,29.53 -72.38,40.03 -23.24,8.68 -49.69,15.26 -79.09,19.59 -29.53,4.35 -62.86,6.58 -99.66,6.58l-130.47 0zm142.23 -83.99c58.65,0 104.57,-8.13 137.6,-24.23 29.26,-14.42 51.37,-35.56 66.36,-63.13 14.98,-27.58 22.54,-62.86 22.54,-105.83 0,-22.4 -2.52,-42.56 -7.42,-60.62 -4.9,-18.06 -12.05,-34.15 -21.29,-48.15 -9.24,-14.14 -20.57,-26.18 -33.74,-36.26 -13.3,-10.21 -28.27,-18.48 -44.93,-25.06 -15.55,-6.01 -32.9,-10.36 -51.94,-13.15 -19.18,-2.65 -40.59,-4.06 -64.39,-4.06l-44.24 0 0 380.49 41.44 0zm629.23 15.95c18.89,0 38.63,-1.82 59.07,-5.6 20.58,-3.79 41.3,-9.24 62.3,-16.24l0 77.13c-12.46,5.46 -31.77,10.64 -57.82,15.54 -25.89,4.9 -52.92,7.29 -80.77,7.29 -28.13,0 -54.87,-3.64 -80.21,-10.93 -25.19,-7.13 -47.31,-18.89 -66.36,-34.99 -18.89,-16.11 -33.87,-37.11 -45.07,-62.71 -11.06,-25.76 -16.65,-56.84 -16.65,-93.52 0,-36.11 5.18,-67.61 15.68,-94.77 10.36,-27.01 24.36,-49.42 41.86,-67.19 17.5,-17.77 37.51,-31.07 60.19,-40.03 22.54,-8.82 45.92,-13.3 70,-13.3 25.19,0 48.43,3.77 69.71,11.48 21.13,7.56 39.62,19.59 55.01,35.98 15.54,16.38 27.58,37.38 36.12,63.14 8.68,25.89 13.02,56.27 13.02,91.55 -0.29,13.58 -0.7,25.2 -1.26,34.71l-260.66 0c1.4,18.49 5.46,34.17 12.32,47.32 6.86,13.02 15.68,23.65 26.88,31.77 11.06,8.12 23.94,14.14 38.63,17.79 14.84,3.77 30.8,5.6 48.02,5.6zm-38.92 -263.73c-12.32,0 -23.24,2.24 -32.9,6.71 -9.51,4.62 -17.77,10.64 -24.77,18.48 -7,7.85 -12.46,16.94 -16.52,27.3 -4.2,10.37 -6.86,21.43 -8.26,33.18l156.23 0c0,-11.75 -1.55,-22.81 -4.76,-33.18 -3.08,-10.36 -7.7,-19.45 -13.86,-27.3 -6.17,-7.83 -13.86,-13.86 -22.96,-18.48 -9.24,-4.48 -19.88,-6.71 -32.19,-6.71zm615.38 -65.52l-153.71 397.29 -96.16 0 -154.13 -397.29 102.46 0 55.3 151.75c15.82,42.56 30.24,85.26 43.4,127.82l1.68 0c11.48,-36.82 25.62,-78.68 42.56,-125.44l55.28 -154.13 103.32 0zm262.61 329.25c18.89,0 38.63,-1.82 59.07,-5.6 20.58,-3.79 41.3,-9.24 62.3,-16.24l0 77.13c-12.46,5.46 -31.77,10.64 -57.82,15.54 -25.89,4.9 -52.92,7.29 -80.77,7.29 -28.13,0 -54.87,-3.64 -80.21,-10.93 -25.19,-7.13 -47.31,-18.89 -66.36,-34.99 -18.89,-16.11 -33.87,-37.11 -45.07,-62.71 -11.06,-25.76 -16.65,-56.84 -16.65,-93.52 0,-36.11 5.18,-67.61 15.68,-94.77 10.36,-27.01 24.36,-49.42 41.86,-67.19 17.5,-17.77 37.51,-31.07 60.19,-40.03 22.54,-8.82 45.92,-13.3 70,-13.3 25.19,0 48.43,3.77 69.71,11.48 21.13,7.56 39.62,19.59 55.01,35.98 15.54,16.38 27.58,37.38 36.12,63.14 8.68,25.89 13.02,56.27 13.02,91.55 -0.29,13.58 -0.7,25.2 -1.26,34.71l-260.66 0c1.4,18.49 5.46,34.17 12.32,47.32 6.86,13.02 15.68,23.65 26.88,31.77 11.06,8.12 23.94,14.14 38.63,17.79 14.84,3.77 30.8,5.6 48.02,5.6zm-38.92 -263.73c-12.32,0 -23.24,2.24 -32.9,6.71 -9.51,4.62 -17.77,10.64 -24.77,18.48 -7,7.85 -12.46,16.94 -16.52,27.3 -4.2,10.37 -6.86,21.43 -8.26,33.18l156.23 0c0,-11.75 -1.55,-22.81 -4.76,-33.18 -3.08,-10.36 -7.7,-19.45 -13.86,-27.3 -6.17,-7.83 -13.86,-13.86 -22.96,-18.48 -9.24,-4.48 -19.88,-6.71 -32.19,-6.71zm268.35 331.77l0 -593.82 97.43 0 0 593.82 -97.43 0zm486.73 -198.64c0,-21 -2.51,-39.62 -7.42,-55.71 -4.9,-16.11 -11.62,-29.55 -20.44,-40.46 -8.68,-10.92 -19.18,-19.18 -31.5,-24.63 -12.31,-5.46 -25.75,-8.12 -40.18,-8.12 -14.13,0 -27.3,2.65 -39.48,8.12 -12.18,5.45 -22.68,13.71 -31.36,24.63 -8.68,10.92 -15.54,24.36 -20.44,40.46 -4.89,16.09 -7.42,34.71 -7.42,55.71 0,21 2.52,39.62 7.42,55.71 4.9,16.09 11.76,29.53 20.58,40.32 8.96,10.77 19.46,18.89 31.64,24.49 12.04,5.61 25.48,8.4 39.89,8.4 14.42,0 27.71,-2.8 39.76,-8.4 12.04,-5.6 22.39,-13.71 31.07,-24.49 8.82,-10.79 15.54,-24.23 20.44,-40.32 4.9,-16.09 7.42,-34.71 7.42,-55.71zm100.8 0c0,31.21 -4.62,59.63 -14,85.25 -9.24,25.76 -22.54,47.74 -40.03,66.07 -17.36,18.34 -38.36,32.49 -63,42.42 -24.63,9.94 -52.07,14.99 -82.45,14.99 -31.21,0 -59.21,-5.05 -83.99,-14.99 -24.79,-9.93 -45.78,-24.07 -63,-42.42 -17.21,-18.33 -30.38,-40.31 -39.62,-66.07 -9.1,-25.62 -13.71,-54.03 -13.71,-85.25 0,-31.23 4.62,-59.64 14,-85.26 9.24,-25.75 22.54,-47.73 40.03,-66.07 17.36,-18.33 38.36,-32.48 62.99,-42.42 24.64,-9.94 52.08,-14.98 82.45,-14.98 31.23,0 59.22,5.04 84,14.98 24.77,9.94 45.77,24.08 63,42.42 17.21,18.34 30.37,40.32 39.61,66.07 9.11,25.62 13.73,54.03 13.73,85.26zm271.85 -130.62c-16.94,0.29 -33.03,4.49 -48.43,12.46 -15.26,7.98 -28.84,18.89 -40.61,32.48l0 177.08c4.06,4.76 8.96,9.38 14.84,14 5.74,4.76 12.04,8.96 19.18,12.88 7.14,3.79 14.98,7 23.65,9.38 8.54,2.52 17.5,3.79 26.88,3.79 14.98,0 28.42,-3.23 40.18,-9.67 11.76,-6.44 21.56,-15.54 29.39,-27.3 7.7,-11.76 13.73,-25.76 17.79,-42 4.06,-16.24 6.15,-34.43 6.15,-54.31 0,-21.29 -2.1,-40.03 -6.3,-56.14 -4.35,-16.24 -10.36,-29.53 -18.06,-40.31 -7.85,-10.64 -17.21,-18.62 -28.14,-24.08 -10.92,-5.45 -23.09,-8.26 -36.53,-8.26zm12.88 339.34c-21.42,0 -40.74,-3.93 -58.24,-11.62 -17.36,-7.85 -31.77,-17.5 -43.25,-28.98l-1.68 0c0.27,5.45 0.56,13.15 0.83,23.24 0.29,9.93 0.42,20.86 0.42,32.61l0 165.33 -97.43 0 0 -587.95 85.39 0 4.2 44.52 1.54 0c12.18,-15.96 27.58,-28.98 46.48,-39.2 18.9,-10.21 40.88,-15.39 65.8,-15.39 21.56,0 42.83,4.06 63.83,12.04 21,8.12 39.48,20.44 55.71,37.09 16.11,16.8 28.99,37.8 38.78,63.27 9.65,25.34 14.56,55.58 14.56,90.58 0,36.95 -5.18,68.87 -15.55,95.75 -10.5,26.88 -24.21,49.13 -41.15,66.77 -16.94,17.64 -35.83,30.8 -56.42,39.2 -20.71,8.54 -42,12.74 -63.83,12.74zm774.83 -252.26c0,-8.55 -0.29,-16.38 -0.85,-23.8 -0.56,-7.43 -1.54,-13.87 -2.8,-19.32 -3.08,-12.04 -8.96,-21.7 -17.64,-29.12 -8.82,-7.42 -21.14,-11.2 -36.95,-11.48 -8.55,0 -17.23,1.25 -26.32,3.63 -8.96,2.52 -17.92,6.02 -26.88,10.5 -8.82,4.62 -17.36,10.08 -25.33,16.52 -8.12,6.44 -15.4,13.58 -21.98,21.56l0 273.67 -97.44 0 0 -242.17c0,-8.55 -0.27,-16.38 -0.83,-23.8 -0.56,-7.43 -1.55,-13.87 -2.8,-19.32 -3.08,-12.04 -8.82,-21.7 -17.5,-29.12 -8.55,-7.42 -21,-11.2 -37.11,-11.48 -8.54,0 -17.21,1.25 -26.31,3.63 -8.96,2.52 -17.92,6.02 -26.88,10.5 -8.82,4.62 -17.36,10.08 -25.33,16.52 -8.12,6.44 -15.4,13.58 -21.99,21.56l0 273.67 -97.43 0 0 -397.29 80.63 0 8.96 55.17 1.68 0c5.74,-8.26 13.02,-16.24 21.7,-24.23 8.81,-7.98 18.75,-14.83 29.81,-20.86 11.06,-6.01 23.24,-10.92 36.53,-14.56 13.31,-3.77 27.3,-5.6 42.14,-5.6 26.18,0 49.83,5.88 70.83,17.5 20.86,11.62 36.82,29.68 47.74,54.31l1.68 0c7.7,-10.63 16.24,-20.44 25.62,-29.12 9.52,-8.81 20.02,-16.24 31.5,-22.54 11.48,-6.3 23.8,-11.2 37.09,-14.83 13.3,-3.5 27.44,-5.32 42.56,-5.32 28.42,0.27 52.36,6.15 71.53,17.77 19.31,11.62 34.15,27.58 44.65,47.88 2.65,5.18 5.04,10.92 6.86,16.94 1.96,6.15 3.5,13.15 4.76,20.71 1.26,7.7 2.1,16.24 2.65,25.48 0.56,9.38 0.85,20.02 0.85,32.06l0 246.52 -97.43 0 0 -242.17zm408.62 174.14c18.89,0 38.63,-1.82 59.07,-5.6 20.58,-3.79 41.3,-9.24 62.3,-16.24l0 77.13c-12.46,5.46 -31.77,10.64 -57.82,15.54 -25.89,4.9 -52.92,7.29 -80.77,7.29 -28.13,0 -54.87,-3.64 -80.21,-10.93 -25.19,-7.13 -47.31,-18.89 -66.36,-34.99 -18.89,-16.11 -33.87,-37.11 -45.07,-62.71 -11.06,-25.76 -16.65,-56.84 -16.65,-93.52 0,-36.11 5.18,-67.61 15.68,-94.77 10.36,-27.01 24.36,-49.42 41.86,-67.19 17.5,-17.77 37.51,-31.07 60.19,-40.03 22.54,-8.82 45.92,-13.3 70,-13.3 25.19,0 48.43,3.77 69.71,11.48 21.13,7.56 39.62,19.59 55.01,35.98 15.54,16.38 27.58,37.38 36.12,63.14 8.68,25.89 13.02,56.27 13.02,91.55 -0.29,13.58 -0.7,25.2 -1.26,34.71l-260.66 0c1.4,18.49 5.46,34.17 12.32,47.32 6.86,13.02 15.68,23.65 26.88,31.77 11.06,8.12 23.94,14.14 38.63,17.79 14.84,3.77 30.8,5.6 48.02,5.6zm-38.92 -263.73c-12.32,0 -23.24,2.24 -32.9,6.71 -9.51,4.62 -17.77,10.64 -24.77,18.48 -7,7.85 -12.46,16.94 -16.52,27.3 -4.2,10.37 -6.86,21.43 -8.26,33.18l156.23 0c0,-11.75 -1.55,-22.81 -4.76,-33.18 -3.08,-10.36 -7.7,-19.45 -13.86,-27.3 -6.17,-7.83 -13.86,-13.86 -22.96,-18.48 -9.24,-4.48 -19.88,-6.71 -32.19,-6.71zm353.74 -10.36l1.68 0c5.74,-8.26 13.02,-16.24 21.7,-24.23 8.81,-7.98 18.75,-14.83 29.95,-20.86 11.2,-6.01 23.65,-10.92 37.09,-14.56 13.58,-3.77 28,-5.6 43.26,-5.6 14.56,0 28.56,1.68 42.13,4.89 13.44,3.37 25.9,8.4 37.11,15.4 11.19,7 21.13,15.95 29.67,27.01 8.69,11.2 15.4,24.37 20.31,39.62 2.8,8.55 4.62,17.79 5.6,27.73 0.98,9.93 1.4,21.55 1.4,34.71l0 257.99 -97.44 0 0 -243.02c0,-10.64 -0.42,-19.74 -1.26,-27.44 -0.83,-7.69 -2.24,-14.42 -4.48,-20.15 -4.9,-12.59 -12.32,-21.56 -22.26,-27.02 -10.07,-5.45 -22.12,-8.25 -36.25,-8.25 -18.9,0 -36.96,4.48 -54.32,13.44 -17.36,8.81 -32.62,21.83 -46.06,38.77l0 273.67 -97.43 0 0 -397.29 80.63 0 8.96 55.17zm619.45 341.56c-10.93,3.21 -23.94,5.88 -39.06,7.83 -15.26,1.82 -29.4,2.81 -42.56,2.81 -33.32,0 -60.62,-5.46 -81.89,-16.24 -21.27,-10.79 -36.26,-26.32 -44.94,-46.48 -6.3,-14.56 -9.51,-34.17 -9.51,-59.08l0 -205.78 -74.2 0 0 -79.8 74.2 0 0 -110.87 97.43 0 0 110.87 114.79 0 0 79.8 -114.79 0 0 193.19c0,15.26 2.38,26.59 7,34.01 8.12,12.61 24.5,18.9 48.71,18.9 11.34,0 22.4,-0.85 33.46,-2.67 11.06,-1.81 21.55,-4.06 31.36,-6.71l0 80.21z"/>
  <polygon points="34.77,2412.2 2267.3,2412.2 2243.49,2506.49 10.96,2506.49 " fill="url('#id0')"/>
  </g>
 </g>
</svg>
