<?xml version="1.0" encoding="UTF-8"?>
<!DOCTYPE svg PUBLIC "-//W3C//DTD SVG 1.1//EN" "http://www.w3.org/Graphics/SVG/1.1/DTD/svg11.dtd">
<svg xmlns="http://www.w3.org/2000/svg" xml:space="preserve" width="62.6306mm" height="24.4539mm" version="1.1" style="shape-rendering:geometricPrecision; text-rendering:geometricPrecision; image-rendering:optimizeQuality; fill-rule:evenodd; clip-rule:evenodd"
viewBox="0 0 7846.19 3063.52">
 <defs>
  <style type="text/css">
  </style>
  <linearGradient id="id0" gradientUnits="userSpaceOnUse" x1="11.54" y1="2588.1" x2="2386.01" y2="2588.1">
   <stop offset="0" style="stop-opacity:0; stop-color:#FFFFFF"/>
   <stop offset="1" style="stop-opacity:1; stop-color:#FFFFFF"/>
  </linearGradient>
 </defs>
 <g id="Ebene_x0020_1">
  <metadata id="CorelCorpID_0Corel-Layer"/>
  <polygon fill="#FFFFFF" points="282.17,126.97 282.17,1427.28 1000.92,1427.28 1000.92,1662.43 -0,1662.43 -0,126.97 "/>
  <path id="1" fill="#FFFFFF" d="M1886.21 1544.08l-4.71 0c-15.28,16.06 -33.31,32.52 -54.86,49.37 -21.56,16.85 -46.25,32.92 -73.69,47.82 -27.42,14.88 -57.99,26.65 -91.7,35.65 -33.7,9.02 -70.14,13.72 -109.33,13.72 -52.92,0 -102.29,-8.23 -148.14,-24.68 -46.25,-16.46 -85.44,-40.38 -118.36,-71.33 -32.91,-30.96 -58.78,-68.19 -77.58,-112.47 -18.82,-43.9 -28.22,-93.27 -28.22,-147.35 0,-59.96 10.97,-113.26 32.53,-161.07 21.94,-47.42 52.5,-87.39 91.3,-120.32 39.2,-32.92 85.83,-58 140.31,-75.24 54.08,-17.25 114.43,-25.87 180.27,-25.87 48.19,0 92.48,3.13 133.24,9.02 40.36,6.26 76.02,13.71 106.59,21.94l0 -44.67c0,-25.86 -4.31,-50.95 -13.32,-74.85 -8.62,-24.29 -22.74,-45.46 -42.33,-64.27 -19.59,-18.82 -45.06,-33.31 -76.42,-44.67 -31.34,-10.97 -69.75,-16.46 -114.83,-16.46 -54.86,0 -110.12,5.88 -165.38,18.03 -54.86,12.15 -114.83,30.57 -179.1,54.86l0 -212.41c56.05,-24.29 115.22,-43.11 177.92,-56.04 63.1,-13.33 128.55,-19.99 197.52,-20.77 81.12,0 152.45,9.8 213.18,29.78 60.75,19.99 112.09,47.43 152.85,82.31 41.14,34.88 72.11,76.03 92.48,123.45 19.99,47.42 30.18,99.14 30.18,154.79l0 419.34c0,73.68 0.79,136.77 2.36,189.67 1.57,52.52 3.13,99.55 4.7,141.09l-245.72 0 -11.75 -118.35zm-22.35 -355.85c-25.86,-6.26 -55.65,-11.75 -89.35,-16.85 -33.7,-5.1 -67.8,-7.44 -101.89,-7.44 -66.62,0 -119.14,13.32 -157.55,39.58 -38.8,26.65 -58,67.01 -58,121.49 0,25.08 4.31,47.03 13.33,65.83 8.62,18.82 20.37,34.49 35.27,46.64 14.9,12.15 32.53,21.55 52.13,27.82 19.98,5.88 41.14,9.01 63.09,9.01 27.44,0 53.69,-3.52 78,-10.97 24.29,-7.05 47.02,-16.45 67.4,-27.42 20.77,-10.97 39.19,-23.51 55.65,-37.23 16.46,-14.11 30.57,-27.44 41.93,-40.36l0 -170.09z"/>
  <path id="2" fill="#FFFFFF" d="M2932.97 1339.5c0,-23.9 -6.66,-43.5 -19.99,-58.78 -13.32,-15.28 -31.34,-27.82 -53.68,-38.41 -21.95,-10.19 -47.43,-19.21 -76.03,-27.03 -29,-7.45 -58.79,-15.28 -90.14,-22.74 -39.98,-10.97 -78.39,-23.11 -114.83,-37.62 -36.83,-14.11 -69.37,-32.52 -97.19,-55.65 -27.82,-22.73 -50.16,-51.73 -66.62,-86.6 -16.46,-34.89 -24.69,-77.21 -24.69,-127.76 0,-62.31 10.97,-116.01 33.31,-161.47 22.34,-45.46 52.52,-83.08 90.14,-112.86 38.02,-30.18 82.31,-52.13 132.47,-66.62 50.16,-14.51 103.07,-21.95 159.1,-21.95 68.2,0 132.08,5.49 191.65,16.46 59.56,10.97 113.64,25.47 161.85,42.72l0 220.64c-25.08,-8.23 -51.73,-15.68 -79.94,-22.74 -27.84,-7.05 -56.05,-13.32 -84.65,-18.42 -29,-5.1 -57.23,-9.41 -85.83,-12.54 -28.22,-3.53 -54.87,-5.1 -80.34,-5.1 -32.13,0 -59.18,3.14 -81.52,9.02 -21.95,6.26 -39.98,14.49 -53.69,24.69 -14.11,10.19 -23.9,21.94 -30.17,35.27 -5.89,13.33 -9.02,27.44 -9.02,41.93 0,25.08 6.66,45.85 19.98,61.92 13.33,16.06 32.15,29 55.66,38.8 23.51,10.19 48.6,18.42 74.45,24.69 25.87,6.65 51.34,12.93 75.64,19.19 38.4,9.02 76.42,19.99 114.83,33.31 38.01,12.94 72.5,30.97 103.07,54.48 30.57,23.11 55.65,53.29 74.85,90.53 19.59,37.23 29.39,84.26 29.39,141.86 0,62.7 -11.76,117.57 -35.67,164.21 -23.51,46.63 -56.42,85.43 -98.76,116.4 -42.72,30.96 -93.27,54.08 -152.84,68.97 -59.18,14.9 -124.24,22.34 -195.56,22.34 -70.54,0 -133.63,-5.49 -190.07,-16.46 -56.04,-11.36 -102.68,-25.08 -139.52,-41.93l0 -219.07c59.97,21.95 114.83,36.84 165.39,44.69 50.55,7.83 97.58,11.75 141.48,11.75 33.31,0 65.04,-2.36 94.05,-7.44 29,-5.1 54.08,-12.54 75.25,-23.51 20.77,-10.59 37.62,-23.92 49.76,-40.36 12.15,-16.46 18.43,-36.05 18.43,-58.79z"/>
  <path id="3" fill="#FFFFFF" d="M4116.48 1660.86c-30.57,9.01 -67.01,16.46 -109.33,21.95 -42.72,5.09 -82.31,7.83 -119.14,7.83 -93.27,0 -169.7,-15.28 -229.26,-45.45 -59.57,-30.18 -101.51,-73.69 -125.8,-130.11 -17.64,-40.77 -26.65,-95.62 -26.65,-165.38l0 -576.1 -207.71 0 0 -223.38 207.71 0 0 -310.37 272.75 0 0 310.37 321.36 0 0 223.38 -321.36 0 0 540.82c0,42.72 6.66,74.46 19.59,95.24 22.74,35.27 68.59,52.9 136.39,52.9 31.75,0 62.7,-2.36 93.66,-7.44 30.97,-5.1 60.36,-11.38 87.78,-18.82l0 224.56z"/>
  <path id="4" fill="#FFFFFF" d="M4984.94 1544.08l-4.71 0c-15.28,16.06 -33.31,32.52 -54.86,49.37 -21.56,16.85 -46.25,32.92 -73.69,47.82 -27.42,14.88 -57.99,26.65 -91.7,35.65 -33.7,9.02 -70.14,13.72 -109.33,13.72 -52.92,0 -102.29,-8.23 -148.14,-24.68 -46.25,-16.46 -85.44,-40.38 -118.36,-71.33 -32.91,-30.96 -58.78,-68.19 -77.58,-112.47 -18.82,-43.9 -28.22,-93.27 -28.22,-147.35 0,-59.96 10.97,-113.26 32.53,-161.07 21.94,-47.42 52.5,-87.39 91.3,-120.32 39.2,-32.92 85.83,-58 140.31,-75.24 54.08,-17.25 114.43,-25.87 180.27,-25.87 48.19,0 92.48,3.13 133.24,9.02 40.36,6.26 76.02,13.71 106.59,21.94l0 -44.67c0,-25.86 -4.31,-50.95 -13.32,-74.85 -8.62,-24.29 -22.74,-45.46 -42.33,-64.27 -19.59,-18.82 -45.06,-33.31 -76.42,-44.67 -31.34,-10.97 -69.75,-16.46 -114.83,-16.46 -54.86,0 -110.12,5.88 -165.38,18.03 -54.86,12.15 -114.83,30.57 -179.1,54.86l0 -212.41c56.05,-24.29 115.22,-43.11 177.92,-56.04 63.1,-13.33 128.55,-19.99 197.52,-20.77 81.12,0 152.45,9.8 213.18,29.78 60.75,19.99 112.09,47.43 152.85,82.31 41.14,34.88 72.11,76.03 92.48,123.45 19.99,47.42 30.18,99.14 30.18,154.79l0 419.34c0,73.68 0.79,136.77 2.36,189.67 1.57,52.52 3.13,99.55 4.7,141.09l-245.72 0 -11.75 -118.35zm-22.35 -355.85c-25.86,-6.26 -55.65,-11.75 -89.35,-16.85 -33.7,-5.1 -67.8,-7.44 -101.89,-7.44 -66.62,0 -119.14,13.32 -157.55,39.58 -38.8,26.65 -58,67.01 -58,121.49 0,25.08 4.31,47.03 13.33,65.83 8.62,18.82 20.37,34.49 35.27,46.64 14.9,12.15 32.53,21.55 52.13,27.82 19.98,5.88 41.14,9.01 63.09,9.01 27.44,0 53.69,-3.52 78,-10.97 24.29,-7.05 47.02,-16.45 67.4,-27.42 20.77,-10.97 39.19,-23.51 55.65,-37.23 16.46,-14.11 30.57,-27.44 41.93,-40.36l0 -170.09z"/>
  <path id="5" fill="#FFFFFF" d="M5788.72 704.63l4.7 0c16.07,-23.13 36.44,-45.46 60.75,-67.8 24.69,-22.34 52.52,-41.54 83.86,-58.39 31.36,-16.86 66.23,-30.57 103.85,-40.77 38.01,-10.57 78.39,-15.67 121.09,-15.67 40.77,0 79.95,4.7 117.96,13.72 37.63,9.41 72.51,23.51 103.85,43.11 31.36,19.59 59.18,44.67 83.08,75.63 24.3,31.36 43.11,68.2 56.83,110.91 7.84,23.92 12.93,49.77 15.67,77.6 2.74,27.82 3.92,60.36 3.92,97.19l0 722.27 -272.75 0 0 -680.33c0,-29.79 -1.18,-55.26 -3.53,-76.82 -2.36,-21.55 -6.26,-40.36 -12.54,-56.42 -13.72,-35.28 -34.49,-60.36 -62.31,-75.64 -28.21,-15.28 -61.92,-23.13 -101.5,-23.13 -52.9,0 -103.47,12.54 -152.06,37.62 -48.6,24.69 -91.3,61.15 -128.94,108.57l0 766.16 -272.75 0 0 -1112.21 225.74 0 25.08 154.42z"/>
  <path id="6" fill="#FFFFFF" d="M7322.99 1474.31c26.66,0 52.13,-3.52 76.43,-10.19 23.9,-7.05 46.63,-16.46 68.19,-27.82 21.55,-11.75 40.36,-24.3 56.83,-38.01 16.45,-14.12 30.57,-27.44 41.93,-40.38l0 -528.27c-32.13,-26.26 -68.19,-47.82 -107.78,-65.44 -39.98,-17.25 -82.29,-25.87 -126.58,-25.87 -28.21,0 -58,5.88 -88.96,17.24 -30.97,11.36 -59.18,30.97 -85.05,58.79 -25.47,27.42 -47.02,65.83 -64.27,114.82 -17.24,49 -25.86,111.7 -25.86,187.33 0,112.09 21.55,199.48 65.04,262.18 43.11,63.1 106.6,94.85 190.07,95.62zm-537.29 -346.04c0,-97.19 13.33,-184.2 40.36,-260.23 26.65,-76.02 63.49,-139.9 109.73,-191.64 46.25,-51.73 99.55,-90.14 159.11,-115.99 59.96,-25.48 121.88,-38.41 186.15,-38.41 30.18,0 58.39,2.74 85.44,7.84 26.65,5.49 52.12,12.93 75.63,21.94 23.92,9.41 45.85,19.61 66.62,30.97 20.77,11.75 39.98,23.51 57.62,35.65l2.36 0c-0.79,-15.28 -1.58,-36.83 -1.97,-64.66 -0.39,-28.22 -0.39,-58.39 -0.39,-91.31l0 -462.44 272.75 0 0 1331.67c0,73.68 0.79,136.77 2.36,189.67 1.57,52.52 3.13,99.93 4.71,141.09l-246.51 0 -11.36 -118.75 -4.71 0c-16.06,19.21 -35.27,38.02 -58,56.44 -22.73,18.03 -47.42,34.1 -74.84,47.42 -27.05,13.33 -57.23,23.9 -89.75,31.75 -32.53,7.45 -67.8,11.36 -106.21,11.36 -60.75,0 -118.74,-10.57 -174.39,-32.13 -55.26,-21.55 -105.03,-54.47 -149.32,-99.14 -43.9,-45.07 -79.16,-103.47 -105.81,-175.96 -26.26,-72.11 -39.59,-157.15 -39.59,-255.13z"/>
  <path fill="#FFFFFF" d="M2762.58 2862.87l0 -577.18 152.78 0c13.54,0 27.25,0.44 41.24,1.32 13.99,0.89 27.55,2.07 40.8,3.83 13.27,1.77 25.93,3.83 38.31,6.34 12.38,2.36 23.87,5.3 34.18,8.83 30.79,9.72 57.89,22.99 81.61,39.64 23.58,16.64 43.32,36.38 59.23,59.07 16.05,22.69 28.14,48.17 36.38,76.16 8.11,28 12.23,58.49 12.23,91.19 0,31.09 -3.38,60.26 -10.31,87.37 -6.93,27.25 -17.39,52 -31.52,74.39 -14.14,22.54 -31.82,42.28 -53.33,59.37 -21.51,17.09 -46.85,31.08 -76.17,42.13 -24.45,9.13 -52.29,16.06 -83.23,20.62 -31.08,4.57 -66.15,6.93 -104.88,6.93l-137.3 0zm149.68 -88.38c61.72,0 110.04,-8.56 144.81,-25.49 30.79,-15.17 54.06,-37.42 69.83,-66.43 15.76,-29.03 23.71,-66.15 23.71,-111.37 0,-23.58 -2.66,-44.79 -7.8,-63.79 -5.16,-19 -12.68,-35.94 -22.4,-50.67 -9.72,-14.88 -21.65,-27.55 -35.5,-38.16 -13.99,-10.75 -29.75,-19.44 -47.28,-26.37 -16.36,-6.33 -34.63,-10.9 -54.66,-13.84 -20.18,-2.79 -42.72,-4.27 -67.76,-4.27l-46.55 0 0 400.41 43.61 0z"/>
  <path id="1" fill="#FFFFFF" d="M3574.44 2791.28c19.88,0 40.65,-1.92 62.16,-5.89 21.66,-3.98 43.46,-9.72 65.56,-17.09l0 81.17c-13.12,5.75 -33.44,11.2 -60.85,16.35 -27.25,5.16 -55.69,7.67 -85,7.67 -29.6,0 -57.74,-3.83 -84.41,-11.5 -26.51,-7.5 -49.79,-19.88 -69.83,-36.82 -19.88,-16.95 -35.64,-39.05 -47.43,-66 -11.64,-27.11 -17.53,-59.82 -17.53,-98.42 0,-38 5.45,-71.14 16.5,-99.73 10.9,-28.43 25.63,-52 44.05,-70.71 18.42,-18.7 39.47,-32.7 63.34,-42.13 23.71,-9.28 48.32,-13.99 73.66,-13.99 26.51,0 50.96,3.97 73.36,12.08 22.24,7.96 41.69,20.62 57.89,37.86 16.35,17.24 29.03,39.34 38.01,66.45 9.13,27.25 13.71,59.22 13.71,96.34 -0.3,14.29 -0.74,26.52 -1.33,36.53l-274.31 0c1.48,19.46 5.75,35.95 12.97,49.8 7.22,13.71 16.5,24.89 28.29,33.44 11.64,8.54 25.19,14.88 40.65,18.72 15.62,3.97 32.41,5.89 50.54,5.89zm-40.95 -277.54c-12.97,0 -24.45,2.36 -34.63,7.07 -10.01,4.86 -18.7,11.2 -26.07,19.44 -7.37,8.26 -13.12,17.83 -17.39,28.73 -4.42,10.91 -7.22,22.55 -8.69,34.91l164.41 0c0,-12.36 -1.63,-24 -5.01,-34.91 -3.24,-10.9 -8.11,-20.47 -14.58,-28.73 -6.49,-8.24 -14.58,-14.58 -24.17,-19.44 -9.72,-4.71 -20.92,-7.07 -33.87,-7.07z"/>
  <path id="2" fill="#FFFFFF" d="M4181.08 2444.79l-161.76 418.09 -101.2 0 -162.2 -418.09 107.83 0 58.19 159.69c16.65,44.79 31.82,89.72 45.68,134.51l1.77 0c12.08,-38.75 26.96,-82.8 44.79,-132l58.18 -162.2 108.73 0z"/>
  <path id="3" fill="#FFFFFF" d="M4457.44 2791.28c19.88,0 40.65,-1.92 62.16,-5.89 21.66,-3.98 43.46,-9.72 65.56,-17.09l0 81.17c-13.12,5.75 -33.44,11.2 -60.85,16.35 -27.25,5.16 -55.69,7.67 -85,7.67 -29.6,0 -57.74,-3.83 -84.41,-11.5 -26.51,-7.5 -49.79,-19.88 -69.83,-36.82 -19.88,-16.95 -35.64,-39.05 -47.43,-66 -11.64,-27.11 -17.53,-59.82 -17.53,-98.42 0,-38 5.45,-71.14 16.5,-99.73 10.9,-28.43 25.63,-52 44.05,-70.71 18.42,-18.7 39.47,-32.7 63.34,-42.13 23.71,-9.28 48.32,-13.99 73.66,-13.99 26.51,0 50.96,3.97 73.36,12.08 22.24,7.96 41.69,20.62 57.89,37.86 16.35,17.24 29.03,39.34 38.01,66.45 9.13,27.25 13.71,59.22 13.71,96.34 -0.3,14.29 -0.74,26.52 -1.33,36.53l-274.31 0c1.48,19.46 5.75,35.95 12.97,49.8 7.22,13.71 16.5,24.89 28.29,33.44 11.64,8.54 25.19,14.88 40.65,18.72 15.62,3.97 32.41,5.89 50.54,5.89zm-40.95 -277.54c-12.97,0 -24.45,2.36 -34.63,7.07 -10.01,4.86 -18.7,11.2 -26.07,19.44 -7.37,8.26 -13.12,17.83 -17.39,28.73 -4.42,10.91 -7.22,22.55 -8.69,34.91l164.41 0c0,-12.36 -1.63,-24 -5.01,-34.91 -3.24,-10.9 -8.11,-20.47 -14.58,-28.73 -6.49,-8.24 -14.58,-14.58 -24.17,-19.44 -9.72,-4.71 -20.92,-7.07 -33.87,-7.07z"/>
  <polygon id="4" fill="#FFFFFF" points="4698.89,2862.87 4698.89,2237.97 4801.41,2237.97 4801.41,2862.87 "/>
  <path id="5" fill="#FFFFFF" d="M5596.37 2516.38c-17.83,0.3 -34.76,4.72 -50.96,13.12 -16.06,8.39 -30.35,19.88 -42.73,34.18l0 186.35c4.27,5.01 9.43,9.87 15.62,14.73 6.04,5.01 12.67,9.43 20.18,13.55 7.52,3.98 15.76,7.37 24.89,9.87 8.98,2.66 18.42,3.98 28.29,3.98 15.76,0 29.9,-3.4 42.28,-10.17 12.38,-6.78 22.69,-16.35 30.93,-28.73 8.11,-12.38 14.44,-27.11 18.72,-44.2 4.27,-17.09 6.48,-36.23 6.48,-57.15 0,-22.4 -2.2,-42.13 -6.63,-59.08 -4.57,-17.09 -10.9,-31.08 -19,-42.42 -8.26,-11.2 -18.12,-19.59 -29.62,-25.34 -11.49,-5.74 -24.3,-8.69 -38.45,-8.69zm13.55 357.1c-22.54,0 -42.87,-4.13 -61.29,-12.23 -18.27,-8.26 -33.44,-18.42 -45.51,-30.49l-1.77 0c0.29,5.74 0.59,13.84 0.88,24.45 0.3,10.45 0.44,21.95 0.44,34.31l0 173.99 -102.53 0 0 -618.73 89.86 0 4.42 46.85 1.62 0c12.82,-16.8 29.03,-30.49 48.91,-41.25 19.89,-10.75 43.02,-16.2 69.24,-16.2 22.69,0 45.07,4.27 67.17,12.67 22.1,8.54 41.54,21.51 58.63,39.04 16.95,17.68 30.51,39.78 40.82,66.58 10.16,26.67 15.32,58.49 15.32,95.32 0,38.89 -5.45,72.47 -16.36,100.76 -11.05,28.29 -25.48,51.7 -43.31,70.27 -17.83,18.57 -37.71,32.41 -59.37,41.25 -21.8,8.98 -44.2,13.4 -67.17,13.4z"/>
  <path id="6" fill="#FFFFFF" d="M6425.32 2608.02c0,-8.99 -0.3,-17.24 -0.89,-25.04 -0.59,-7.82 -1.62,-14.59 -2.94,-20.33 -3.24,-12.67 -9.43,-22.84 -18.57,-30.64 -9.28,-7.8 -22.25,-11.79 -38.89,-12.08 -8.99,0 -18.13,1.32 -27.7,3.82 -9.43,2.66 -18.85,6.34 -28.29,11.05 -9.28,4.86 -18.27,10.61 -26.66,17.39 -8.54,6.78 -16.21,14.29 -23.13,22.69l0 288 -102.54 0 0 -254.85c0,-8.99 -0.29,-17.24 -0.88,-25.04 -0.59,-7.82 -1.63,-14.59 -2.94,-20.33 -3.24,-12.67 -9.28,-22.84 -18.42,-30.64 -8.99,-7.8 -22.1,-11.79 -39.05,-12.08 -8.98,0 -18.12,1.32 -27.69,3.82 -9.43,2.66 -18.85,6.34 -28.29,11.05 -9.28,4.86 -18.27,10.61 -26.66,17.39 -8.54,6.78 -16.21,14.29 -23.14,22.69l0 288 -102.53 0 0 -418.09 84.85 0 9.43 58.05 1.77 0c6.04,-8.69 13.71,-17.09 22.84,-25.49 9.27,-8.39 19.73,-15.61 31.37,-21.95 11.64,-6.33 24.45,-11.49 38.45,-15.32 14.01,-3.97 28.73,-5.89 44.35,-5.89 27.55,0 52.44,6.19 74.54,18.42 21.95,12.23 38.75,31.23 50.24,57.15l1.77 0c8.11,-11.19 17.09,-21.51 26.96,-30.64 10.02,-9.27 21.07,-17.09 33.15,-23.71 12.08,-6.63 25.04,-11.79 39.04,-15.61 13.99,-3.68 28.88,-5.6 44.79,-5.6 29.9,0.29 55.1,6.48 75.28,18.7 20.32,12.23 35.94,29.03 46.99,50.39 2.79,5.45 5.3,11.49 7.22,17.83 2.07,6.48 3.68,13.84 5.01,21.8 1.33,8.11 2.2,17.09 2.79,26.81 0.59,9.87 0.89,21.07 0.89,33.74l0 259.42 -102.53 0 0 -254.85z"/>
  <path id="7" fill="#FFFFFF" d="M6855.33 2791.28c19.88,0 40.65,-1.92 62.16,-5.89 21.66,-3.98 43.46,-9.72 65.56,-17.09l0 81.17c-13.12,5.75 -33.44,11.2 -60.85,16.35 -27.25,5.16 -55.69,7.67 -85,7.67 -29.6,0 -57.74,-3.83 -84.41,-11.5 -26.51,-7.5 -49.79,-19.88 -69.83,-36.82 -19.88,-16.95 -35.64,-39.05 -47.43,-66 -11.64,-27.11 -17.53,-59.82 -17.53,-98.42 0,-38 5.45,-71.14 16.5,-99.73 10.9,-28.43 25.63,-52 44.05,-70.71 18.42,-18.7 39.47,-32.7 63.34,-42.13 23.71,-9.28 48.32,-13.99 73.66,-13.99 26.51,0 50.96,3.97 73.36,12.08 22.24,7.96 41.69,20.62 57.89,37.86 16.35,17.24 29.03,39.34 38.01,66.45 9.13,27.25 13.71,59.22 13.71,96.34 -0.3,14.29 -0.74,26.52 -1.33,36.53l-274.31 0c1.48,19.46 5.75,35.95 12.97,49.8 7.22,13.71 16.5,24.89 28.29,33.44 11.64,8.54 25.19,14.88 40.65,18.72 15.62,3.97 32.41,5.89 50.54,5.89zm-40.95 -277.54c-12.97,0 -24.45,2.36 -34.63,7.07 -10.01,4.86 -18.7,11.2 -26.07,19.44 -7.37,8.26 -13.12,17.83 -17.39,28.73 -4.42,10.91 -7.22,22.55 -8.69,34.91l164.41 0c0,-12.36 -1.63,-24 -5.01,-34.91 -3.24,-10.9 -8.11,-20.47 -14.58,-28.73 -6.49,-8.24 -14.58,-14.58 -24.17,-19.44 -9.72,-4.71 -20.92,-7.07 -33.87,-7.07z"/>
  <path id="8" fill="#FFFFFF" d="M7186.64 2502.84l1.77 0c6.04,-8.69 13.71,-17.09 22.84,-25.49 9.27,-8.39 19.73,-15.61 31.52,-21.95 11.79,-6.33 24.89,-11.49 39.04,-15.32 14.29,-3.97 29.47,-5.89 45.53,-5.89 15.32,0 30.05,1.77 44.34,5.15 14.14,3.55 27.26,8.84 39.05,16.21 11.78,7.37 22.24,16.79 31.22,28.43 9.15,11.79 16.21,25.64 21.37,41.69 2.94,8.99 4.86,18.72 5.89,29.18 1.03,10.45 1.48,22.68 1.48,36.53l0 271.5 -102.54 0 0 -255.74c0,-11.2 -0.44,-20.77 -1.33,-28.88 -0.88,-8.09 -2.36,-15.17 -4.71,-21.21 -5.16,-13.25 -12.97,-22.69 -23.43,-28.44 -10.6,-5.74 -23.28,-8.68 -38.15,-8.68 -19.89,0 -38.9,4.71 -57.16,14.14 -18.27,9.27 -34.33,22.98 -48.47,40.8l0 288 -102.53 0 0 -418.09 84.85 0 9.43 58.05z"/>
  <path id="9" fill="#FFFFFF" d="M7838.52 2862.28c-11.5,3.38 -25.19,6.19 -41.1,8.24 -16.06,1.92 -30.94,2.96 -44.79,2.96 -35.07,0 -63.79,-5.75 -86.18,-17.09 -22.39,-11.35 -38.16,-27.7 -47.29,-48.91 -6.63,-15.32 -10.01,-35.95 -10.01,-62.18l0 -216.55 -78.09 0 0 -83.97 78.09 0 0 -116.67 102.53 0 0 116.67 120.8 0 0 83.97 -120.8 0 0 203.3c0,16.06 2.51,27.99 7.37,35.79 8.54,13.27 25.78,19.89 51.26,19.89 11.94,0 23.58,-0.89 35.22,-2.81 11.64,-1.9 22.68,-4.27 33,-7.07l0 84.41z"/>
  <polygon fill="url('#id0')" points="36.59,2538.49 2386.01,2538.49 2360.95,2637.71 11.54,2637.71 "/>
  <g id="_2634402382544">
   <circle fill="#FFD200" cx="5098.01" cy="2657.57" r="211.3"/>
   <path fill="#FFD200" d="M5098.01 2657.57l-211.31 0c0,-191.05 94.61,-345.93 211.31,-345.93 116.7,0 211.31,154.88 211.31,345.93l-211.31 0z"/>
  </g>
  <g id="_2634402383728">
   <g>
    <path fill="#F08886" d="M4911.51 2558.17l16.57 16.59 57.67 -57.6 57.78 57.54 57.2 -57.15 57.94 57.23 57.54 -57.63 57.83 57.68 12.67 -12.44c6.14,12.15 11.14,24.97 14.86,38.33l-407.1 0c4.16,-14.91 9.91,-29.15 17.05,-42.54z"/>
    <path fill="#F08886" d="M5308.35 2637.36l-31.58 31.54 -57.78 -57.54 -57.2 57.15 -57.93 -57.23 -57.55 57.63 -57.82 -57.68 -58.09 57.05 -41.4 -41.89c2.1,-14.19 5.61,-27.92 10.39,-41.05l397.27 0c5.99,16.49 9.98,33.91 11.7,52.02z"/>
   </g>
   <g>
    <path fill="#F08886" d="M4898.19 2544.86l29.89 29.9 57.67 -57.6 57.78 57.54 57.2 -57.15 57.94 57.23 57.54 -57.63 57.83 57.68 24.92 -24.48c3.24,16.3 5.76,33.12 7.5,50.37l-416.9 0c1.94,-19.21 4.85,-37.87 8.63,-55.86z"/>
    <path fill="#F08886" d="M5308.92 2636.79l-20.81 20.78 -22.73 0 -46.4 -46.2 -46.24 46.2 -22.05 0 -46.84 -46.28 -46.23 46.28 -22.7 0 -46.44 -46.33 -47.18 46.33 -21.5 0 -32.17 -32.55c0.76,-13.47 2,-26.7 3.7,-39.68l413.35 0c2.17,16.74 3.6,33.91 4.23,51.44z"/>
   </g>
  </g>
  <circle fill="#EB6320" cx="5010.57" cy="2465.15" r="18.61"/>
  <circle fill="#E51B4E" cx="5176.74" cy="2714.51" r="18.61"/>
  <circle fill="#E51B4E" cx="5013.12" cy="2727.74" r="18.61"/>
  <circle fill="#E51B4E" cx="5131.11" cy="2416" r="18.61"/>
  <circle fill="#EB6320" cx="5111.17" cy="2804.14" r="18.61"/>
 </g>
</svg>
