<?xml version="1.0" encoding="UTF-8"?>
<!DOCTYPE svg PUBLIC "-//W3C//DTD SVG 1.1//EN" "http://www.w3.org/Graphics/SVG/1.1/DTD/svg11.dtd">
<!-- Creator: CorelDRAW 2019 (64-Bit Keine kommerzielle Nutzung) -->
<svg xmlns="http://www.w3.org/2000/svg" xml:space="preserve" width="130mm" height="81.25mm" version="1.1" style="shape-rendering:geometricPrecision; text-rendering:geometricPrecision; image-rendering:optimizeQuality; fill-rule:evenodd; clip-rule:evenodd"
viewBox="0 0 12691.48 7932.17">
 <defs>
  <style type="text/css">
  </style>
 </defs>
 <g id="Ebene_x0020_1">
  <metadata id="CorelCorpID_0Corel-Layer"/>
  <rect fill="#061121" x="-0" y="0" width="12691.48" height="7932.17"/>
  <path fill="#DC6E00" d="M2962.81 2502.28l28.71 -107.14 28.7 -107.14 28.71 -107.15 28.7 -107.13 -107.14 -28.71 -28.7 107.14 -107.15 -28.71 28.71 -107.14 107.14 28.71 28.71 -107.14 107.14 28.71 28.7 -107.14 107.14 28.7 -28.7 107.14 -28.71 107.14 -28.7 107.14 -28.71 107.15 -28.7 107.14 -28.71 107.14 -107.14 -28.71zm-428.54 -114.83l28.7 -107.14 28.71 -107.14 28.7 -107.15 28.71 -107.13 28.7 -107.14 28.71 -107.14 107.14 28.7 -28.71 107.14 107.14 28.71 -28.7 107.13 -107.14 -28.7 -28.71 107.14 -28.7 107.15 -28.71 107.14 -28.7 107.14 -107.14 -28.71z"/>
  <path id="1" fill="#DC6E00" d="M3420.05 2509.97l107.15 28.71 -28.71 107.14 -107.14 -28.71 -107.14 -28.71 28.7 -107.13 107.14 28.7zm-107.14 -28.7l-107.14 -28.71 28.71 -107.14 28.71 -107.15 28.7 -107.14 107.14 28.71 -28.71 107.14 107.14 28.7 107.15 28.71 28.71 -107.14 107.13 28.71 -28.7 107.13 -28.71 107.15 -107.14 -28.7 -107.14 -28.71 -107.14 -28.7 -28.71 107.14zm300.41 -264l-107.15 -28.71 -107.14 -28.7 28.7 -107.14 107.14 28.7 107.15 28.71 -28.7 107.14z"/>
  <path id="2" fill="#DC6E00" d="M3819.89 2731.94l28.71 -107.14 107.13 28.7 -28.7 107.14 -107.14 -28.7zm28.71 -107.14l-107.14 -28.7 28.7 -107.14 28.71 -107.15 28.7 -107.14 28.71 -107.14 28.7 -107.14 107.14 28.71 -28.7 107.14 107.13 28.7 -28.7 107.14 -107.14 -28.71 -28.7 107.14 -28.71 107.15 -28.7 107.14z"/>
  <path id="3" fill="#DC6E00" d="M4277.15 2739.63l107.15 28.71 -28.71 107.14 -107.15 -28.71 -107.13 -28.71 28.7 -107.13 107.14 28.7zm-107.14 -28.7l-107.14 -28.71 28.71 -107.14 28.7 -107.15 28.71 -107.13 107.14 28.7 -28.71 107.14 107.14 28.7 107.15 28.71 28.7 -107.14 107.14 28.71 -28.7 107.13 -28.71 107.15 -107.14 -28.7 -107.15 -28.71 -107.14 -28.7 -28.7 107.14zm300.4 -264l-107.15 -28.71 -107.13 -28.7 28.7 -107.14 107.14 28.71 107.15 28.7 -28.71 107.14z"/>
  <path id="4" fill="#DC6E00" d="M4812.82 2883.17l107.15 28.7 -28.7 107.14 -107.15 -28.71 -107.14 -28.7 28.7 -107.14 107.14 28.71zm107.15 28.7l28.7 -107.14 28.71 -107.14 28.71 -107.14 107.13 28.7 -28.7 107.14 -28.71 107.15 -28.7 107.14 -107.14 -28.71zm-214.28 -57.41l-107.14 -28.7 28.71 -107.14 28.71 -107.15 28.7 -107.14 107.14 28.7 -28.71 107.14 -28.7 107.15 -28.71 107.14zm300.41 -263.99l-107.15 -28.71 -107.14 -28.71 28.7 -107.13 107.14 28.7 107.15 28.71 -28.7 107.14z"/>
  <path id="5" fill="#DC6E00" d="M5105.53 3076.42l28.71 -107.14 28.7 -107.14 28.71 -107.15 28.7 -107.13 28.71 -107.14 107.14 28.7 -28.71 107.14 107.14 28.7 -28.7 107.14 -107.14 -28.7 -28.71 107.15 -28.7 107.14 -28.71 107.13 -107.14 -28.7zm329.1 -371.14l28.7 -107.13 107.15 28.7 -28.7 107.14 -107.15 -28.71z"/>
  <g id="_1947988816256" style="shape-rendering:crispEdges">
   <rect fill="#FF681C" transform="matrix(2.94463 -1.70008 1.70008 2.94463 3661.9 6277.27)" width="25.83" height="25.83"/>
   <rect fill="#FF7115" transform="matrix(2.94463 -1.70008 1.70008 2.94463 3737.96 6233.35)" width="25.83" height="25.83"/>
   <rect fill="#FF7115" transform="matrix(2.94463 -1.70008 1.70008 2.94463 3814.03 6189.44)" width="25.83" height="25.83"/>
   <rect fill="#FF8536" transform="matrix(2.94463 -1.70008 1.70008 2.94463 3890.09 6145.52)" width="25.83" height="25.83"/>
   <rect fill="#FF8536" transform="matrix(2.94463 -1.70008 1.70008 2.94463 3966.13 6101.62)" width="25.83" height="25.83"/>
   <rect fill="#FF8536" transform="matrix(2.94463 -1.70008 1.70008 2.94463 4042.2 6057.7)" width="25.83" height="25.83"/>
   <rect fill="#FF8536" transform="matrix(2.94463 -1.70008 1.70008 2.94463 4118.26 6013.79)" width="25.83" height="25.83"/>
   <rect fill="#000000" transform="matrix(2.94463 -1.70008 1.70008 2.94463 4194.33 5969.87)" width="25.83" height="25.83"/>
   <rect fill="#000000" transform="matrix(2.94463 -1.70008 1.70008 2.94463 4270.39 5925.95)" width="25.83" height="25.83"/>
   <rect fill="#000000" transform="matrix(2.94463 -1.70008 1.70008 2.94463 4346.46 5882.04)" width="25.83" height="25.83"/>
   <rect fill="#000000" transform="matrix(2.94463 -1.70008 1.70008 2.94463 4422.5 5838.14)" width="25.83" height="25.83"/>
   <rect fill="#000000" transform="matrix(2.94463 -1.70008 1.70008 2.94463 4498.56 5794.22)" width="25.83" height="25.83"/>
   <rect fill="#000000" transform="matrix(2.94463 -1.70008 1.70008 2.94463 4574.63 5750.3)" width="25.83" height="25.83"/>
   <rect fill="#FF681C" transform="matrix(2.94463 -1.70008 1.70008 2.94463 3553.68 6441.17)" width="25.83" height="25.83"/>
   <rect fill="#FF681C" transform="matrix(2.94463 -1.70008 1.70008 2.94463 3629.75 6397.25)" width="25.83" height="25.83"/>
   <rect fill="#FF7115" transform="matrix(2.94463 -1.70008 1.70008 2.94463 3705.81 6353.33)" width="25.83" height="25.83"/>
   <rect fill="#FF8536" transform="matrix(2.94463 -1.70008 1.70008 2.94463 3781.88 6309.42)" width="25.83" height="25.83"/>
   <rect fill="#FF8536" transform="matrix(2.94463 -1.70008 1.70008 2.94463 3857.94 6265.5)" width="25.83" height="25.83"/>
   <rect fill="#FF9754" transform="matrix(2.94463 -1.70008 1.70008 2.94463 3934.01 6221.59)" width="25.83" height="25.83"/>
   <rect fill="#FF9754" transform="matrix(2.94463 -1.70008 1.70008 2.94463 4010.05 6177.69)" width="25.83" height="25.83"/>
   <rect fill="#FF9754" transform="matrix(2.94463 -1.70008 1.70008 2.94463 4086.11 6133.77)" width="25.83" height="25.83"/>
   <rect fill="#000000" transform="matrix(2.94463 -1.70008 1.70008 2.94463 4162.18 6089.85)" width="25.83" height="25.83"/>
   <rect fill="#A32100" transform="matrix(2.94463 -1.70008 1.70008 2.94463 4238.24 6045.94)" width="25.83" height="25.83"/>
   <rect fill="#A12000" transform="matrix(2.94463 -1.70008 1.70008 2.94463 4314.31 6002.02)" width="25.83" height="25.83"/>
   <rect fill="#A12000" transform="matrix(2.94463 -1.70008 1.70008 2.94463 4390.38 5958.1)" width="25.83" height="25.83"/>
   <rect fill="#A12000" transform="matrix(2.94463 -1.70008 1.70008 2.94463 4466.41 5914.2)" width="25.83" height="25.83"/>
   <rect fill="#A12000" transform="matrix(2.94463 -1.70008 1.70008 2.94463 4542.48 5870.29)" width="25.83" height="25.83"/>
   <rect fill="#A12000" transform="matrix(2.94463 -1.70008 1.70008 2.94463 4618.54 5826.37)" width="25.83" height="25.83"/>
   <rect fill="#000000" transform="matrix(2.94463 -1.70008 1.70008 2.94463 4694.61 5782.45)" width="25.83" height="25.83"/>
   <rect fill="#000000" transform="matrix(2.94463 -1.70008 1.70008 2.94463 4770.68 5738.54)" width="25.83" height="25.83"/>
   <rect fill="#000000" transform="matrix(2.94463 -1.70008 1.70008 2.94463 4846.74 5694.62)" width="25.83" height="25.83"/>
   <rect fill="#000000" transform="matrix(2.94463 -1.70008 1.70008 2.94463 4922.78 5650.72)" width="25.83" height="25.83"/>
   <rect fill="#000000" transform="matrix(2.94463 -1.70008 1.70008 2.94463 4998.84 5606.8)" width="25.83" height="25.83"/>
   <rect fill="#000000" transform="matrix(2.94463 -1.70008 1.70008 2.94463 5074.91 5562.89)" width="25.83" height="25.83"/>
   <rect fill="#000000" transform="matrix(2.94463 -1.70008 1.70008 2.94463 5150.97 5518.97)" width="25.83" height="25.83"/>
   <rect fill="#000000" transform="matrix(2.94463 -1.70008 1.70008 2.94463 5227.04 5475.05)" width="25.83" height="25.83"/>
   <rect fill="#000000" transform="matrix(2.94463 -1.70008 1.70008 2.94463 5303.11 5431.14)" width="25.83" height="25.83"/>
   <rect fill="#FF681C" transform="matrix(2.94463 -1.70008 1.70008 2.94463 3521.56 6561.13)" width="25.83" height="25.83"/>
   <rect fill="#FF7115" transform="matrix(2.94463 -1.70008 1.70008 2.94463 3597.6 6517.23)" width="25.83" height="25.83"/>
   <rect fill="#FF7115" transform="matrix(2.94463 -1.70008 1.70008 2.94463 3673.66 6473.32)" width="25.83" height="25.83"/>
   <rect fill="#FF8536" transform="matrix(2.94463 -1.70008 1.70008 2.94463 3749.73 6429.4)" width="25.83" height="25.83"/>
   <rect fill="#FF9754" transform="matrix(2.94463 -1.70008 1.70008 2.94463 3825.8 6385.48)" width="25.83" height="25.83"/>
   <rect fill="#FF9754" transform="matrix(2.94463 -1.70008 1.70008 2.94463 3901.86 6341.57)" width="25.83" height="25.83"/>
   <rect fill="#FF9754" transform="matrix(2.94463 -1.70008 1.70008 2.94463 3977.93 6297.65)" width="25.83" height="25.83"/>
   <rect fill="#FFCAB4" transform="matrix(2.94463 -1.70008 1.70008 2.94463 4053.96 6253.75)" width="25.83" height="25.83"/>
   <rect fill="#FFCAB4" transform="matrix(2.94463 -1.70008 1.70008 2.94463 4130.03 6209.83)" width="25.83" height="25.83"/>
   <rect fill="#FFCAB4" transform="matrix(2.94463 -1.70008 1.70008 2.94463 4206.09 6165.92)" width="25.83" height="25.83"/>
   <rect fill="#000000" transform="matrix(2.94463 -1.70008 1.70008 2.94463 4282.16 6122)" width="25.83" height="25.83"/>
   <rect fill="#A12000" transform="matrix(2.94463 -1.70008 1.70008 2.94463 4358.23 6078.08)" width="25.83" height="25.83"/>
   <rect fill="#A32100" transform="matrix(2.94463 -1.70008 1.70008 2.94463 4434.29 6034.17)" width="25.83" height="25.83"/>
   <rect fill="#A32100" transform="matrix(2.94463 -1.70008 1.70008 2.94463 4510.33 5990.27)" width="25.83" height="25.83"/>
   <rect fill="#A32100" transform="matrix(2.94463 -1.70008 1.70008 2.94463 4586.39 5946.35)" width="25.83" height="25.83"/>
   <rect fill="#A32100" transform="matrix(2.94463 -1.70008 1.70008 2.94463 4662.46 5902.44)" width="25.83" height="25.83"/>
   <rect fill="#A12000" transform="matrix(2.94463 -1.70008 1.70008 2.94463 4738.53 5858.52)" width="25.83" height="25.83"/>
   <rect fill="#A12000" transform="matrix(2.94463 -1.70008 1.70008 2.94463 4814.59 5814.6)" width="25.83" height="25.83"/>
   <rect fill="#BD2500" transform="matrix(2.94463 -1.70008 1.70008 2.94463 4890.66 5770.69)" width="25.83" height="25.83"/>
   <rect fill="#C12500" transform="matrix(2.94463 -1.70008 1.70008 2.94463 4966.69 5726.79)" width="25.83" height="25.83"/>
   <rect fill="#8B1C00" transform="matrix(2.94463 -1.70008 1.70008 2.94463 5042.76 5682.87)" width="25.83" height="25.83"/>
   <rect fill="#8B1C00" transform="matrix(2.94463 -1.70008 1.70008 2.94463 5118.83 5638.95)" width="25.83" height="25.83"/>
   <rect fill="#8B1C00" transform="matrix(2.94463 -1.70008 1.70008 2.94463 5194.89 5595.04)" width="25.83" height="25.83"/>
   <rect fill="#8F1D00" transform="matrix(2.94463 -1.70008 1.70008 2.94463 5270.96 5551.12)" width="25.83" height="25.83"/>
   <rect fill="#8B1C00" transform="matrix(2.94463 -1.70008 1.70008 2.94463 5347.02 5507.2)" width="25.83" height="25.83"/>
   <rect fill="#000000" transform="matrix(2.94463 -1.70008 1.70008 2.94463 5423.06 5463.3)" width="25.83" height="25.83"/>
   <rect fill="#000000" transform="matrix(2.94463 -1.70008 1.70008 2.94463 5499.13 5419.39)" width="25.83" height="25.83"/>
   <rect fill="#000000" transform="matrix(2.94463 -1.70008 1.70008 2.94463 5575.19 5375.47)" width="25.83" height="25.83"/>
   <rect fill="#FF681C" transform="matrix(2.94463 -1.70008 1.70008 2.94463 3641.5 6593.27)" width="25.83" height="25.83"/>
   <rect fill="#FF7115" transform="matrix(2.94463 -1.70008 1.70008 2.94463 3717.56 6549.35)" width="25.83" height="25.83"/>
   <rect fill="#FF7115" transform="matrix(2.94463 -1.70008 1.70008 2.94463 3793.63 6505.44)" width="25.83" height="25.83"/>
   <rect fill="#FF8536" transform="matrix(2.94463 -1.70008 1.70008 2.94463 3869.7 6461.52)" width="25.83" height="25.83"/>
   <rect fill="#FF9754" transform="matrix(2.94463 -1.70008 1.70008 2.94463 3945.76 6417.6)" width="25.83" height="25.83"/>
   <rect fill="#FF9754" transform="matrix(2.94463 -1.70008 1.70008 2.94463 4021.83 6373.69)" width="25.83" height="25.83"/>
   <rect fill="#FFCAB4" transform="matrix(2.94463 -1.70008 1.70008 2.94463 4097.86 6329.79)" width="25.83" height="25.83"/>
   <rect fill="#FFCAB4" transform="matrix(2.94463 -1.70008 1.70008 2.94463 4173.93 6285.87)" width="25.83" height="25.83"/>
   <rect fill="#FFCAB4" transform="matrix(2.94463 -1.70008 1.70008 2.94463 4249.99 6241.95)" width="25.83" height="25.83"/>
   <rect fill="#000000" transform="matrix(2.94463 -1.70008 1.70008 2.94463 4326.06 6198.04)" width="25.83" height="25.83"/>
   <rect fill="#A32100" transform="matrix(2.94463 -1.70008 1.70008 2.94463 4402.13 6154.12)" width="25.83" height="25.83"/>
   <rect fill="#A32100" transform="matrix(2.94463 -1.70008 1.70008 2.94463 4478.19 6110.21)" width="25.83" height="25.83"/>
   <rect fill="#A32100" transform="matrix(2.94463 -1.70008 1.70008 2.94463 4554.23 6066.31)" width="25.83" height="25.83"/>
   <rect fill="#A12000" transform="matrix(2.94463 -1.70008 1.70008 2.94463 4630.29 6022.39)" width="25.83" height="25.83"/>
   <rect fill="#A12000" transform="matrix(2.94463 -1.70008 1.70008 2.94463 4706.36 5978.47)" width="25.83" height="25.83"/>
   <rect fill="#A32100" transform="matrix(2.94463 -1.70008 1.70008 2.94463 4782.43 5934.56)" width="25.83" height="25.83"/>
   <rect fill="#A32100" transform="matrix(2.94463 -1.70008 1.70008 2.94463 4858.49 5890.64)" width="25.83" height="25.83"/>
   <rect fill="#A32100" transform="matrix(2.94463 -1.70008 1.70008 2.94463 4934.56 5846.72)" width="25.83" height="25.83"/>
   <rect fill="#BD2500" transform="matrix(2.94463 -1.70008 1.70008 2.94463 5010.59 5802.82)" width="25.83" height="25.83"/>
   <rect fill="#BD2500" transform="matrix(2.94463 -1.70008 1.70008 2.94463 5086.66 5758.91)" width="25.83" height="25.83"/>
   <rect fill="#BD2500" transform="matrix(2.94463 -1.70008 1.70008 2.94463 5162.73 5714.99)" width="25.83" height="25.83"/>
   <rect fill="#8B1C00" transform="matrix(2.94463 -1.70008 1.70008 2.94463 5238.79 5671.07)" width="25.83" height="25.83"/>
   <rect fill="#8B1C00" transform="matrix(2.94463 -1.70008 1.70008 2.94463 5314.86 5627.16)" width="25.83" height="25.83"/>
   <rect fill="#8B1C00" transform="matrix(2.94463 -1.70008 1.70008 2.94463 5390.92 5583.24)" width="25.83" height="25.83"/>
   <rect fill="#8F1D00" transform="matrix(2.94463 -1.70008 1.70008 2.94463 5466.96 5539.34)" width="25.83" height="25.83"/>
   <rect fill="#8F1D00" transform="matrix(2.94463 -1.70008 1.70008 2.94463 5543.03 5495.42)" width="25.83" height="25.83"/>
   <rect fill="#8B1C00" transform="matrix(2.94463 -1.70008 1.70008 2.94463 5619.09 5451.51)" width="25.83" height="25.83"/>
   <rect fill="#000000" transform="matrix(2.94463 -1.70008 1.70008 2.94463 5695.16 5407.59)" width="25.83" height="25.83"/>
   <rect fill="#000000" transform="matrix(2.94463 -1.70008 1.70008 2.94463 5771.22 5363.67)" width="25.83" height="25.83"/>
   <rect fill="#FF681C" transform="matrix(2.94463 -1.70008 1.70008 2.94463 3761.48 6625.42)" width="25.83" height="25.83"/>
   <rect fill="#FF681C" transform="matrix(2.94463 -1.70008 1.70008 2.94463 3837.55 6581.5)" width="25.83" height="25.83"/>
   <rect fill="#FF7115" transform="matrix(2.94463 -1.70008 1.70008 2.94463 3913.61 6537.59)" width="25.83" height="25.83"/>
   <rect fill="#FF8536" transform="matrix(2.94463 -1.70008 1.70008 2.94463 3989.68 6493.67)" width="25.83" height="25.83"/>
   <rect fill="#FF9754" transform="matrix(2.94463 -1.70008 1.70008 2.94463 4065.74 6449.75)" width="25.83" height="25.83"/>
   <rect fill="#FF9754" transform="matrix(2.94463 -1.70008 1.70008 2.94463 4141.78 6405.85)" width="25.83" height="25.83"/>
   <rect fill="#FF9754" transform="matrix(2.94463 -1.70008 1.70008 2.94463 4217.85 6361.94)" width="25.83" height="25.83"/>
   <rect fill="#000000" transform="matrix(2.94463 -1.70008 1.70008 2.94463 4293.91 6318.02)" width="25.83" height="25.83"/>
   <rect fill="#A32100" transform="matrix(2.94463 -1.70008 1.70008 2.94463 4369.98 6274.1)" width="25.83" height="25.83"/>
   <rect fill="#A12000" transform="matrix(2.94463 -1.70008 1.70008 2.94463 4446.04 6230.19)" width="25.83" height="25.83"/>
   <rect fill="#A32100" transform="matrix(2.94463 -1.70008 1.70008 2.94463 4522.11 6186.27)" width="25.83" height="25.83"/>
   <rect fill="#A12000" transform="matrix(2.94463 -1.70008 1.70008 2.94463 4598.15 6142.37)" width="25.83" height="25.83"/>
   <rect fill="#A12000" transform="matrix(2.94463 -1.70008 1.70008 2.94463 4674.21 6098.45)" width="25.83" height="25.83"/>
   <rect fill="#A12000" transform="matrix(2.94463 -1.70008 1.70008 2.94463 4750.28 6054.54)" width="25.83" height="25.83"/>
   <rect fill="#BD2500" transform="matrix(2.94463 -1.70008 1.70008 2.94463 4826.34 6010.62)" width="25.83" height="25.83"/>
   <rect fill="#BD2500" transform="matrix(2.94463 -1.70008 1.70008 2.94463 4902.41 5966.71)" width="25.83" height="25.83"/>
   <rect fill="#C12500" transform="matrix(2.94463 -1.70008 1.70008 2.94463 4978.47 5922.79)" width="25.83" height="25.83"/>
   <rect fill="#C12500" transform="matrix(2.94463 -1.70008 1.70008 2.94463 5054.51 5878.89)" width="25.83" height="25.83"/>
   <rect fill="#BD2500" transform="matrix(2.94463 -1.70008 1.70008 2.94463 5130.58 5834.97)" width="25.83" height="25.83"/>
   <rect fill="#C12500" transform="matrix(2.94463 -1.70008 1.70008 2.94463 5206.64 5791.06)" width="25.83" height="25.83"/>
   <rect fill="#BD2500" transform="matrix(2.94463 -1.70008 1.70008 2.94463 5282.71 5747.14)" width="25.83" height="25.83"/>
   <rect fill="#BD2500" transform="matrix(2.94463 -1.70008 1.70008 2.94463 5358.77 5703.22)" width="25.83" height="25.83"/>
   <rect fill="#BD2500" transform="matrix(2.94463 -1.70008 1.70008 2.94463 5434.84 5659.31)" width="25.83" height="25.83"/>
   <rect fill="#8B1C00" transform="matrix(2.94463 -1.70008 1.70008 2.94463 5510.88 5615.41)" width="25.83" height="25.83"/>
   <rect fill="#8B1C00" transform="matrix(2.94463 -1.70008 1.70008 2.94463 5586.94 5571.49)" width="25.83" height="25.83"/>
   <rect fill="#8F1D00" transform="matrix(2.94463 -1.70008 1.70008 2.94463 5663.01 5527.57)" width="25.83" height="25.83"/>
   <rect fill="#8F1D00" transform="matrix(2.94463 -1.70008 1.70008 2.94463 5739.07 5483.66)" width="25.83" height="25.83"/>
   <rect fill="#8F1D00" transform="matrix(2.94463 -1.70008 1.70008 2.94463 5815.14 5439.74)" width="25.83" height="25.83"/>
   <rect fill="#000000" transform="matrix(2.94463 -1.70008 1.70008 2.94463 5891.2 5395.82)" width="25.83" height="25.83"/>
   <rect fill="#FF681C" transform="matrix(2.94463 -1.70008 1.70008 2.94463 3957.53 6613.65)" width="25.83" height="25.83"/>
   <rect fill="#FF681C" transform="matrix(2.94463 -1.70008 1.70008 2.94463 4033.59 6569.74)" width="25.83" height="25.83"/>
   <rect fill="#FF681C" transform="matrix(2.94463 -1.70008 1.70008 2.94463 4109.66 6525.82)" width="25.83" height="25.83"/>
   <rect fill="#FF8536" transform="matrix(2.94463 -1.70008 1.70008 2.94463 4185.7 6481.92)" width="25.83" height="25.83"/>
   <rect fill="#FF8536" transform="matrix(2.94463 -1.70008 1.70008 2.94463 4261.76 6438)" width="25.83" height="25.83"/>
   <rect fill="#FF8536" transform="matrix(2.94463 -1.70008 1.70008 2.94463 4337.83 6394.09)" width="25.83" height="25.83"/>
   <rect fill="#000000" transform="matrix(2.94463 -1.70008 1.70008 2.94463 4413.89 6350.17)" width="25.83" height="25.83"/>
   <rect fill="#BD2500" transform="matrix(2.94463 -1.70008 1.70008 2.94463 4489.96 6306.25)" width="25.83" height="25.83"/>
   <rect fill="#C12500" transform="matrix(2.94463 -1.70008 1.70008 2.94463 4566.03 6262.34)" width="25.83" height="25.83"/>
   <rect fill="#BD2500" transform="matrix(2.94463 -1.70008 1.70008 2.94463 4642.06 6218.44)" width="25.83" height="25.83"/>
   <rect fill="#BD2500" transform="matrix(2.94463 -1.70008 1.70008 2.94463 4718.13 6174.52)" width="25.83" height="25.83"/>
   <rect fill="#BD2500" transform="matrix(2.94463 -1.70008 1.70008 2.94463 4794.19 6130.6)" width="25.83" height="25.83"/>
   <rect fill="#BD2500" transform="matrix(2.94463 -1.70008 1.70008 2.94463 4870.26 6086.69)" width="25.83" height="25.83"/>
   <rect fill="#C12500" transform="matrix(2.94463 -1.70008 1.70008 2.94463 4946.33 6042.77)" width="25.83" height="25.83"/>
   <rect fill="#BD2500" transform="matrix(2.94463 -1.70008 1.70008 2.94463 5022.39 5998.85)" width="25.83" height="25.83"/>
   <rect fill="#BD2500" transform="matrix(2.94463 -1.70008 1.70008 2.94463 5098.43 5954.95)" width="25.83" height="25.83"/>
   <rect fill="#BD2500" transform="matrix(2.94463 -1.70008 1.70008 2.94463 5174.49 5911.04)" width="25.83" height="25.83"/>
   <rect fill="#C12500" transform="matrix(2.94463 -1.70008 1.70008 2.94463 5250.56 5867.12)" width="25.83" height="25.83"/>
   <rect fill="#BD2500" transform="matrix(2.94463 -1.70008 1.70008 2.94463 5326.62 5823.2)" width="25.83" height="25.83"/>
   <rect fill="#BD2500" transform="matrix(2.94463 -1.70008 1.70008 2.94463 5402.69 5779.29)" width="25.83" height="25.83"/>
   <rect fill="#C12500" transform="matrix(2.94463 -1.70008 1.70008 2.94463 5478.76 5735.37)" width="25.83" height="25.83"/>
   <rect fill="#BD2500" transform="matrix(2.94463 -1.70008 1.70008 2.94463 5554.79 5691.47)" width="25.83" height="25.83"/>
   <rect fill="#C12500" transform="matrix(2.94463 -1.70008 1.70008 2.94463 5630.86 5647.56)" width="25.83" height="25.83"/>
   <rect fill="#C12500" transform="matrix(2.94463 -1.70008 1.70008 2.94463 5706.92 5603.64)" width="25.83" height="25.83"/>
   <rect fill="#BD2500" transform="matrix(2.94463 -1.70008 1.70008 2.94463 5782.99 5559.72)" width="25.83" height="25.83"/>
   <rect fill="#8B1C00" transform="matrix(2.94463 -1.70008 1.70008 2.94463 5859.06 5515.81)" width="25.83" height="25.83"/>
   <rect fill="#000000" transform="matrix(2.94463 -1.70008 1.70008 2.94463 5935.12 5471.89)" width="25.83" height="25.83"/>
   <rect fill="#000000" transform="matrix(2.94463 -1.70008 1.70008 2.94463 4533.88 6382.32)" width="25.83" height="25.83"/>
   <rect fill="#BD2500" transform="matrix(2.94463 -1.70008 1.70008 2.94463 4609.94 6338.4)" width="25.83" height="25.83"/>
   <rect fill="#981E00" transform="matrix(2.94463 -1.70008 1.70008 2.94463 4685.98 6294.5)" width="25.83" height="25.83"/>
   <rect fill="#981E00" transform="matrix(2.94463 -1.70008 1.70008 2.94463 4762.04 6250.59)" width="25.83" height="25.83"/>
   <rect fill="#941D00" transform="matrix(2.94463 -1.70008 1.70008 2.94463 4838.11 6206.67)" width="25.83" height="25.83"/>
   <rect fill="#981E00" transform="matrix(2.94463 -1.70008 1.70008 2.94463 4914.18 6162.75)" width="25.83" height="25.83"/>
   <rect fill="#981E00" transform="matrix(2.94463 -1.70008 1.70008 2.94463 4990.24 6118.84)" width="25.83" height="25.83"/>
   <rect fill="#941D00" transform="matrix(2.94463 -1.70008 1.70008 2.94463 5066.31 6074.92)" width="25.83" height="25.83"/>
   <rect fill="#981E00" transform="matrix(2.94463 -1.70008 1.70008 2.94463 5142.34 6031.02)" width="25.83" height="25.83"/>
   <rect fill="#981E00" transform="matrix(2.94463 -1.70008 1.70008 2.94463 5218.41 5987.1)" width="25.83" height="25.83"/>
   <rect fill="#941D00" transform="matrix(2.94463 -1.70008 1.70008 2.94463 5294.48 5943.19)" width="25.83" height="25.83"/>
   <rect fill="#981E00" transform="matrix(2.94463 -1.70008 1.70008 2.94463 5370.54 5899.27)" width="25.83" height="25.83"/>
   <rect fill="#981E00" transform="matrix(2.94463 -1.70008 1.70008 2.94463 5446.61 5855.35)" width="25.83" height="25.83"/>
   <rect fill="#941D00" transform="matrix(2.94463 -1.70008 1.70008 2.94463 5522.67 5811.44)" width="25.83" height="25.83"/>
   <rect fill="#941D00" transform="matrix(2.94463 -1.70008 1.70008 2.94463 5598.71 5767.54)" width="25.83" height="25.83"/>
   <rect fill="#981E00" transform="matrix(2.94463 -1.70008 1.70008 2.94463 5674.78 5723.62)" width="25.83" height="25.83"/>
   <rect fill="#981E00" transform="matrix(2.94463 -1.70008 1.70008 2.94463 5750.84 5679.7)" width="25.83" height="25.83"/>
   <rect fill="#941D00" transform="matrix(2.94463 -1.70008 1.70008 2.94463 5826.91 5635.79)" width="25.83" height="25.83"/>
   <rect fill="#981E00" transform="matrix(2.94463 -1.70008 1.70008 2.94463 5902.97 5591.87)" width="25.83" height="25.83"/>
   <rect fill="#8F1D00" transform="matrix(2.94463 -1.70008 1.70008 2.94463 5979.04 5547.95)" width="25.83" height="25.83"/>
   <rect fill="#000000" transform="matrix(2.94463 -1.70008 1.70008 2.94463 6055.08 5504.05)" width="25.83" height="25.83"/>
   <rect fill="#FF681C" transform="matrix(2.94463 -1.70008 1.70008 2.94463 4045.36 6765.78)" width="25.83" height="25.83"/>
   <rect fill="#FF7115" transform="matrix(2.94463 -1.70008 1.70008 2.94463 4121.43 6721.87)" width="25.83" height="25.83"/>
   <rect fill="#FF8536" transform="matrix(2.94463 -1.70008 1.70008 2.94463 4197.49 6677.95)" width="25.83" height="25.83"/>
   <rect fill="#FF8536" transform="matrix(2.94463 -1.70008 1.70008 2.94463 4273.53 6634.05)" width="25.83" height="25.83"/>
   <rect fill="#FF8536" transform="matrix(2.94463 -1.70008 1.70008 2.94463 4349.6 6590.13)" width="25.83" height="25.83"/>
   <rect fill="#000000" transform="matrix(2.94463 -1.70008 1.70008 2.94463 4577.79 6458.39)" width="25.83" height="25.83"/>
   <rect fill="#981E00" transform="matrix(2.94463 -1.70008 1.70008 2.94463 4653.86 6414.47)" width="25.83" height="25.83"/>
   <rect fill="#981E00" transform="matrix(2.94463 -1.70008 1.70008 2.94463 4729.9 6370.57)" width="25.83" height="25.83"/>
   <rect fill="#981E00" transform="matrix(2.94463 -1.70008 1.70008 2.94463 4805.96 6326.65)" width="25.83" height="25.83"/>
   <rect fill="#981E00" transform="matrix(2.94463 -1.70008 1.70008 2.94463 4882.03 6282.74)" width="25.83" height="25.83"/>
   <rect fill="#941D00" transform="matrix(2.94463 -1.70008 1.70008 2.94463 4958.09 6238.82)" width="25.83" height="25.83"/>
   <rect fill="#941D00" transform="matrix(2.94463 -1.70008 1.70008 2.94463 5034.16 6194.9)" width="25.83" height="25.83"/>
   <rect fill="#941D00" transform="matrix(2.94463 -1.70008 1.70008 2.94463 5110.22 6150.99)" width="25.83" height="25.83"/>
   <rect fill="#941D00" transform="matrix(2.94463 -1.70008 1.70008 2.94463 5186.26 6107.09)" width="25.83" height="25.83"/>
   <rect fill="#941D00" transform="matrix(2.94463 -1.70008 1.70008 2.94463 5262.33 6063.17)" width="25.83" height="25.83"/>
   <rect fill="#981E00" transform="matrix(2.94463 -1.70008 1.70008 2.94463 5338.39 6019.25)" width="25.83" height="25.83"/>
   <rect fill="#981E00" transform="matrix(2.94463 -1.70008 1.70008 2.94463 5414.46 5975.34)" width="25.83" height="25.83"/>
   <rect fill="#941D00" transform="matrix(2.94463 -1.70008 1.70008 2.94463 5490.52 5931.42)" width="25.83" height="25.83"/>
   <rect fill="#941D00" transform="matrix(2.94463 -1.70008 1.70008 2.94463 5566.59 5887.5)" width="25.83" height="25.83"/>
   <rect fill="#941D00" transform="matrix(2.94463 -1.70008 1.70008 2.94463 5642.63 5843.6)" width="25.83" height="25.83"/>
   <rect fill="#941D00" transform="matrix(2.94463 -1.70008 1.70008 2.94463 5718.69 5799.69)" width="25.83" height="25.83"/>
   <rect fill="#941D00" transform="matrix(2.94463 -1.70008 1.70008 2.94463 5794.76 5755.77)" width="25.83" height="25.83"/>
   <rect fill="#981E00" transform="matrix(2.94463 -1.70008 1.70008 2.94463 5870.82 5711.85)" width="25.83" height="25.83"/>
   <rect fill="#8B1C00" transform="matrix(2.94463 -1.70008 1.70008 2.94463 5946.89 5667.94)" width="25.83" height="25.83"/>
   <rect fill="#8B1C00" transform="matrix(2.94463 -1.70008 1.70008 2.94463 6022.95 5624.02)" width="25.83" height="25.83"/>
   <rect fill="#000000" transform="matrix(2.94463 -1.70008 1.70008 2.94463 6098.99 5580.12)" width="25.83" height="25.83"/>
   <rect fill="#FF681C" transform="matrix(2.94463 -1.70008 1.70008 2.94463 3937.15 6929.68)" width="25.83" height="25.83"/>
   <rect fill="#FF681C" transform="matrix(2.94463 -1.70008 1.70008 2.94463 4013.21 6885.77)" width="25.83" height="25.83"/>
   <rect fill="#FF7115" transform="matrix(2.94463 -1.70008 1.70008 2.94463 4089.28 6841.85)" width="25.83" height="25.83"/>
   <rect fill="#FF8536" transform="matrix(2.94463 -1.70008 1.70008 2.94463 4165.34 6797.93)" width="25.83" height="25.83"/>
   <rect fill="#FF9754" transform="matrix(2.94463 -1.70008 1.70008 2.94463 4241.41 6754.02)" width="25.83" height="25.83"/>
   <rect fill="#FF9754" transform="matrix(2.94463 -1.70008 1.70008 2.94463 4317.45 6710.12)" width="25.83" height="25.83"/>
   <rect fill="#FF9754" transform="matrix(2.94463 -1.70008 1.70008 2.94463 4393.51 6666.2)" width="25.83" height="25.83"/>
   <rect fill="#FF8536" transform="matrix(2.94463 -1.70008 1.70008 2.94463 4469.58 6622.28)" width="25.83" height="25.83"/>
   <rect fill="#000000" transform="matrix(2.94463 -1.70008 1.70008 2.94463 4545.64 6578.37)" width="25.83" height="25.83"/>
   <rect fill="#BD2500" transform="matrix(2.94463 -1.70008 1.70008 2.94463 4621.71 6534.45)" width="25.83" height="25.83"/>
   <rect fill="#BD2500" transform="matrix(2.94463 -1.70008 1.70008 2.94463 4697.78 6490.53)" width="25.83" height="25.83"/>
   <rect fill="#C12500" transform="matrix(2.94463 -1.70008 1.70008 2.94463 4773.81 6446.63)" width="25.83" height="25.83"/>
   <rect fill="#BD2500" transform="matrix(2.94463 -1.70008 1.70008 2.94463 4849.88 6402.72)" width="25.83" height="25.83"/>
   <rect fill="#BD2500" transform="matrix(2.94463 -1.70008 1.70008 2.94463 4925.94 6358.8)" width="25.83" height="25.83"/>
   <rect fill="#BD2500" transform="matrix(2.94463 -1.70008 1.70008 2.94463 5002.01 6314.88)" width="25.83" height="25.83"/>
   <rect fill="#C12500" transform="matrix(2.94463 -1.70008 1.70008 2.94463 5078.07 6270.97)" width="25.83" height="25.83"/>
   <rect fill="#BD2500" transform="matrix(2.94463 -1.70008 1.70008 2.94463 5154.14 6227.05)" width="25.83" height="25.83"/>
   <rect fill="#BD2500" transform="matrix(2.94463 -1.70008 1.70008 2.94463 5230.18 6183.15)" width="25.83" height="25.83"/>
   <rect fill="#BD2500" transform="matrix(2.94463 -1.70008 1.70008 2.94463 5306.24 6139.24)" width="25.83" height="25.83"/>
   <rect fill="#C12500" transform="matrix(2.94463 -1.70008 1.70008 2.94463 5382.31 6095.32)" width="25.83" height="25.83"/>
   <rect fill="#BD2500" transform="matrix(2.94463 -1.70008 1.70008 2.94463 5458.37 6051.4)" width="25.83" height="25.83"/>
   <rect fill="#C12500" transform="matrix(2.94463 -1.70008 1.70008 2.94463 5534.44 6007.49)" width="25.83" height="25.83"/>
   <rect fill="#BD2500" transform="matrix(2.94463 -1.70008 1.70008 2.94463 5610.51 5963.57)" width="25.83" height="25.83"/>
   <rect fill="#BD2500" transform="matrix(2.94463 -1.70008 1.70008 2.94463 5686.54 5919.67)" width="25.83" height="25.83"/>
   <rect fill="#C12500" transform="matrix(2.94463 -1.70008 1.70008 2.94463 5762.61 5875.75)" width="25.83" height="25.83"/>
   <rect fill="#C12500" transform="matrix(2.94463 -1.70008 1.70008 2.94463 5838.67 5831.84)" width="25.83" height="25.83"/>
   <rect fill="#C12500" transform="matrix(2.94463 -1.70008 1.70008 2.94463 5914.74 5787.92)" width="25.83" height="25.83"/>
   <rect fill="#8B1C00" transform="matrix(2.94463 -1.70008 1.70008 2.94463 5990.81 5744)" width="25.83" height="25.83"/>
   <rect fill="#000000" transform="matrix(2.94463 -1.70008 1.70008 2.94463 6066.87 5700.09)" width="25.83" height="25.83"/>
   <rect fill="#FF681C" transform="matrix(2.94463 -1.70008 1.70008 2.94463 3904.98 7049.64)" width="25.83" height="25.83"/>
   <rect fill="#FF7115" transform="matrix(2.94463 -1.70008 1.70008 2.94463 3981.05 7005.72)" width="25.83" height="25.83"/>
   <rect fill="#FF7115" transform="matrix(2.94463 -1.70008 1.70008 2.94463 4057.11 6961.8)" width="25.83" height="25.83"/>
   <rect fill="#FF8536" transform="matrix(2.94463 -1.70008 1.70008 2.94463 4133.18 6917.89)" width="25.83" height="25.83"/>
   <rect fill="#FF9754" transform="matrix(2.94463 -1.70008 1.70008 2.94463 4209.24 6873.97)" width="25.83" height="25.83"/>
   <rect fill="#FF9754" transform="matrix(2.94463 -1.70008 1.70008 2.94463 4285.31 6830.05)" width="25.83" height="25.83"/>
   <rect fill="#FFCAB4" transform="matrix(2.94463 -1.70008 1.70008 2.94463 4361.35 6786.15)" width="25.83" height="25.83"/>
   <rect fill="#FF9754" transform="matrix(2.94463 -1.70008 1.70008 2.94463 4437.41 6742.24)" width="25.83" height="25.83"/>
   <rect fill="#000000" transform="matrix(2.94463 -1.70008 1.70008 2.94463 4513.48 6698.32)" width="25.83" height="25.83"/>
   <rect fill="#A32100" transform="matrix(2.94463 -1.70008 1.70008 2.94463 4589.54 6654.4)" width="25.83" height="25.83"/>
   <rect fill="#A12000" transform="matrix(2.94463 -1.70008 1.70008 2.94463 4665.61 6610.49)" width="25.83" height="25.83"/>
   <rect fill="#A12000" transform="matrix(2.94463 -1.70008 1.70008 2.94463 4741.68 6566.57)" width="25.83" height="25.83"/>
   <rect fill="#A12000" transform="matrix(2.94463 -1.70008 1.70008 2.94463 4817.71 6522.67)" width="25.83" height="25.83"/>
   <rect fill="#A12000" transform="matrix(2.94463 -1.70008 1.70008 2.94463 4893.78 6478.76)" width="25.83" height="25.83"/>
   <rect fill="#A12000" transform="matrix(2.94463 -1.70008 1.70008 2.94463 4969.84 6434.84)" width="25.83" height="25.83"/>
   <rect fill="#BD2500" transform="matrix(2.94463 -1.70008 1.70008 2.94463 5045.91 6390.92)" width="25.83" height="25.83"/>
   <rect fill="#BD2500" transform="matrix(2.94463 -1.70008 1.70008 2.94463 5121.97 6347.01)" width="25.83" height="25.83"/>
   <rect fill="#C12500" transform="matrix(2.94463 -1.70008 1.70008 2.94463 5198.04 6303.09)" width="25.83" height="25.83"/>
   <rect fill="#BD2500" transform="matrix(2.94463 -1.70008 1.70008 2.94463 5274.08 6259.19)" width="25.83" height="25.83"/>
   <rect fill="#BD2500" transform="matrix(2.94463 -1.70008 1.70008 2.94463 5350.14 6215.27)" width="25.83" height="25.83"/>
   <rect fill="#BD2500" transform="matrix(2.94463 -1.70008 1.70008 2.94463 5426.21 6171.36)" width="25.83" height="25.83"/>
   <rect fill="#BD2500" transform="matrix(2.94463 -1.70008 1.70008 2.94463 5502.27 6127.44)" width="25.83" height="25.83"/>
   <rect fill="#BD2500" transform="matrix(2.94463 -1.70008 1.70008 2.94463 5578.34 6083.52)" width="25.83" height="25.83"/>
   <rect fill="#BD2500" transform="matrix(2.94463 -1.70008 1.70008 2.94463 5654.41 6039.61)" width="25.83" height="25.83"/>
   <rect fill="#8B1C00" transform="matrix(2.94463 -1.70008 1.70008 2.94463 5730.44 5995.71)" width="25.83" height="25.83"/>
   <rect fill="#8B1C00" transform="matrix(2.94463 -1.70008 1.70008 2.94463 5806.51 5951.79)" width="25.83" height="25.83"/>
   <rect fill="#8B1C00" transform="matrix(2.94463 -1.70008 1.70008 2.94463 5882.57 5907.87)" width="25.83" height="25.83"/>
   <rect fill="#8F1D00" transform="matrix(2.94463 -1.70008 1.70008 2.94463 5958.64 5863.96)" width="25.83" height="25.83"/>
   <rect fill="#8B1C00" transform="matrix(2.94463 -1.70008 1.70008 2.94463 6034.71 5820.04)" width="25.83" height="25.83"/>
   <rect fill="#000000" transform="matrix(2.94463 -1.70008 1.70008 2.94463 6110.77 5776.12)" width="25.83" height="25.83"/>
   <rect fill="#FF681C" transform="matrix(2.94463 -1.70008 1.70008 2.94463 4024.96 7081.79)" width="25.83" height="25.83"/>
   <rect fill="#FF7115" transform="matrix(2.94463 -1.70008 1.70008 2.94463 4101.03 7037.87)" width="25.83" height="25.83"/>
   <rect fill="#FF8536" transform="matrix(2.94463 -1.70008 1.70008 2.94463 4177.1 6993.95)" width="25.83" height="25.83"/>
   <rect fill="#FF9754" transform="matrix(2.94463 -1.70008 1.70008 2.94463 4253.16 6950.04)" width="25.83" height="25.83"/>
   <rect fill="#FF9754" transform="matrix(2.94463 -1.70008 1.70008 2.94463 4329.23 6906.12)" width="25.83" height="25.83"/>
   <rect fill="#FFCAB4" transform="matrix(2.94463 -1.70008 1.70008 2.94463 4405.26 6862.22)" width="25.83" height="25.83"/>
   <rect fill="#FFCAB4" transform="matrix(2.94463 -1.70008 1.70008 2.94463 4481.33 6818.3)" width="25.83" height="25.83"/>
   <rect fill="#FFCAB4" transform="matrix(2.94463 -1.70008 1.70008 2.94463 4557.39 6774.39)" width="25.83" height="25.83"/>
   <rect fill="#000000" transform="matrix(2.94463 -1.70008 1.70008 2.94463 4633.46 6730.47)" width="25.83" height="25.83"/>
   <rect fill="#A12000" transform="matrix(2.94463 -1.70008 1.70008 2.94463 4709.53 6686.55)" width="25.83" height="25.83"/>
   <rect fill="#A32100" transform="matrix(2.94463 -1.70008 1.70008 2.94463 4785.59 6642.64)" width="25.83" height="25.83"/>
   <rect fill="#A32100" transform="matrix(2.94463 -1.70008 1.70008 2.94463 4861.63 6598.74)" width="25.83" height="25.83"/>
   <rect fill="#A12000" transform="matrix(2.94463 -1.70008 1.70008 2.94463 4937.69 6554.82)" width="25.83" height="25.83"/>
   <rect fill="#A12000" transform="matrix(2.94463 -1.70008 1.70008 2.94463 5013.76 6510.9)" width="25.83" height="25.83"/>
   <rect fill="#A12000" transform="matrix(2.94463 -1.70008 1.70008 2.94463 5089.83 6466.99)" width="25.83" height="25.83"/>
   <rect fill="#A32100" transform="matrix(2.94463 -1.70008 1.70008 2.94463 5165.89 6423.07)" width="25.83" height="25.83"/>
   <rect fill="#A12000" transform="matrix(2.94463 -1.70008 1.70008 2.94463 5241.96 6379.15)" width="25.83" height="25.83"/>
   <rect fill="#C12500" transform="matrix(2.94463 -1.70008 1.70008 2.94463 5317.99 6335.25)" width="25.83" height="25.83"/>
   <rect fill="#C12500" transform="matrix(2.94463 -1.70008 1.70008 2.94463 5394.06 6291.34)" width="25.83" height="25.83"/>
   <rect fill="#BD2500" transform="matrix(2.94463 -1.70008 1.70008 2.94463 5470.13 6247.42)" width="25.83" height="25.83"/>
   <rect fill="#8B1C00" transform="matrix(2.94463 -1.70008 1.70008 2.94463 5546.19 6203.51)" width="25.83" height="25.83"/>
   <rect fill="#8B1C00" transform="matrix(2.94463 -1.70008 1.70008 2.94463 5622.26 6159.59)" width="25.83" height="25.83"/>
   <rect fill="#8F1D00" transform="matrix(2.94463 -1.70008 1.70008 2.94463 5698.32 6115.67)" width="25.83" height="25.83"/>
   <rect fill="#8B1C00" transform="matrix(2.94463 -1.70008 1.70008 2.94463 5774.36 6071.77)" width="25.83" height="25.83"/>
   <rect fill="#8F1D00" transform="matrix(2.94463 -1.70008 1.70008 2.94463 5850.43 6027.86)" width="25.83" height="25.83"/>
   <rect fill="#8B1C00" transform="matrix(2.94463 -1.70008 1.70008 2.94463 5926.49 5983.94)" width="25.83" height="25.83"/>
   <rect fill="#000000" transform="matrix(2.94463 -1.70008 1.70008 2.94463 6002.56 5940.02)" width="25.83" height="25.83"/>
   <rect fill="#000000" transform="matrix(2.94463 -1.70008 1.70008 2.94463 6078.62 5896.11)" width="25.83" height="25.83"/>
   <rect fill="#FF681C" transform="matrix(2.94463 -1.70008 1.70008 2.94463 4144.95 7113.94)" width="25.83" height="25.83"/>
   <rect fill="#FF7115" transform="matrix(2.94463 -1.70008 1.70008 2.94463 4221.01 7070.02)" width="25.83" height="25.83"/>
   <rect fill="#FF8536" transform="matrix(2.94463 -1.70008 1.70008 2.94463 4297.08 7026.1)" width="25.83" height="25.83"/>
   <rect fill="#FF9754" transform="matrix(2.94463 -1.70008 1.70008 2.94463 4373.14 6982.19)" width="25.83" height="25.83"/>
   <rect fill="#FF9754" transform="matrix(2.94463 -1.70008 1.70008 2.94463 4449.18 6938.29)" width="25.83" height="25.83"/>
   <rect fill="#FFCAB4" transform="matrix(2.94463 -1.70008 1.70008 2.94463 4525.25 6894.37)" width="25.83" height="25.83"/>
   <rect fill="#FFCAB4" transform="matrix(2.94463 -1.70008 1.70008 2.94463 4601.31 6850.45)" width="25.83" height="25.83"/>
   <rect fill="#000000" transform="matrix(2.94463 -1.70008 1.70008 2.94463 4677.38 6806.54)" width="25.83" height="25.83"/>
   <rect fill="#A32100" transform="matrix(2.94463 -1.70008 1.70008 2.94463 4753.44 6762.62)" width="25.83" height="25.83"/>
   <rect fill="#A32100" transform="matrix(2.94463 -1.70008 1.70008 2.94463 4829.51 6718.7)" width="25.83" height="25.83"/>
   <rect fill="#A32100" transform="matrix(2.94463 -1.70008 1.70008 2.94463 4905.55 6674.8)" width="25.83" height="25.83"/>
   <rect fill="#A32100" transform="matrix(2.94463 -1.70008 1.70008 2.94463 4981.61 6630.89)" width="25.83" height="25.83"/>
   <rect fill="#A32100" transform="matrix(2.94463 -1.70008 1.70008 2.94463 5057.68 6586.97)" width="25.83" height="25.83"/>
   <rect fill="#A32100" transform="matrix(2.94463 -1.70008 1.70008 2.94463 5133.74 6543.05)" width="25.83" height="25.83"/>
   <rect fill="#A12000" transform="matrix(2.94463 -1.70008 1.70008 2.94463 5209.81 6499.14)" width="25.83" height="25.83"/>
   <rect fill="#C12500" transform="matrix(2.94463 -1.70008 1.70008 2.94463 5285.87 6455.22)" width="25.83" height="25.83"/>
   <rect fill="#BD2500" transform="matrix(2.94463 -1.70008 1.70008 2.94463 5361.91 6411.32)" width="25.83" height="25.83"/>
   <rect fill="#8B1C00" transform="matrix(2.94463 -1.70008 1.70008 2.94463 5437.98 6367.4)" width="25.83" height="25.83"/>
   <rect fill="#8B1C00" transform="matrix(2.94463 -1.70008 1.70008 2.94463 5514.04 6323.49)" width="25.83" height="25.83"/>
   <rect fill="#8F1D00" transform="matrix(2.94463 -1.70008 1.70008 2.94463 5590.11 6279.57)" width="25.83" height="25.83"/>
   <rect fill="#8F1D00" transform="matrix(2.94463 -1.70008 1.70008 2.94463 5666.17 6235.65)" width="25.83" height="25.83"/>
   <rect fill="#8B1C00" transform="matrix(2.94463 -1.70008 1.70008 2.94463 5742.24 6191.74)" width="25.83" height="25.83"/>
   <rect fill="#000000" transform="matrix(2.94463 -1.70008 1.70008 2.94463 5818.28 6147.84)" width="25.83" height="25.83"/>
   <rect fill="#000000" transform="matrix(2.94463 -1.70008 1.70008 2.94463 5894.34 6103.92)" width="25.83" height="25.83"/>
   <rect fill="#000000" transform="matrix(2.94463 -1.70008 1.70008 2.94463 5970.41 6060)" width="25.83" height="25.83"/>
   <rect fill="#FF681C" transform="matrix(2.94463 -1.70008 1.70008 2.94463 4264.93 7146.08)" width="25.83" height="25.83"/>
   <rect fill="#FF7115" transform="matrix(2.94463 -1.70008 1.70008 2.94463 4340.99 7102.17)" width="25.83" height="25.83"/>
   <rect fill="#FF8536" transform="matrix(2.94463 -1.70008 1.70008 2.94463 4417.06 7058.25)" width="25.83" height="25.83"/>
   <rect fill="#FF9754" transform="matrix(2.94463 -1.70008 1.70008 2.94463 4493.1 7014.35)" width="25.83" height="25.83"/>
   <rect fill="#FF9754" transform="matrix(2.94463 -1.70008 1.70008 2.94463 4569.16 6970.44)" width="25.83" height="25.83"/>
   <rect fill="#000000" transform="matrix(2.94463 -1.70008 1.70008 2.94463 4645.23 6926.52)" width="25.83" height="25.83"/>
   <rect fill="#A12000" transform="matrix(2.94463 -1.70008 1.70008 2.94463 4721.29 6882.6)" width="25.83" height="25.83"/>
   <rect fill="#A32100" transform="matrix(2.94463 -1.70008 1.70008 2.94463 4797.36 6838.69)" width="25.83" height="25.83"/>
   <rect fill="#A12000" transform="matrix(2.94463 -1.70008 1.70008 2.94463 4873.43 6794.77)" width="25.83" height="25.83"/>
   <rect fill="#A32100" transform="matrix(2.94463 -1.70008 1.70008 2.94463 4949.46 6750.87)" width="25.83" height="25.83"/>
   <rect fill="#A12000" transform="matrix(2.94463 -1.70008 1.70008 2.94463 5025.53 6706.95)" width="25.83" height="25.83"/>
   <rect fill="#A12000" transform="matrix(2.94463 -1.70008 1.70008 2.94463 5101.59 6663.04)" width="25.83" height="25.83"/>
   <rect fill="#000000" transform="matrix(2.94463 -1.70008 1.70008 2.94463 5177.66 6619.12)" width="25.83" height="25.83"/>
   <rect fill="#000000" transform="matrix(2.94463 -1.70008 1.70008 2.94463 5253.72 6575.2)" width="25.83" height="25.83"/>
   <rect fill="#000000" transform="matrix(2.94463 -1.70008 1.70008 2.94463 5329.79 6531.29)" width="25.83" height="25.83"/>
   <rect fill="#000000" transform="matrix(2.94463 -1.70008 1.70008 2.94463 5405.83 6487.39)" width="25.83" height="25.83"/>
   <rect fill="#000000" transform="matrix(2.94463 -1.70008 1.70008 2.94463 5481.89 6443.47)" width="25.83" height="25.83"/>
   <rect fill="#000000" transform="matrix(2.94463 -1.70008 1.70008 2.94463 5557.96 6399.55)" width="25.83" height="25.83"/>
   <rect fill="#000000" transform="matrix(2.94463 -1.70008 1.70008 2.94463 5634.02 6355.64)" width="25.83" height="25.83"/>
   <rect fill="#000000" transform="matrix(2.94463 -1.70008 1.70008 2.94463 5710.09 6311.72)" width="25.83" height="25.83"/>
   <rect fill="#000000" transform="matrix(2.94463 -1.70008 1.70008 2.94463 5786.16 6267.8)" width="25.83" height="25.83"/>
   <rect fill="#FF681C" transform="matrix(2.94463 -1.70008 1.70008 2.94463 4384.91 7178.23)" width="25.83" height="25.83"/>
   <rect fill="#FF7115" transform="matrix(2.94463 -1.70008 1.70008 2.94463 4460.98 7134.32)" width="25.83" height="25.83"/>
   <rect fill="#FF8536" transform="matrix(2.94463 -1.70008 1.70008 2.94463 4537.01 7090.42)" width="25.83" height="25.83"/>
   <rect fill="#FF8536" transform="matrix(2.94463 -1.70008 1.70008 2.94463 4613.08 7046.5)" width="25.83" height="25.83"/>
   <rect fill="#FF8536" transform="matrix(2.94463 -1.70008 1.70008 2.94463 4689.14 7002.58)" width="25.83" height="25.83"/>
   <rect fill="#000000" transform="matrix(2.94463 -1.70008 1.70008 2.94463 4765.21 6958.67)" width="25.83" height="25.83"/>
   <rect fill="#000000" transform="matrix(2.94463 -1.70008 1.70008 2.94463 4841.28 6914.75)" width="25.83" height="25.83"/>
   <rect fill="#000000" transform="matrix(2.94463 -1.70008 1.70008 2.94463 4917.34 6870.84)" width="25.83" height="25.83"/>
   <rect fill="#000000" transform="matrix(2.94463 -1.70008 1.70008 2.94463 4993.38 6826.94)" width="25.83" height="25.83"/>
   <rect fill="#000000" transform="matrix(2.94463 -1.70008 1.70008 2.94463 5069.44 6783.02)" width="25.83" height="25.83"/>
   <rect fill="#000000" transform="matrix(2.94463 -1.70008 1.70008 2.94463 5145.51 6739.1)" width="25.83" height="25.83"/>
  </g>
  <g id="_1947994281472" style="shape-rendering:crispEdges">
   <rect fill="#000000" x="9059.36" y="5492.48" width="87.83" height="87.83"/>
   <rect fill="#000000" x="9147.19" y="5492.48" width="87.83" height="87.83"/>
   <rect fill="#000000" x="9234.98" y="5492.48" width="87.83" height="87.83"/>
   <rect fill="#000000" x="9322.81" y="5492.48" width="87.83" height="87.83"/>
   <rect fill="#000000" x="9410.63" y="5492.48" width="87.83" height="87.83"/>
   <rect fill="#000000" x="9498.46" y="5492.48" width="87.83" height="87.83"/>
   <rect fill="#000000" x="9586.28" y="5492.48" width="87.83" height="87.83"/>
   <rect fill="#000000" x="9761.9" y="5492.48" width="87.83" height="87.83"/>
   <rect fill="#000000" x="9849.73" y="5492.48" width="87.83" height="87.83"/>
   <rect fill="#000000" x="8708.06" y="5580.3" width="87.83" height="87.83"/>
   <rect fill="#000000" x="8795.88" y="5580.3" width="87.83" height="87.83"/>
   <rect fill="#000000" x="8883.71" y="5580.3" width="87.83" height="87.83"/>
   <rect fill="#000000" x="8971.54" y="5580.3" width="87.83" height="87.83"/>
   <rect fill="#6B6B6B" x="9059.36" y="5580.3" width="87.83" height="87.83"/>
   <rect fill="#213F25" x="9147.19" y="5580.3" width="87.83" height="87.83"/>
   <rect fill="#707070" x="9234.98" y="5580.3" width="87.83" height="87.83"/>
   <rect fill="#707070" x="9322.81" y="5580.3" width="87.83" height="87.83"/>
   <rect fill="#6B6B6B" x="9410.63" y="5580.3" width="87.83" height="87.83"/>
   <rect fill="#707070" x="9498.46" y="5580.3" width="87.83" height="87.83"/>
   <rect fill="#707070" x="9586.28" y="5580.3" width="87.83" height="87.83"/>
   <rect fill="#000000" x="9674.11" y="5580.3" width="87.83" height="87.83"/>
   <rect fill="#707070" x="9761.9" y="5580.3" width="87.83" height="87.83"/>
   <rect fill="#707070" x="9849.73" y="5580.3" width="87.83" height="87.83"/>
   <rect fill="#000000" x="9937.56" y="5580.3" width="87.83" height="87.83"/>
   <rect fill="#000000" x="10025.38" y="5580.3" width="87.83" height="87.83"/>
   <rect fill="#000000" x="10113.21" y="5580.3" width="87.83" height="87.83"/>
   <rect fill="#000000" x="10201.03" y="5580.3" width="87.83" height="87.83"/>
   <rect fill="#000000" x="8444.61" y="5668.13" width="87.83" height="87.83"/>
   <rect fill="#000000" x="8532.44" y="5668.13" width="87.83" height="87.83"/>
   <rect fill="#000000" x="8620.26" y="5668.13" width="87.83" height="87.83"/>
   <rect fill="#6B6B6B" x="8708.06" y="5668.13" width="87.83" height="87.83"/>
   <rect fill="#707070" x="8795.88" y="5668.13" width="87.83" height="87.83"/>
   <rect fill="#6B6B6B" x="8883.71" y="5668.13" width="87.83" height="87.83"/>
   <rect fill="#707070" x="8971.54" y="5668.13" width="87.83" height="87.83"/>
   <rect fill="#707070" x="9059.36" y="5668.13" width="87.83" height="87.83"/>
   <rect fill="#707070" x="9147.19" y="5668.13" width="87.83" height="87.83"/>
   <rect fill="#304333" x="9234.98" y="5668.13" width="87.83" height="87.83"/>
   <rect fill="#707070" x="9322.81" y="5668.13" width="87.83" height="87.83"/>
   <rect fill="#707070" x="9410.63" y="5668.13" width="87.83" height="87.83"/>
   <rect fill="#6B6B6B" x="9498.46" y="5668.13" width="87.83" height="87.83"/>
   <rect fill="#6B6B6B" x="9586.28" y="5668.13" width="87.83" height="87.83"/>
   <rect fill="#707070" x="9674.11" y="5668.13" width="87.83" height="87.83"/>
   <rect fill="#707070" x="9761.9" y="5668.13" width="87.83" height="87.83"/>
   <rect fill="#6B6B6B" x="9849.73" y="5668.13" width="87.83" height="87.83"/>
   <rect fill="#6B6B6B" x="9937.56" y="5668.13" width="87.83" height="87.83"/>
   <rect fill="#707070" x="10025.38" y="5668.13" width="87.83" height="87.83"/>
   <rect fill="#707070" x="10113.21" y="5668.13" width="87.83" height="87.83"/>
   <rect fill="#1E3121" x="10201.03" y="5668.13" width="87.83" height="87.83"/>
   <rect fill="#000000" x="10288.83" y="5668.13" width="87.83" height="87.83"/>
   <rect fill="#000000" x="10464.48" y="5668.13" width="87.83" height="87.83"/>
   <rect fill="#000000" x="8356.79" y="5755.95" width="87.83" height="87.83"/>
   <rect fill="#707070" x="8444.61" y="5755.95" width="87.83" height="87.83"/>
   <rect fill="#6B6B6B" x="8532.44" y="5755.95" width="87.83" height="87.83"/>
   <rect fill="#707070" x="8620.26" y="5755.95" width="87.83" height="87.83"/>
   <rect fill="#1E3121" x="8708.06" y="5755.95" width="87.83" height="87.83"/>
   <rect fill="#707070" x="8795.88" y="5755.95" width="87.83" height="87.83"/>
   <rect fill="#6B6B6B" x="8883.71" y="5755.95" width="87.83" height="87.83"/>
   <rect fill="#363636" x="8971.54" y="5755.95" width="87.83" height="87.83"/>
   <rect fill="#6B6B6B" x="9059.36" y="5755.95" width="87.83" height="87.83"/>
   <rect fill="#6B6B6B" x="9147.19" y="5755.95" width="87.83" height="87.83"/>
   <rect fill="#707070" x="9234.98" y="5755.95" width="87.83" height="87.83"/>
   <rect fill="#6B6B6B" x="9322.81" y="5755.95" width="87.83" height="87.83"/>
   <rect fill="#6B6B6B" x="9410.63" y="5755.95" width="87.83" height="87.83"/>
   <rect fill="#26482B" x="9498.46" y="5755.95" width="87.83" height="87.83"/>
   <rect fill="#213F25" x="9586.28" y="5755.95" width="87.83" height="87.83"/>
   <rect fill="#6B6B6B" x="9674.11" y="5755.95" width="87.83" height="87.83"/>
   <rect fill="#707070" x="9761.9" y="5755.95" width="87.83" height="87.83"/>
   <rect fill="#6B6B6B" x="9849.73" y="5755.95" width="87.83" height="87.83"/>
   <rect fill="#707070" x="9937.56" y="5755.95" width="87.83" height="87.83"/>
   <rect fill="#797979" x="10025.38" y="5755.95" width="87.83" height="87.83"/>
   <rect fill="#213F25" x="10113.21" y="5755.95" width="87.83" height="87.83"/>
   <rect fill="#6B6B6B" x="10201.03" y="5755.95" width="87.83" height="87.83"/>
   <rect fill="#707070" x="10288.83" y="5755.95" width="87.83" height="87.83"/>
   <rect fill="#000000" x="10376.65" y="5755.95" width="87.83" height="87.83"/>
   <rect fill="#6B6B6B" x="10464.48" y="5755.95" width="87.83" height="87.83"/>
   <rect fill="#000000" x="10552.3" y="5755.95" width="87.83" height="87.83"/>
   <rect fill="#000000" x="8356.79" y="5843.78" width="87.83" height="87.83"/>
   <rect fill="#6B6B6B" x="8444.61" y="5843.78" width="87.83" height="87.83"/>
   <rect fill="#6B6B6B" x="8532.44" y="5843.78" width="87.83" height="87.83"/>
   <rect fill="#707070" x="8620.26" y="5843.78" width="87.83" height="87.83"/>
   <rect fill="#6B6B6B" x="8708.06" y="5843.78" width="87.83" height="87.83"/>
   <rect fill="#304333" x="8795.88" y="5843.78" width="87.83" height="87.83"/>
   <rect fill="#363636" x="8883.71" y="5843.78" width="87.83" height="87.83"/>
   <rect fill="#363636" x="8971.54" y="5843.78" width="87.83" height="87.83"/>
   <rect fill="#313131" x="9059.36" y="5843.78" width="87.83" height="87.83"/>
   <rect fill="#363636" x="9147.19" y="5843.78" width="87.83" height="87.83"/>
   <rect fill="#3A3A3A" x="9234.98" y="5843.78" width="87.83" height="87.83"/>
   <rect fill="#363636" x="9322.81" y="5843.78" width="87.83" height="87.83"/>
   <rect fill="#313131" x="9410.63" y="5843.78" width="87.83" height="87.83"/>
   <rect fill="#363636" x="9498.46" y="5843.78" width="87.83" height="87.83"/>
   <rect fill="#363636" x="9586.28" y="5843.78" width="87.83" height="87.83"/>
   <rect fill="#1E3121" x="9674.11" y="5843.78" width="87.83" height="87.83"/>
   <rect fill="#363636" x="9761.9" y="5843.78" width="87.83" height="87.83"/>
   <rect fill="#363636" x="9849.73" y="5843.78" width="87.83" height="87.83"/>
   <rect fill="#363636" x="9937.56" y="5843.78" width="87.83" height="87.83"/>
   <rect fill="#313131" x="10025.38" y="5843.78" width="87.83" height="87.83"/>
   <rect fill="#304333" x="10113.21" y="5843.78" width="87.83" height="87.83"/>
   <rect fill="#707070" x="10201.03" y="5843.78" width="87.83" height="87.83"/>
   <rect fill="#6B6B6B" x="10288.83" y="5843.78" width="87.83" height="87.83"/>
   <rect fill="#707070" x="10376.65" y="5843.78" width="87.83" height="87.83"/>
   <rect fill="#6B6B6B" x="10464.48" y="5843.78" width="87.83" height="87.83"/>
   <rect fill="#000000" x="10552.3" y="5843.78" width="87.83" height="87.83"/>
   <rect fill="#000000" x="8444.61" y="5931.6" width="87.83" height="87.83"/>
   <rect fill="#6B6B6B" x="8532.44" y="5931.6" width="87.83" height="87.83"/>
   <rect fill="#6B6B6B" x="8620.26" y="5931.6" width="87.83" height="87.83"/>
   <rect fill="#363636" x="8708.06" y="5931.6" width="87.83" height="87.83"/>
   <rect fill="#213F25" x="8795.88" y="5931.6" width="87.83" height="87.83"/>
   <rect fill="#3A3A3A" x="8883.71" y="5931.6" width="87.83" height="87.83"/>
   <rect fill="#000000" x="8971.54" y="5931.6" width="87.83" height="87.83"/>
   <rect fill="#363636" x="9059.36" y="5931.6" width="87.83" height="87.83"/>
   <rect fill="#000000" x="9147.19" y="5931.6" width="87.83" height="87.83"/>
   <rect fill="#000000" x="9234.98" y="5931.6" width="87.83" height="87.83"/>
   <rect fill="#000000" x="9322.81" y="5931.6" width="87.83" height="87.83"/>
   <rect fill="#000000" x="9410.63" y="5931.6" width="87.83" height="87.83"/>
   <rect fill="#000000" x="9498.46" y="5931.6" width="87.83" height="87.83"/>
   <rect fill="#000000" x="9586.28" y="5931.6" width="87.83" height="87.83"/>
   <rect fill="#000000" x="9674.11" y="5931.6" width="87.83" height="87.83"/>
   <rect fill="#000000" x="9761.9" y="5931.6" width="87.83" height="87.83"/>
   <rect fill="#313131" x="9849.73" y="5931.6" width="87.83" height="87.83"/>
   <rect fill="#363636" x="9937.56" y="5931.6" width="87.83" height="87.83"/>
   <rect fill="#363636" x="10025.38" y="5931.6" width="87.83" height="87.83"/>
   <rect fill="#363636" x="10113.21" y="5931.6" width="87.83" height="87.83"/>
   <rect fill="#1E3121" x="10201.03" y="5931.6" width="87.83" height="87.83"/>
   <rect fill="#707070" x="10288.83" y="5931.6" width="87.83" height="87.83"/>
   <rect fill="#6B6B6B" x="10376.65" y="5931.6" width="87.83" height="87.83"/>
   <rect fill="#000000" x="10464.48" y="5931.6" width="87.83" height="87.83"/>
   <rect fill="#000000" x="8532.44" y="6019.4" width="87.83" height="87.83"/>
   <rect fill="#313131" x="8620.26" y="6019.4" width="87.83" height="87.83"/>
   <rect fill="#313131" x="8708.06" y="6019.4" width="87.83" height="87.83"/>
   <rect fill="#363636" x="8795.88" y="6019.4" width="87.83" height="87.83"/>
   <rect fill="#000000" x="8883.71" y="6019.4" width="87.83" height="87.83"/>
   <rect fill="#000000" x="9059.36" y="6019.4" width="87.83" height="87.83"/>
   <rect fill="#000000" x="9849.73" y="6019.4" width="87.83" height="87.83"/>
   <rect fill="#000000" x="9937.56" y="6019.4" width="87.83" height="87.83"/>
   <rect fill="#000000" x="10025.38" y="6019.4" width="87.83" height="87.83"/>
   <rect fill="#000000" x="10113.21" y="6019.4" width="87.83" height="87.83"/>
   <rect fill="#363636" x="10201.03" y="6019.4" width="87.83" height="87.83"/>
   <rect fill="#213F25" x="10288.83" y="6019.4" width="87.83" height="87.83"/>
   <rect fill="#000000" x="10376.65" y="6019.4" width="87.83" height="87.83"/>
   <rect fill="#000000" x="8620.26" y="6107.22" width="87.83" height="87.83"/>
   <rect fill="#000000" x="8708.06" y="6107.22" width="87.83" height="87.83"/>
   <rect fill="#000000" x="8795.88" y="6107.22" width="87.83" height="87.83"/>
   <rect fill="#000000" x="10201.03" y="6107.22" width="87.83" height="87.83"/>
   <rect fill="#000000" x="10288.83" y="6107.22" width="87.83" height="87.83"/>
  </g>
  <g id="_1947995258304" style="shape-rendering:crispEdges">
   <rect fill="#000000" x="8259.86" y="797.62" width="87.84" height="87.84"/>
   <rect fill="#000000" x="8347.7" y="797.62" width="87.84" height="87.84"/>
   <rect fill="#000000" x="8435.54" y="797.62" width="87.84" height="87.84"/>
   <rect fill="#000000" x="8523.37" y="797.62" width="87.84" height="87.84"/>
   <rect fill="#000000" x="8084.22" y="885.46" width="87.84" height="87.84"/>
   <rect fill="#000000" x="8172.06" y="885.46" width="87.84" height="87.84"/>
   <rect fill="#463D38" x="8259.86" y="885.46" width="87.84" height="87.84"/>
   <rect fill="#473C35" x="8347.7" y="885.46" width="87.84" height="87.84"/>
   <rect fill="#483E38" x="8435.54" y="885.46" width="87.84" height="87.84"/>
   <rect fill="#463D38" x="8523.37" y="885.46" width="87.84" height="87.84"/>
   <rect fill="#000000" x="8611.21" y="885.46" width="87.84" height="87.84"/>
   <rect fill="#000000" x="7996.39" y="973.29" width="87.84" height="87.84"/>
   <rect fill="#473C35" x="8084.22" y="973.29" width="87.84" height="87.84"/>
   <rect fill="#483E38" x="8172.06" y="973.29" width="87.84" height="87.84"/>
   <rect fill="#483D36" x="8259.86" y="973.29" width="87.84" height="87.84"/>
   <rect fill="#483D36" x="8347.7" y="973.29" width="87.84" height="87.84"/>
   <rect fill="#463D38" x="8435.54" y="973.29" width="87.84" height="87.84"/>
   <rect fill="#483D36" x="8523.37" y="973.29" width="87.84" height="87.84"/>
   <rect fill="#463D38" x="8611.21" y="973.29" width="87.84" height="87.84"/>
   <rect fill="#000000" x="8699.05" y="973.29" width="87.84" height="87.84"/>
   <rect fill="#000000" x="8786.85" y="973.29" width="87.84" height="87.84"/>
   <rect fill="#000000" x="8874.69" y="973.29" width="87.84" height="87.84"/>
   <rect fill="#000000" x="7908.55" y="1061.13" width="87.84" height="87.84"/>
   <rect fill="#483D36" x="7996.39" y="1061.13" width="87.84" height="87.84"/>
   <rect fill="#483E38" x="8084.22" y="1061.13" width="87.84" height="87.84"/>
   <rect fill="#413832" x="8172.06" y="1061.13" width="87.84" height="87.84"/>
   <rect fill="#443A35" x="8259.86" y="1061.13" width="87.84" height="87.84"/>
   <rect fill="#473C35" x="8347.7" y="1061.13" width="87.84" height="87.84"/>
   <rect fill="#483D36" x="8435.54" y="1061.13" width="87.84" height="87.84"/>
   <rect fill="#473C35" x="8523.37" y="1061.13" width="87.84" height="87.84"/>
   <rect fill="#483D36" x="8611.21" y="1061.13" width="87.84" height="87.84"/>
   <rect fill="#473C35" x="8699.05" y="1061.13" width="87.84" height="87.84"/>
   <rect fill="#463D38" x="8786.85" y="1061.13" width="87.84" height="87.84"/>
   <rect fill="#483D36" x="8874.69" y="1061.13" width="87.84" height="87.84"/>
   <rect fill="#000000" x="8962.52" y="1061.13" width="87.84" height="87.84"/>
   <rect fill="#000000" x="7820.72" y="1148.97" width="87.84" height="87.84"/>
   <rect fill="#483E38" x="7908.55" y="1148.97" width="87.84" height="87.84"/>
   <rect fill="#483E38" x="7996.39" y="1148.97" width="87.84" height="87.84"/>
   <rect fill="#413833" x="8084.22" y="1148.97" width="87.84" height="87.84"/>
   <rect fill="#312B27" x="8172.06" y="1148.97" width="87.84" height="87.84"/>
   <rect fill="#312A26" x="8259.86" y="1148.97" width="87.84" height="87.84"/>
   <rect fill="#413833" x="8347.7" y="1148.97" width="87.84" height="87.84"/>
   <rect fill="#473C35" x="8435.54" y="1148.97" width="87.84" height="87.84"/>
   <rect fill="#483D36" x="8523.37" y="1148.97" width="87.84" height="87.84"/>
   <rect fill="#473C35" x="8611.21" y="1148.97" width="87.84" height="87.84"/>
   <rect fill="#483E38" x="8699.05" y="1148.97" width="87.84" height="87.84"/>
   <rect fill="#463D38" x="8786.85" y="1148.97" width="87.84" height="87.84"/>
   <rect fill="#483D36" x="8874.69" y="1148.97" width="87.84" height="87.84"/>
   <rect fill="#463D38" x="8962.52" y="1148.97" width="87.84" height="87.84"/>
   <rect fill="#000000" x="9050.36" y="1148.97" width="87.84" height="87.84"/>
   <rect fill="#000000" x="7820.72" y="1236.8" width="87.84" height="87.84"/>
   <rect fill="#483D36" x="7908.55" y="1236.8" width="87.84" height="87.84"/>
   <rect fill="#413833" x="7996.39" y="1236.8" width="87.84" height="87.84"/>
   <rect fill="#312B27" x="8084.22" y="1236.8" width="87.84" height="87.84"/>
   <rect fill="#312B27" x="8172.06" y="1236.8" width="87.84" height="87.84"/>
   <rect fill="#312A26" x="8259.86" y="1236.8" width="87.84" height="87.84"/>
   <rect fill="#312A26" x="8347.7" y="1236.8" width="87.84" height="87.84"/>
   <rect fill="#413833" x="8435.54" y="1236.8" width="87.84" height="87.84"/>
   <rect fill="#473C35" x="8523.37" y="1236.8" width="87.84" height="87.84"/>
   <rect fill="#483D36" x="8611.21" y="1236.8" width="87.84" height="87.84"/>
   <rect fill="#483D36" x="8699.05" y="1236.8" width="87.84" height="87.84"/>
   <rect fill="#483E38" x="8786.85" y="1236.8" width="87.84" height="87.84"/>
   <rect fill="#483D36" x="8874.69" y="1236.8" width="87.84" height="87.84"/>
   <rect fill="#483D36" x="8962.52" y="1236.8" width="87.84" height="87.84"/>
   <rect fill="#000000" x="9050.36" y="1236.8" width="87.84" height="87.84"/>
   <rect fill="#000000" x="7820.72" y="1324.61" width="87.84" height="87.84"/>
   <rect fill="#463D38" x="7908.55" y="1324.61" width="87.84" height="87.84"/>
   <rect fill="#443A35" x="7996.39" y="1324.61" width="87.84" height="87.84"/>
   <rect fill="#312A26" x="8084.22" y="1324.61" width="87.84" height="87.84"/>
   <rect fill="#312B27" x="8172.06" y="1324.61" width="87.84" height="87.84"/>
   <rect fill="#312B27" x="8259.86" y="1324.61" width="87.84" height="87.84"/>
   <rect fill="#312B27" x="8347.7" y="1324.61" width="87.84" height="87.84"/>
   <rect fill="#443C36" x="8435.54" y="1324.61" width="87.84" height="87.84"/>
   <rect fill="#483E38" x="8523.37" y="1324.61" width="87.84" height="87.84"/>
   <rect fill="#483E38" x="8611.21" y="1324.61" width="87.84" height="87.84"/>
   <rect fill="#473C35" x="8699.05" y="1324.61" width="87.84" height="87.84"/>
   <rect fill="#423832" x="8786.85" y="1324.61" width="87.84" height="87.84"/>
   <rect fill="#423832" x="8874.69" y="1324.61" width="87.84" height="87.84"/>
   <rect fill="#483E37" x="8962.52" y="1324.61" width="87.84" height="87.84"/>
   <rect fill="#000000" x="9050.36" y="1324.61" width="87.84" height="87.84"/>
   <rect fill="#000000" x="7732.88" y="1412.44" width="87.84" height="87.84"/>
   <rect fill="#463D38" x="7820.72" y="1412.44" width="87.84" height="87.84"/>
   <rect fill="#483D36" x="7908.55" y="1412.44" width="87.84" height="87.84"/>
   <rect fill="#473C35" x="7996.39" y="1412.44" width="87.84" height="87.84"/>
   <rect fill="#423832" x="8084.22" y="1412.44" width="87.84" height="87.84"/>
   <rect fill="#312B27" x="8172.06" y="1412.44" width="87.84" height="87.84"/>
   <rect fill="#312A26" x="8259.86" y="1412.44" width="87.84" height="87.84"/>
   <rect fill="#423832" x="8347.7" y="1412.44" width="87.84" height="87.84"/>
   <rect fill="#483E38" x="8435.54" y="1412.44" width="87.84" height="87.84"/>
   <rect fill="#483D36" x="8523.37" y="1412.44" width="87.84" height="87.84"/>
   <rect fill="#473C35" x="8611.21" y="1412.44" width="87.84" height="87.84"/>
   <rect fill="#423832" x="8699.05" y="1412.44" width="87.84" height="87.84"/>
   <rect fill="#312B27" x="8786.85" y="1412.44" width="87.84" height="87.84"/>
   <rect fill="#312B27" x="8874.69" y="1412.44" width="87.84" height="87.84"/>
   <rect fill="#463D38" x="8962.52" y="1412.44" width="87.84" height="87.84"/>
   <rect fill="#483E37" x="9050.36" y="1412.44" width="87.84" height="87.84"/>
   <rect fill="#000000" x="9138.19" y="1412.44" width="87.84" height="87.84"/>
   <rect fill="#000000" x="7732.88" y="1500.28" width="87.84" height="87.84"/>
   <rect fill="#483D36" x="7820.72" y="1500.28" width="87.84" height="87.84"/>
   <rect fill="#483D36" x="7908.55" y="1500.28" width="87.84" height="87.84"/>
   <rect fill="#483D36" x="7996.39" y="1500.28" width="87.84" height="87.84"/>
   <rect fill="#473C35" x="8084.22" y="1500.28" width="87.84" height="87.84"/>
   <rect fill="#463D38" x="8172.06" y="1500.28" width="87.84" height="87.84"/>
   <rect fill="#413833" x="8259.86" y="1500.28" width="87.84" height="87.84"/>
   <rect fill="#483E38" x="8347.7" y="1500.28" width="87.84" height="87.84"/>
   <rect fill="#473C35" x="8435.54" y="1500.28" width="87.84" height="87.84"/>
   <rect fill="#463D38" x="8523.37" y="1500.28" width="87.84" height="87.84"/>
   <rect fill="#423832" x="8611.21" y="1500.28" width="87.84" height="87.84"/>
   <rect fill="#312B27" x="8699.05" y="1500.28" width="87.84" height="87.84"/>
   <rect fill="#312A26" x="8786.85" y="1500.28" width="87.84" height="87.84"/>
   <rect fill="#312A26" x="8874.69" y="1500.28" width="87.84" height="87.84"/>
   <rect fill="#413832" x="8962.52" y="1500.28" width="87.84" height="87.84"/>
   <rect fill="#483E37" x="9050.36" y="1500.28" width="87.84" height="87.84"/>
   <rect fill="#463D38" x="9138.19" y="1500.28" width="87.84" height="87.84"/>
   <rect fill="#000000" x="9226.03" y="1500.28" width="87.84" height="87.84"/>
   <rect fill="#000000" x="7732.88" y="1588.11" width="87.84" height="87.84"/>
   <rect fill="#483D36" x="7820.72" y="1588.11" width="87.84" height="87.84"/>
   <rect fill="#473C35" x="7908.55" y="1588.11" width="87.84" height="87.84"/>
   <rect fill="#463D38" x="7996.39" y="1588.11" width="87.84" height="87.84"/>
   <rect fill="#483E38" x="8084.22" y="1588.11" width="87.84" height="87.84"/>
   <rect fill="#483D36" x="8172.06" y="1588.11" width="87.84" height="87.84"/>
   <rect fill="#483E38" x="8259.86" y="1588.11" width="87.84" height="87.84"/>
   <rect fill="#473C35" x="8347.7" y="1588.11" width="87.84" height="87.84"/>
   <rect fill="#483D36" x="8435.54" y="1588.11" width="87.84" height="87.84"/>
   <rect fill="#473C35" x="8523.37" y="1588.11" width="87.84" height="87.84"/>
   <rect fill="#423832" x="8611.21" y="1588.11" width="87.84" height="87.84"/>
   <rect fill="#312B27" x="8699.05" y="1588.11" width="87.84" height="87.84"/>
   <rect fill="#312A26" x="8786.85" y="1588.11" width="87.84" height="87.84"/>
   <rect fill="#312A26" x="8874.69" y="1588.11" width="87.84" height="87.84"/>
   <rect fill="#312B27" x="8962.52" y="1588.11" width="87.84" height="87.84"/>
   <rect fill="#443C36" x="9050.36" y="1588.11" width="87.84" height="87.84"/>
   <rect fill="#483D36" x="9138.19" y="1588.11" width="87.84" height="87.84"/>
   <rect fill="#000000" x="9226.03" y="1588.11" width="87.84" height="87.84"/>
   <rect fill="#000000" x="7732.88" y="1675.95" width="87.84" height="87.84"/>
   <rect fill="#463D38" x="7820.72" y="1675.95" width="87.84" height="87.84"/>
   <rect fill="#483D36" x="7908.55" y="1675.95" width="87.84" height="87.84"/>
   <rect fill="#483D36" x="7996.39" y="1675.95" width="87.84" height="87.84"/>
   <rect fill="#473C35" x="8084.22" y="1675.95" width="87.84" height="87.84"/>
   <rect fill="#483E38" x="8172.06" y="1675.95" width="87.84" height="87.84"/>
   <rect fill="#463D38" x="8259.86" y="1675.95" width="87.84" height="87.84"/>
   <rect fill="#483E38" x="8347.7" y="1675.95" width="87.84" height="87.84"/>
   <rect fill="#483E38" x="8435.54" y="1675.95" width="87.84" height="87.84"/>
   <rect fill="#463D38" x="8523.37" y="1675.95" width="87.84" height="87.84"/>
   <rect fill="#483D36" x="8611.21" y="1675.95" width="87.84" height="87.84"/>
   <rect fill="#423832" x="8699.05" y="1675.95" width="87.84" height="87.84"/>
   <rect fill="#312B27" x="8786.85" y="1675.95" width="87.84" height="87.84"/>
   <rect fill="#312B27" x="8874.69" y="1675.95" width="87.84" height="87.84"/>
   <rect fill="#423832" x="8962.52" y="1675.95" width="87.84" height="87.84"/>
   <rect fill="#413832" x="9050.36" y="1675.95" width="87.84" height="87.84"/>
   <rect fill="#483D36" x="9138.19" y="1675.95" width="87.84" height="87.84"/>
   <rect fill="#000000" x="9226.03" y="1675.95" width="87.84" height="87.84"/>
   <rect fill="#000000" x="7732.88" y="1763.79" width="87.84" height="87.84"/>
   <rect fill="#483D36" x="7820.72" y="1763.79" width="87.84" height="87.84"/>
   <rect fill="#473C35" x="7908.55" y="1763.79" width="87.84" height="87.84"/>
   <rect fill="#483D36" x="7996.39" y="1763.79" width="87.84" height="87.84"/>
   <rect fill="#483E38" x="8084.22" y="1763.79" width="87.84" height="87.84"/>
   <rect fill="#463D38" x="8172.06" y="1763.79" width="87.84" height="87.84"/>
   <rect fill="#423933" x="8259.86" y="1763.79" width="87.84" height="87.84"/>
   <rect fill="#312B27" x="8347.7" y="1763.79" width="87.84" height="87.84"/>
   <rect fill="#423832" x="8435.54" y="1763.79" width="87.84" height="87.84"/>
   <rect fill="#443C36" x="8523.37" y="1763.79" width="87.84" height="87.84"/>
   <rect fill="#483D36" x="8611.21" y="1763.79" width="87.84" height="87.84"/>
   <rect fill="#483D36" x="8699.05" y="1763.79" width="87.84" height="87.84"/>
   <rect fill="#413832" x="8786.85" y="1763.79" width="87.84" height="87.84"/>
   <rect fill="#443C36" x="8874.69" y="1763.79" width="87.84" height="87.84"/>
   <rect fill="#483D36" x="8962.52" y="1763.79" width="87.84" height="87.84"/>
   <rect fill="#483D36" x="9050.36" y="1763.79" width="87.84" height="87.84"/>
   <rect fill="#483D36" x="9138.19" y="1763.79" width="87.84" height="87.84"/>
   <rect fill="#000000" x="9226.03" y="1763.79" width="87.84" height="87.84"/>
   <rect fill="#000000" x="7820.72" y="1851.59" width="87.84" height="87.84"/>
   <rect fill="#483D36" x="7908.55" y="1851.59" width="87.84" height="87.84"/>
   <rect fill="#473C35" x="7996.39" y="1851.59" width="87.84" height="87.84"/>
   <rect fill="#473C35" x="8084.22" y="1851.59" width="87.84" height="87.84"/>
   <rect fill="#423933" x="8172.06" y="1851.59" width="87.84" height="87.84"/>
   <rect fill="#312B27" x="8259.86" y="1851.59" width="87.84" height="87.84"/>
   <rect fill="#312A26" x="8347.7" y="1851.59" width="87.84" height="87.84"/>
   <rect fill="#312A26" x="8435.54" y="1851.59" width="87.84" height="87.84"/>
   <rect fill="#312B27" x="8523.37" y="1851.59" width="87.84" height="87.84"/>
   <rect fill="#413832" x="8611.21" y="1851.59" width="87.84" height="87.84"/>
   <rect fill="#483D36" x="8699.05" y="1851.59" width="87.84" height="87.84"/>
   <rect fill="#483D36" x="8786.85" y="1851.59" width="87.84" height="87.84"/>
   <rect fill="#483D36" x="8874.69" y="1851.59" width="87.84" height="87.84"/>
   <rect fill="#483D36" x="8962.52" y="1851.59" width="87.84" height="87.84"/>
   <rect fill="#483D36" x="9050.36" y="1851.59" width="87.84" height="87.84"/>
   <rect fill="#000000" x="9138.19" y="1851.59" width="87.84" height="87.84"/>
   <rect fill="#000000" x="7820.72" y="1939.43" width="87.84" height="87.84"/>
   <rect fill="#463D38" x="7908.55" y="1939.43" width="87.84" height="87.84"/>
   <rect fill="#463D38" x="7996.39" y="1939.43" width="87.84" height="87.84"/>
   <rect fill="#473C35" x="8084.22" y="1939.43" width="87.84" height="87.84"/>
   <rect fill="#443C36" x="8172.06" y="1939.43" width="87.84" height="87.84"/>
   <rect fill="#312A26" x="8259.86" y="1939.43" width="87.84" height="87.84"/>
   <rect fill="#312A26" x="8347.7" y="1939.43" width="87.84" height="87.84"/>
   <rect fill="#312A26" x="8435.54" y="1939.43" width="87.84" height="87.84"/>
   <rect fill="#312B27" x="8523.37" y="1939.43" width="87.84" height="87.84"/>
   <rect fill="#443C36" x="8611.21" y="1939.43" width="87.84" height="87.84"/>
   <rect fill="#483E37" x="8699.05" y="1939.43" width="87.84" height="87.84"/>
   <rect fill="#483D36" x="8786.85" y="1939.43" width="87.84" height="87.84"/>
   <rect fill="#483D36" x="8874.69" y="1939.43" width="87.84" height="87.84"/>
   <rect fill="#483D36" x="8962.52" y="1939.43" width="87.84" height="87.84"/>
   <rect fill="#483E37" x="9050.36" y="1939.43" width="87.84" height="87.84"/>
   <rect fill="#000000" x="9138.19" y="1939.43" width="87.84" height="87.84"/>
   <rect fill="#000000" x="7908.55" y="2027.26" width="87.84" height="87.84"/>
   <rect fill="#483D36" x="7996.39" y="2027.26" width="87.84" height="87.84"/>
   <rect fill="#473C35" x="8084.22" y="2027.26" width="87.84" height="87.84"/>
   <rect fill="#463D38" x="8172.06" y="2027.26" width="87.84" height="87.84"/>
   <rect fill="#413832" x="8259.86" y="2027.26" width="87.84" height="87.84"/>
   <rect fill="#312B27" x="8347.7" y="2027.26" width="87.84" height="87.84"/>
   <rect fill="#312A26" x="8435.54" y="2027.26" width="87.84" height="87.84"/>
   <rect fill="#413832" x="8523.37" y="2027.26" width="87.84" height="87.84"/>
   <rect fill="#483D36" x="8611.21" y="2027.26" width="87.84" height="87.84"/>
   <rect fill="#483D36" x="8699.05" y="2027.26" width="87.84" height="87.84"/>
   <rect fill="#463D38" x="8786.85" y="2027.26" width="87.84" height="87.84"/>
   <rect fill="#483D36" x="8874.69" y="2027.26" width="87.84" height="87.84"/>
   <rect fill="#483D36" x="8962.52" y="2027.26" width="87.84" height="87.84"/>
   <rect fill="#000000" x="9050.36" y="2027.26" width="87.84" height="87.84"/>
   <rect fill="#000000" x="7996.39" y="2115.1" width="87.84" height="87.84"/>
   <rect fill="#473C35" x="8084.22" y="2115.1" width="87.84" height="87.84"/>
   <rect fill="#463D38" x="8172.06" y="2115.1" width="87.84" height="87.84"/>
   <rect fill="#483D36" x="8259.86" y="2115.1" width="87.84" height="87.84"/>
   <rect fill="#483D36" x="8347.7" y="2115.1" width="87.84" height="87.84"/>
   <rect fill="#483E37" x="8435.54" y="2115.1" width="87.84" height="87.84"/>
   <rect fill="#483D36" x="8523.37" y="2115.1" width="87.84" height="87.84"/>
   <rect fill="#463D38" x="8611.21" y="2115.1" width="87.84" height="87.84"/>
   <rect fill="#483E37" x="8699.05" y="2115.1" width="87.84" height="87.84"/>
   <rect fill="#483D36" x="8786.85" y="2115.1" width="87.84" height="87.84"/>
   <rect fill="#000000" x="8874.69" y="2115.1" width="87.84" height="87.84"/>
   <rect fill="#000000" x="8962.52" y="2115.1" width="87.84" height="87.84"/>
   <rect fill="#000000" x="8084.22" y="2202.94" width="87.84" height="87.84"/>
   <rect fill="#000000" x="8172.06" y="2202.94" width="87.84" height="87.84"/>
   <rect fill="#000000" x="8259.86" y="2202.94" width="87.84" height="87.84"/>
   <rect fill="#463D38" x="8347.7" y="2202.94" width="87.84" height="87.84"/>
   <rect fill="#483D36" x="8435.54" y="2202.94" width="87.84" height="87.84"/>
   <rect fill="#483D36" x="8523.37" y="2202.94" width="87.84" height="87.84"/>
   <rect fill="#000000" x="8611.21" y="2202.94" width="87.84" height="87.84"/>
   <rect fill="#000000" x="8699.05" y="2202.94" width="87.84" height="87.84"/>
   <rect fill="#000000" x="8786.85" y="2202.94" width="87.84" height="87.84"/>
   <rect fill="#000000" x="8347.7" y="2290.77" width="87.84" height="87.84"/>
   <rect fill="#000000" x="8435.54" y="2290.77" width="87.84" height="87.84"/>
   <rect fill="#000000" x="8523.37" y="2290.77" width="87.84" height="87.84"/>
  </g>
  <polygon fill="#FFFFFF" points="2811.75,4961.98 3032.88,4922.99 3071.88,5144.11 2850.74,5183.1 2629.62,5222.09 2408.47,5261.09 2187.34,5300.08 2148.35,5078.95 2109.35,4857.81 2070.36,4636.69 2031.37,4415.55 1992.38,4194.41 1953.38,3973.28 2174.52,3934.29 2395.66,3895.3 2616.79,3856.31 2837.92,3817.31 2876.91,4038.45 2655.78,4077.44 2434.65,4116.42 2213.51,4155.42 2252.5,4376.56 2473.65,4337.57 2694.77,4298.57 2733.76,4519.71 2512.64,4558.7 2291.5,4597.69 2330.49,4818.82 2369.48,5039.96 2590.62,5000.97 "/>
  <path id="1" fill="#FFFFFF" d="M4177.54 4949.16l-38.98 -221.13 221.13 -38.99 38.99 221.13 -221.14 38.99zm-884.53 155.96l-38.99 -221.12 221.13 -38.99 38.99 221.12 -221.13 38.99zm845.55 -377.09l-221.13 38.99 -38.99 -221.14 221.12 -38.99 39 221.14zm-663.4 116.98l-38.99 -221.14 221.13 -38.99 38.99 221.14 -221.13 38.99zm403.28 -299.13l-221.13 38.99 -38.99 -221.12 221.13 -38.99 38.99 221.12zm-38.99 -221.12l-38.99 -221.13 221.13 -38.99 38.98 221.13 -221.12 38.99zm-221.13 38.99l-221.13 38.99 -38.99 -221.13 221.13 -38.99 38.99 221.13zm403.28 -299.12l-39 -221.13 221.14 -38.99 38.99 221.13 -221.13 38.99zm-663.4 116.98l-221.13 38.99 -38.99 -221.13 221.13 -38.99 38.99 221.13z"/>
  <path id="2" fill="#FFFFFF" d="M4840.94 4832.18l-38.99 -221.13 221.14 -38.99 38.99 221.13 -221.14 38.99zm-38.99 -221.13l-221.12 38.99 -38.99 -221.13 -38.99 -221.13 -38.99 -221.13 -38.99 -221.13 -38.99 -221.13 221.12 -38.99 38.99 221.13 221.14 -38.99 38.99 221.13 -221.14 38.99 38.99 221.13 38.99 221.13 38.99 221.13z"/>
  <path id="3" fill="#FFFFFF" d="M5283.21 4754.2l-38.99 -221.13 -38.99 -221.13 -38.99 -221.13 -38.99 -221.13 221.13 -38.98 38.99 221.12 38.99 221.13 38.99 221.13 38.99 221.13 -221.13 38.99zm-194.96 -1105.67l-38.99 -221.13 221.13 -38.99 38.99 221.13 -221.13 38.99z"/>
  <path id="4" fill="#FFFFFF" d="M6388.88 4559.24l-38.99 -221.13 -38.99 -221.13 -38.99 -221.13 -38.99 -221.12 221.13 -38.99 38.99 221.12 38.99 221.13 38.99 221.13 38.99 221.13 -221.13 38.99zm-663.4 116.98l-38.99 -221.13 -38.99 -221.13 -38.99 -221.13 -38.99 -221.12 -38.99 -221.14 221.13 -38.99 221.13 -38.99 221.13 -38.99 38.99 221.14 -221.12 38.99 -221.14 38.99 38.99 221.12 38.99 221.13 38.99 221.13 38.99 221.13 -221.13 38.99z"/>
  <path id="5" fill="#FFFFFF" d="M7455.56 4143.15l221.13 -38.99 38.98 221.12 -221.12 38.99 -221.13 38.99 -221.13 38.99 -38.99 -221.13 221.13 -38.99 221.13 -38.98zm-442.27 77.97l-221.13 38.99 -38.99 -221.13 -38.99 -221.13 -38.99 -221.12 221.13 -38.99 38.99 221.12 38.99 221.13 38.99 221.13zm286.3 -962.52l221.12 -38.99 39 221.14 -221.13 38.99 -221.13 38.99 -221.13 38.99 -38.99 -221.14 221.13 -38.99 221.13 -38.99z"/>
  <path id="6" fill="#FFFFFF" d="M8157.96 4247.3l-38.99 -221.12 221.13 -38.99 38.99 221.12 -221.13 38.99zm-38.99 -221.12l-221.13 38.99 -38.99 -221.14 -38.99 -221.13 -38.99 -221.12 -38.99 -221.14 -38.99 -221.12 221.13 -38.99 38.99 221.12 221.13 -38.99 38.99 221.14 -221.13 38.99 38.99 221.13 38.99 221.12 38.99 221.14z"/>
  <path id="7" fill="#FFFFFF" d="M8600.23 4169.32l-38.99 -221.12 -38.99 -221.14 -38.99 -221.12 -38.99 -221.13 221.12 -38.99 38.99 221.13 38.99 221.12 38.99 221.14 38.99 221.12 -221.12 38.99zm-194.96 -1105.67l-38.99 -221.12 221.12 -38.99 38.99 221.13 -221.12 38.98z"/>
  <path id="8" fill="#FFFFFF" d="M9445.77 3792.22l221.13 -38.99 38.99 221.12 -221.13 38.99 -221.14 38.99 -38.99 -221.12 221.14 -38.99zm221.13 -38.99l-38.99 -221.14 -38.99 -221.12 -38.99 -221.13 221.12 -38.99 38.99 221.13 38.99 221.12 38.99 221.14 -221.12 38.99zm-442.28 77.98l-221.12 38.99 -38.99 -221.14 -38.99 -221.12 -38.99 -221.13 221.12 -38.99 38.99 221.13 38.99 221.12 38.99 221.14zm325.3 -741.39l-221.13 38.99 -221.14 38.99 -38.99 -221.13 221.14 -39 221.12 -38.98 39 221.13z"/>
  <path id="9" fill="#FFFFFF" d="M10811.56 3779.41l-38.99 -221.13 -38.99 -221.14 -38.99 -221.12 -38.99 -221.13 221.13 -38.99 38.99 221.13 38.99 221.13 38.99 221.13 38.99 221.13 -221.13 38.99zm-663.39 116.97l-38.99 -221.12 -38.99 -221.14 -38.99 -221.12 -38.99 -221.13 -38.99 -221.13 221.12 -38.99 221.14 -38.99 221.12 -38.99 38.99 221.13 -221.12 38.99 -221.14 38.99 38.99 221.13 38.99 221.12 38.99 221.14 38.99 221.13 -221.12 38.98z"/>
 </g>
</svg>
