<?xml version="1.0" encoding="UTF-8"?>
<!DOCTYPE svg PUBLIC "-//W3C//DTD SVG 1.1//EN" "http://www.w3.org/Graphics/SVG/1.1/DTD/svg11.dtd">
<!-- Creator: CorelDRAW 2019 (64-Bit Keine kommerzielle Nutzung) -->
<svg xmlns="http://www.w3.org/2000/svg" xml:space="preserve" width="130mm" height="81.2501mm" version="1.1" style="shape-rendering:geometricPrecision; text-rendering:geometricPrecision; image-rendering:optimizeQuality; fill-rule:evenodd; clip-rule:evenodd"
viewBox="0 0 12691.48 7932.18">
 <defs>
  <style type="text/css">
  </style>
 </defs>
 <g id="Ebene_x0020_1">
  <metadata id="CorelCorpID_0Corel-Layer"/>
  <rect fill="#061121" x="-0" y="0" width="12691.48" height="7932.17"/>
  <path fill="#DC6E00" d="M2962.81 2502.29l28.71 -107.14 28.7 -107.14 28.71 -107.15 28.7 -107.13 -107.14 -28.71 -28.7 107.14 -107.15 -28.71 28.71 -107.14 107.14 28.71 28.71 -107.14 107.14 28.71 28.7 -107.14 107.14 28.7 -28.7 107.14 -28.71 107.14 -28.7 107.14 -28.71 107.15 -28.7 107.14 -28.71 107.14 -107.14 -28.71zm-428.54 -114.83l28.7 -107.14 28.71 -107.14 28.7 -107.15 28.71 -107.13 28.7 -107.14 28.71 -107.14 107.14 28.7 -28.71 107.14 107.14 28.71 -28.7 107.13 -107.14 -28.7 -28.71 107.14 -28.7 107.15 -28.71 107.14 -28.7 107.14 -107.14 -28.71z"/>
  <path id="1" fill="#DC6E00" d="M3420.05 2509.98l107.15 28.71 -28.71 107.14 -107.14 -28.71 -107.14 -28.71 28.7 -107.13 107.14 28.7zm-107.14 -28.7l-107.14 -28.71 28.71 -107.14 28.71 -107.15 28.7 -107.14 107.14 28.71 -28.71 107.14 107.14 28.7 107.15 28.71 28.71 -107.14 107.13 28.71 -28.7 107.13 -28.71 107.15 -107.14 -28.7 -107.14 -28.71 -107.14 -28.7 -28.71 107.14zm300.41 -264l-107.15 -28.71 -107.14 -28.7 28.7 -107.14 107.14 28.7 107.15 28.71 -28.7 107.14z"/>
  <path id="2" fill="#DC6E00" d="M3819.89 2731.95l28.71 -107.14 107.13 28.7 -28.7 107.14 -107.14 -28.7zm28.71 -107.14l-107.14 -28.7 28.7 -107.14 28.71 -107.15 28.7 -107.14 28.71 -107.14 28.7 -107.14 107.14 28.71 -28.7 107.14 107.13 28.7 -28.7 107.14 -107.14 -28.71 -28.7 107.14 -28.71 107.15 -28.7 107.14z"/>
  <path id="3" fill="#DC6E00" d="M4277.15 2739.64l107.15 28.71 -28.71 107.14 -107.15 -28.71 -107.13 -28.71 28.7 -107.13 107.14 28.7zm-107.14 -28.7l-107.14 -28.71 28.71 -107.14 28.7 -107.15 28.71 -107.13 107.14 28.7 -28.71 107.14 107.14 28.7 107.15 28.71 28.7 -107.14 107.14 28.71 -28.7 107.13 -28.71 107.15 -107.14 -28.7 -107.15 -28.71 -107.14 -28.7 -28.7 107.14zm300.4 -264l-107.15 -28.71 -107.13 -28.7 28.7 -107.14 107.14 28.71 107.15 28.7 -28.71 107.14z"/>
  <path id="4" fill="#DC6E00" d="M4812.82 2883.18l107.15 28.7 -28.7 107.14 -107.15 -28.71 -107.14 -28.7 28.7 -107.14 107.14 28.71zm107.15 28.7l28.7 -107.14 28.71 -107.14 28.71 -107.14 107.13 28.7 -28.7 107.14 -28.71 107.15 -28.7 107.14 -107.14 -28.71zm-214.28 -57.41l-107.14 -28.7 28.71 -107.14 28.71 -107.15 28.7 -107.14 107.14 28.7 -28.71 107.14 -28.7 107.15 -28.71 107.14zm300.41 -263.99l-107.15 -28.71 -107.14 -28.71 28.7 -107.13 107.14 28.7 107.15 28.71 -28.7 107.14z"/>
  <path id="5" fill="#DC6E00" d="M5105.53 3076.43l28.71 -107.14 28.7 -107.14 28.71 -107.15 28.7 -107.13 28.71 -107.14 107.14 28.7 -28.71 107.14 107.14 28.7 -28.7 107.14 -107.14 -28.7 -28.71 107.15 -28.7 107.14 -28.71 107.13 -107.14 -28.7zm329.1 -371.14l28.7 -107.13 107.15 28.7 -28.7 107.14 -107.15 -28.71z"/>
  <polygon fill="#ffffff" points="2811.75,4961.99 3032.88,4923 3071.88,5144.12 2850.74,5183.11 2629.62,5222.1 2408.47,5261.1 2187.34,5300.09 2148.35,5078.96 2109.35,4857.82 2070.36,4636.7 2031.37,4415.56 1992.38,4194.42 1953.38,3973.29 2174.52,3934.3 2395.66,3895.31 2616.79,3856.32 2837.92,3817.32 2876.91,4038.46 2655.78,4077.45 2434.65,4116.43 2213.51,4155.42 2252.5,4376.57 2473.65,4337.58 2694.77,4298.58 2733.76,4519.72 2512.64,4558.71 2291.5,4597.7 2330.49,4818.83 2369.48,5039.97 2590.62,5000.98 "/>
  <path id="1" fill="#ffffff" d="M4177.54 4949.17l-38.98 -221.13 221.13 -38.99 38.99 221.13 -221.14 38.99zm-884.53 155.96l-38.99 -221.12 221.13 -38.99 38.99 221.12 -221.13 38.99zm845.55 -377.09l-221.13 38.99 -38.99 -221.14 221.12 -38.99 39 221.14zm-663.4 116.98l-38.99 -221.14 221.13 -38.99 38.99 221.14 -221.13 38.99zm403.28 -299.13l-221.13 38.99 -38.99 -221.12 221.13 -38.99 38.99 221.12zm-38.99 -221.12l-38.99 -221.13 221.13 -38.99 38.98 221.13 -221.12 38.99zm-221.13 38.99l-221.13 38.99 -38.99 -221.13 221.13 -38.99 38.99 221.13zm403.28 -299.12l-39 -221.13 221.14 -38.99 38.99 221.13 -221.13 38.99zm-663.4 116.98l-221.13 38.99 -38.99 -221.13 221.13 -38.99 38.99 221.13z"/>
  <path id="2" fill="#ffffff" d="M4840.94 4832.19l-38.99 -221.13 221.14 -38.99 38.99 221.13 -221.14 38.99zm-38.99 -221.13l-221.12 38.99 -38.99 -221.13 -38.99 -221.13 -38.99 -221.13 -38.99 -221.13 -38.99 -221.13 221.12 -38.99 38.99 221.13 221.14 -38.99 38.99 221.13 -221.14 38.99 38.99 221.13 38.99 221.13 38.99 221.13z"/>
  <path id="3" fill="#ffffff" d="M5283.21 4754.21l-38.99 -221.13 -38.99 -221.13 -38.99 -221.13 -38.99 -221.13 221.13 -38.98 38.99 221.12 38.99 221.13 38.99 221.13 38.99 221.13 -221.13 38.99zm-194.96 -1105.67l-38.99 -221.13 221.13 -38.99 38.99 221.13 -221.13 38.99z"/>
  <path id="4" fill="#ffffff" d="M6388.88 4559.25l-38.99 -221.13 -38.99 -221.13 -38.99 -221.13 -38.99 -221.12 221.13 -38.99 38.99 221.12 38.99 221.13 38.99 221.13 38.99 221.13 -221.13 38.99zm-663.4 116.98l-38.99 -221.13 -38.99 -221.13 -38.99 -221.13 -38.99 -221.12 -38.99 -221.14 221.13 -38.99 221.13 -38.99 221.13 -38.99 38.99 221.14 -221.12 38.99 -221.14 38.99 38.99 221.12 38.99 221.13 38.99 221.13 38.99 221.13 -221.13 38.99z"/>
  <path id="5" fill="#ffffff" d="M7455.56 4143.16l221.13 -38.99 38.98 221.12 -221.12 38.99 -221.13 38.99 -221.13 38.99 -38.99 -221.13 221.13 -38.99 221.13 -38.98zm-442.27 77.97l-221.13 38.99 -38.99 -221.13 -38.99 -221.13 -38.99 -221.12 221.13 -38.99 38.99 221.12 38.99 221.13 38.99 221.13zm286.3 -962.52l221.12 -38.99 39 221.14 -221.13 38.99 -221.13 38.99 -221.13 38.99 -38.99 -221.14 221.13 -38.99 221.13 -38.99z"/>
  <path id="6" fill="#ffffff" d="M8157.96 4247.31l-38.99 -221.12 221.13 -38.99 38.99 221.12 -221.13 38.99zm-38.99 -221.12l-221.13 38.99 -38.99 -221.14 -38.99 -221.13 -38.99 -221.12 -38.99 -221.14 -38.99 -221.12 221.13 -38.99 38.99 221.12 221.13 -38.99 38.99 221.14 -221.13 38.99 38.99 221.13 38.99 221.12 38.99 221.14z"/>
  <path id="7" fill="#ffffff" d="M8600.23 4169.33l-38.99 -221.12 -38.99 -221.14 -38.99 -221.12 -38.99 -221.13 221.12 -38.99 38.99 221.13 38.99 221.12 38.99 221.14 38.99 221.12 -221.12 38.99zm-194.96 -1105.67l-38.99 -221.12 221.12 -38.99 38.99 221.13 -221.12 38.98z"/>
  <path id="8" fill="#ffffff" d="M9445.77 3792.23l221.13 -38.99 38.99 221.12 -221.13 38.99 -221.14 38.99 -38.99 -221.12 221.14 -38.99zm221.13 -38.99l-38.99 -221.14 -38.99 -221.12 -38.99 -221.13 221.12 -38.99 38.99 221.13 38.99 221.12 38.99 221.14 -221.12 38.99zm-442.28 77.98l-221.12 38.99 -38.99 -221.14 -38.99 -221.12 -38.99 -221.13 221.12 -38.99 38.99 221.13 38.99 221.12 38.99 221.14zm325.3 -741.39l-221.13 38.99 -221.14 38.99 -38.99 -221.13 221.14 -39 221.12 -38.98 39 221.13z"/>
  <path id="9" fill="#ffffff" d="M10811.56 3779.42l-38.99 -221.13 -38.99 -221.14 -38.99 -221.12 -38.99 -221.13 221.13 -38.99 38.99 221.13 38.99 221.13 38.99 221.13 38.99 221.13 -221.13 38.99zm-663.39 116.97l-38.99 -221.12 -38.99 -221.14 -38.99 -221.12 -38.99 -221.13 -38.99 -221.13 221.12 -38.99 221.14 -38.99 221.12 -38.99 38.99 221.13 -221.12 38.99 -221.14 38.99 38.99 221.13 38.99 221.12 38.99 221.14 38.99 221.13 -221.12 38.98z"/>
  <svg xmlns="http://www.w3.org/2000/svg" viewBox="0 -0.5 32 32" shape-rendering="crispEdges">
  <g transform="scale(0.35,0.35) translate(52,2)">
    <path stroke="#000000" d="M13 7h4M11 8h2M17 8h1M10 9h1M18 9h3M9 10h1M21 10h1M8 11h1M22 11h1M8 12h1M22 12h1M8 13h1M22 13h1M7 14h1M23 14h1M7 15h1M24 15h1M7 16h1M24 16h1M7 17h1M24 17h1M7 18h1M24 18h1M8 19h1M23 19h1M8 20h1M23 20h1M9 21h1M22 21h1M10 22h1M20 22h2M11 23h3M17 23h3M14 24h3" />
    <path stroke="#463d38" d="M13 8h1M16 8h1M15 9h1M17 9h1M19 10h1M19 11h1M21 11h1M9 13h1M8 14h1M21 14h1M12 15h1M16 15h1M23 15h1M10 16h1M8 17h1M13 17h1M16 17h1M12 18h1M9 20h2M12 21h1M19 21h1M12 22h1M17 22h1M14 23h1" />
    <path stroke="#473c35" d="M14 8h1M11 9h1M14 10h1M16 10h1M18 10h1M15 11h1M17 11h1M16 12h1M18 13h1M10 14h1M17 14h1M11 15h1M15 15h1M9 16h1M14 16h1M16 16h1M11 17h1M9 18h1M10 19h2M11 20h1M11 21h1M11 22h1" />
    <path stroke="#483e38" d="M15 8h1M12 9h1M11 10h1M9 11h2M18 11h1M19 12h1M16 13h2M15 14h1M14 15h1M11 16h1M13 16h1M12 17h1M14 17h2M11 18h1" />
    <path stroke="#483d36" d="M13 9h2M16 9h1M10 10h1M15 10h1M17 10h1M20 10h1M16 11h1M20 11h1M9 12h1M17 12h2M20 12h2M9 14h1M16 14h1M8 15h3M8 16h1M12 16h1M15 16h1M23 16h1M9 17h2M17 17h1M23 17h1M8 18h1M10 18h1M17 18h2M21 18h3M9 19h1M18 19h5M19 20h3M10 21h1M17 21h2M20 21h2M13 22h2M16 22h1M19 22h1M15 23h2" />
    <path stroke="#413832" d="M12 10h1M21 15h1M22 17h1M19 18h1M17 19h1M13 21h1M16 21h1" />
    <path stroke="#443a35" d="M13 10h1M10 13h1" />
    <path stroke="#413833" d="M11 11h1M14 11h1M10 12h1M15 12h1M13 15h1" />
    <path stroke="#312b27" d="M12 11h1M11 12h2M12 13h3M12 14h1M19 14h2M18 15h1M18 16h1M21 16h1M19 17h2M14 18h1M13 19h1M16 19h1M16 20h1M14 21h1" />
    <path stroke="#312a26" d="M13 11h1M13 12h2M11 13h1M13 14h1M19 15h2M19 16h2M14 19h2M13 20h3M15 21h1" />
    <path stroke="#443c36" d="M15 13h1M22 16h1M16 18h1M20 18h1M12 20h1M17 20h1" />
    <path stroke="#423832" d="M19 13h2M11 14h1M14 14h1M18 14h1M17 15h1M17 16h1M18 17h1M21 17h1M15 18h1" />
    <path stroke="#483e37" d="M21 13h1M22 14h1M22 15h1M18 20h1M22 20h1M15 22h1M18 22h1" />
    <path stroke="#423933" d="M13 18h1M12 19h1" />
  </g>  
  </svg>
  <svg xmlns="http://www.w3.org/2000/svg" viewBox="0 -0.5 32 32" shape-rendering="crispEdges">
  <g transform="scale(0.35,0.35) translate(10,65) rotate(330)">
    <path stroke="#ff681c" d="M3 10h1M1 11h2M0 12h1M1 13h1M2 14h2M4 15h3M4 17h1M2 18h2M1 19h1M2 20h1M3 21h1M4 22h1M5 23h1" />
    <path stroke="#ff7115" d="M4 10h2M3 11h1M1 12h2M2 13h2M4 14h1M5 17h1M4 18h1M2 19h2M3 20h1M4 21h1M5 22h1M6 23h1" />
    <path stroke="#ff8536" d="M6 10h4M4 11h2M3 12h1M4 13h1M5 14h1M7 15h3M6 17h3M5 18h1M9 18h1M4 19h1M4 20h1M5 21h1M6 22h1M7 23h3" />
    <path stroke="#000000" d="M10 10h6M9 11h1M16 11h9M10 12h1M25 12h3M10 13h1M28 13h2M9 14h1M30 14h1M10 15h1M30 15h1M11 16h1M31 16h1M11 17h1M31 17h1M10 18h1M30 18h1M9 19h1M30 19h1M10 20h1M28 20h2M10 21h1M25 21h3M9 22h1M16 22h9M10 23h6" />
    <path stroke="#ff9754" d="M6 11h3M4 12h3M5 13h2M6 14h3M6 18h3M5 19h2M8 19h1M5 20h2M6 21h2M7 22h2" />
    <path stroke="#a32100" d="M10 11h1M12 12h4M11 13h3M16 13h3M10 14h1M12 14h1M10 19h1M12 20h2M17 20h1M11 21h6M11 22h1M13 22h1" />
    <path stroke="#a12000" d="M11 11h5M11 12h1M16 12h2M14 13h2M11 14h1M13 14h3M11 19h5M11 20h1M14 20h3M18 20h1M17 21h1M10 22h1M12 22h1M14 22h2" />
    <path stroke="#ffcab4" d="M7 12h3M7 13h3M7 19h1M7 20h3M8 21h2" />
    <path stroke="#bd2500" d="M18 12h1M19 13h3M16 14h2M20 14h1M22 14h3M11 15h1M13 15h4M18 15h3M22 15h2M25 15h1M28 15h1M12 16h1M11 18h2M14 18h3M18 18h3M22 18h1M24 18h2M16 19h2M19 19h6M21 20h1M19 21h1" />
    <path stroke="#c12500" d="M19 12h1M18 14h2M21 14h1M12 15h1M17 15h1M21 15h1M24 15h1M26 15h2M13 18h1M17 18h1M21 18h1M23 18h1M26 18h3M18 19h1M19 20h2M18 21h1" />
    <path stroke="#8b1c00" d="M20 12h3M24 12h1M22 13h3M27 13h1M25 14h2M29 15h1M29 17h2M29 18h1M25 19h3M29 19h1M22 20h2M25 20h1M27 20h1M20 21h2M24 21h1" />
    <path stroke="#8f1d00" d="M23 12h1M25 13h2M27 14h3M30 16h1M28 19h1M24 20h1M26 20h1M22 21h2" />
    <path stroke="#981e00" d="M13 16h2M16 16h2M19 16h2M22 16h2M26 16h2M29 16h1M12 17h4M21 17h2M28 17h1" />
    <path stroke="#941d00" d="M15 16h1M18 16h1M21 16h1M24 16h2M28 16h1M16 17h5M23 17h5" />
  </g>
  </svg>
  <svg xmlns="http://www.w3.org/2000/svg" viewBox="0 -0.5 32 32" shape-rendering="crispEdges">
  <g transform="scale(0.35,0.35) translate(65,50)">
    <path stroke="#000000" d="M11 13h7M19 13h2M7 14h4M18 14h1M21 14h4M4 15h3M25 15h1M27 15h1M3 16h1M26 16h1M28 16h1M3 17h1M28 17h1M4 18h1M10 18h1M12 18h8M27 18h1M5 19h1M9 19h1M11 19h1M20 19h4M26 19h1M6 20h3M24 20h2" />
    <path stroke="#6b6b6b" d="M11 14h1M15 14h1M7 15h1M9 15h1M16 15h2M20 15h2M5 16h1M9 16h1M11 16h2M14 16h2M18 16h1M20 16h1M24 16h1M27 16h1M4 17h2M7 17h1M25 17h1M27 17h1M5 18h2M26 18h1" />
    <path stroke="#213f25" d="M12 14h1M17 16h1M23 16h1M8 18h1M25 19h1" />
    <path stroke="#707070" d="M13 14h2M16 14h2M19 14h2M8 15h1M10 15h3M14 15h2M18 15h2M22 15h2M4 16h1M6 16h1M8 16h1M13 16h1M19 16h1M21 16h1M25 16h1M6 17h1M24 17h1M26 17h1M25 18h1" />
    <path stroke="#304333" d="M13 15h1M8 17h1M23 17h1" />
    <path stroke="#1e3121" d="M24 15h1M7 16h1M18 17h1M24 18h1" />
    <path stroke="#363636" d="M10 16h1M9 17h2M12 17h1M14 17h1M16 17h2M19 17h3M7 18h1M11 18h1M21 18h3M8 19h1M24 19h1" />
    <path stroke="#26482b" d="M16 16h1" />
    <path stroke="#797979" d="M22 16h1" />
    <path stroke="#313131" d="M11 17h1M15 17h1M22 17h1M20 18h1M6 19h2" />
    <path stroke="#3a3a3a" d="M13 17h1M9 18h1" />
    <path stroke="rgba(128,255,255,0.00784313725490196)" d="M4 19h1M27 19h1M4 20h1M27 20h1M4 21h1M27 21h1M5 22h1M26 22h1M6 23h1M7 24h18" />
    <path stroke="rgba(115,255,242,0.0784313725490196)" d="M10 19h1M12 19h8" />
    <path stroke="rgba(128,255,255,0.01568627450980392)" d="M5 20h1M26 20h1M5 21h1M26 21h1M6 22h1M7 23h18" />
    <path stroke="rgba(128,255,255,0.06274509803921569)" d="M9 20h15" />
    <path stroke="rgba(128,255,255,0.03137254901960784)" d="M6 21h1M7 22h18" />
    <path stroke="rgba(128,255,255,0.047058823529411764)" d="M7 21h18" />
    <path stroke="rgba(128,255,255,0.0392156862745098)" d="M25 21h1" />
    <path stroke="rgba(102,255,255,0.0196078431372549)" d="M25 22h1" />
    <path stroke="rgba(85,255,255,0.011764705882352941)" d="M25 23h1" />
    <path stroke="rgba(0,255,255,0.00392156862745098)" d="M26 23h1" />
  </g>
  </svg>
 </g>
</svg>
