<?xml version="1.0" encoding="UTF-8"?>
<!DOCTYPE svg PUBLIC "-//W3C//DTD SVG 1.1//EN" "http://www.w3.org/Graphics/SVG/1.1/DTD/svg11.dtd">
<svg xmlns="http://www.w3.org/2000/svg" xml:space="preserve" width="170mm" height="170mm" version="1.1" style="shape-rendering:geometricPrecision; text-rendering:geometricPrecision; image-rendering:optimizeQuality; fill-rule:evenodd; clip-rule:evenodd"
viewBox="0 0 16712.06 16712.06"
>
 <defs>
  <style type="text/css">
  </style>
 </defs>
 <g id="Ebene_x0020_1">
 <g fill="#FFFFFF">
  <metadata id="CorelCorpID_0Corel-Layer"/>
  <path class="fil0" d="M740.44 0l7243.36 0 0 7983.79 -7983.8 0 0 -7243.34c0,-407.82 332.62,-740.45 740.44,-740.45zm7243.36 8728.26l0 7983.8 -7243.36 0c-407.82,0 -740.44,-332.63 -740.44,-740.45l0 -7243.35 7983.8 0zm744.46 -8728.26l7243.34 0c407.83,0 740.45,332.63 740.45,740.45l0 7243.34 -7983.79 0 0 -7983.79zm7983.79 8728.26l0 7243.35c0,407.82 -332.62,740.45 -740.45,740.45l-7243.34 0 0 -7983.8 7983.79 0z"/>
 </g>
 </g>
</svg>
