<svg xmlns="http://www.w3.org/2000/svg" viewBox="0 0 24 24">
  <path d="M 1.0635 0.0001 l 10.4034 0 l 0 11.4668 l -11.4669 0 l 0 -10.4034 c 0 -0.5857 0.4777 -1.0635 1.0635 -1.0635 z m 10.4034 12.5361 l 0 11.4669 l -10.4034 0 c -0.5857 0 -1.0635 -0.4777 -1.0635 -1.0635 l 0 -10.4034 l 11.4669 0 z m 1.0692 -12.5361 l 10.4034 0 c 0.5858 0 1.0635 0.4777 1.0635 1.0635 l 0 10.4034 l -11.4668 0 l 0 -11.4668 z m 11.4668 12.5361 l 0 10.4034 c 0 0.5857 -0.4777 1.0635 -1.0635 1.0635 l -10.4034 0 l 0 -11.4669 l 11.4668 0 z"/>
</svg>