<?xml version="1.0" encoding="UTF-8"?>
<!DOCTYPE svg PUBLIC "-//W3C//DTD SVG 1.1//EN" "http://www.w3.org/Graphics/SVG/1.1/DTD/svg11.dtd">
<!-- Creator: CorelDRAW 2019 (64-Bit Keine kommerzielle Nutzung) -->

<svg xmlns="http://www.w3.org/2000/svg" viewBox="0 -0.5 80 50" shape-rendering="crispEdges">
<path stroke="#66411e" d="M0 0h1M2 0h1M8 0h1M14 0h1M16 0h1M18 0h1M24 0h1M30 0h1M32 0h1M34 0h1M40 0h1M46 0h1M48 0h1M50 0h1M56 0h1M62 0h1M64 0h1M66 0h1M72 0h1M78 0h1M0 1h2M7 1h3M12 1h2M16 1h2M23 1h3M28 1h2M32 1h2M39 1h3M44 1h2M48 1h2M55 1h3M60 1h2M64 1h2M71 1h3M76 1h2M1 2h3M5 2h1M13 2h2M17 2h3M21 2h1M29 2h2M33 2h3M37 2h1M45 2h2M49 2h3M53 2h1M61 2h2M65 2h3M69 2h1M77 2h2M0 4h1M11 4h1M15 4h2M27 4h1M31 4h2M43 4h1M47 4h2M59 4h1M63 4h2M75 4h1M79 4h1M1 5h2M11 5h4M17 5h2M27 5h4M33 5h2M43 5h4M49 5h2M59 5h4M65 5h2M75 5h4M3 6h1M8 6h3M19 6h1M24 6h3M35 6h1M40 6h3M51 6h1M56 6h3M67 6h1M72 6h3M0 8h1M3 8h1M14 8h1M16 8h1M19 8h1M30 8h1M32 8h1M35 8h1M46 8h1M48 8h1M51 8h1M62 8h1M64 8h1M67 8h1M78 8h1M0 9h1M2 9h4M16 9h1M18 9h4M32 9h1M34 9h4M48 9h1M50 9h4M64 9h1M66 9h4M1 10h1M14 10h1M17 10h1M30 10h1M33 10h1M46 10h1M49 10h1M62 10h1M65 10h1M78 10h1M2 12h1M5 12h2M13 12h1M18 12h1M21 12h2M29 12h1M34 12h1M37 12h2M45 12h1M50 12h1M53 12h2M61 12h1M66 12h1M69 12h2M77 12h1M2 13h2M9 13h2M12 13h1M18 13h2M25 13h2M28 13h1M34 13h2M41 13h2M44 13h1M50 13h2M57 13h2M60 13h1M66 13h2M73 13h2M76 13h1M4 14h1M8 14h2M20 14h1M24 14h2M36 14h1M40 14h2M52 14h1M56 14h2M68 14h1M72 14h2M0 16h1M2 16h1M8 16h1M14 16h1M18 16h1M30 16h1M62 16h1M64 16h1M66 16h1M72 16h1M78 16h1M0 17h2M7 17h3M12 17h2M23 17h1M28 17h1M39 17h1M44 17h1M55 17h1M60 17h1M64 17h2M71 17h3M76 17h2M1 18h3M5 18h1M13 18h2M34 18h2M65 18h3M69 18h1M77 18h2M0 20h1M11 20h1M15 20h1M27 20h1M31 20h1M43 20h1M47 20h1M59 20h1M63 20h2M75 20h1M79 20h1M1 21h2M11 21h4M27 21h2M34 21h1M43 21h1M50 21h1M59 21h2M65 21h2M75 21h4M3 22h1M8 22h3M19 22h1M24 22h1M40 22h1M58 22h1M67 22h1M72 22h3M0 24h1M3 24h1M14 24h1M16 24h1M19 24h1M30 24h1M32 24h1M35 24h1M46 24h1M48 24h1M51 24h1M62 24h1M64 24h1M67 24h1M78 24h1M0 25h1M2 25h4M16 25h1M18 25h4M32 25h1M34 25h4M48 25h1M50 25h4M64 25h1M66 25h4M1 26h1M14 26h1M17 26h1M33 26h1M49 26h1M62 26h1M65 26h1M78 26h1M2 28h1M5 28h2M13 28h1M18 28h1M21 28h2M38 28h1M45 28h1M50 28h1M53 28h2M61 28h1M66 28h1M69 28h2M77 28h1M2 29h2M9 29h2M12 29h1M18 29h2M25 29h2M35 29h1M44 29h1M50 29h2M57 29h2M60 29h1M66 29h2M73 29h2M76 29h1M4 30h1M8 30h2M20 30h1M24 30h2M40 30h1M52 30h1M56 30h2M68 30h1M72 30h2M0 32h1M2 32h1M8 32h1M14 32h1M16 32h1M18 32h1M24 32h1M30 32h1M40 32h1M48 32h1M50 32h1M56 32h1M62 32h1M64 32h1M66 32h1M72 32h1M78 32h1M0 33h2M7 33h3M12 33h2M16 33h2M23 33h3M32 33h1M39 33h2M44 33h2M48 33h2M55 33h3M60 33h2M64 33h2M71 33h3M76 33h2M1 34h3M5 34h1M13 34h2M17 34h3M21 34h1M30 34h1M35 34h1M45 34h1M49 34h3M53 34h1M61 34h2M65 34h3M69 34h1M77 34h2M0 36h1M11 36h1M15 36h2M27 36h1M43 36h1M59 36h1M63 36h2M75 36h1M79 36h1M1 37h2M11 37h4M17 37h2M27 37h4M33 37h2M43 37h4M49 37h2M59 37h4M65 37h2M75 37h4M3 38h1M8 38h3M19 38h1M24 38h3M35 38h1M40 38h3M51 38h1M56 38h3M67 38h1M72 38h3M0 40h1M3 40h1M14 40h1M16 40h1M19 40h1M30 40h1M32 40h1M35 40h1M46 40h1M48 40h1M51 40h1M62 40h1M64 40h1M67 40h1M78 40h1M0 41h1M2 41h4M16 41h1M18 41h4M32 41h1M34 41h4M48 41h1M50 41h4M64 41h1M66 41h4M1 42h1M14 42h1M17 42h1M30 42h1M33 42h1M46 42h1M49 42h1M62 42h1M65 42h1M78 42h1M2 44h1M5 44h2M13 44h1M18 44h1M21 44h2M29 44h1M34 44h1M37 44h2M45 44h1M50 44h1M53 44h2M61 44h1M66 44h1M69 44h2M77 44h1M2 45h2M9 45h2M12 45h1M18 45h2M25 45h2M28 45h1M34 45h2M41 45h2M44 45h1M50 45h2M57 45h2M60 45h1M66 45h2M73 45h2M76 45h1M4 46h1M8 46h2M20 46h1M24 46h2M36 46h1M40 46h2M52 46h1M56 46h2M68 46h1M72 46h2M0 48h1M2 48h1M8 48h1M14 48h1M16 48h1M18 48h1M24 48h1M30 48h1M32 48h1M34 48h1M40 48h1M46 48h1M48 48h1M50 48h1M56 48h1M62 48h1M64 48h1M66 48h1M72 48h1M78 48h1M0 49h2M7 49h3M12 49h2M16 49h2M23 49h3M28 49h2M32 49h2M39 49h3M44 49h2M48 49h2M55 49h3M60 49h2M64 49h2M71 49h3M76 49h2" />
<path stroke="#5f3c1d" d="M1 0h1M17 0h1M33 0h1M49 0h1M65 0h1M2 1h2M6 1h1M10 1h2M18 1h2M22 1h1M26 1h2M34 1h2M38 1h1M42 1h2M50 1h2M54 1h1M58 1h2M66 1h2M70 1h1M74 1h2M0 2h1M4 2h1M6 2h1M11 2h2M16 2h1M20 2h1M22 2h1M27 2h2M32 2h1M36 2h1M38 2h1M43 2h2M48 2h1M52 2h1M54 2h1M59 2h2M64 2h1M68 2h1M70 2h1M75 2h2M12 4h2M28 4h2M44 4h2M60 4h2M76 4h2M0 5h1M3 5h1M5 5h1M9 5h2M15 5h2M19 5h1M21 5h1M25 5h2M31 5h2M35 5h1M37 5h1M41 5h2M47 5h2M51 5h1M53 5h1M57 5h2M63 5h2M67 5h1M69 5h1M73 5h2M79 5h1M2 6h1M4 6h3M11 6h2M18 6h1M20 6h3M27 6h2M34 6h1M36 6h3M43 6h2M50 6h1M52 6h3M59 6h2M66 6h1M68 6h3M75 6h2M4 8h2M20 8h2M36 8h2M52 8h2M68 8h2M1 9h1M6 9h1M10 9h1M12 9h1M17 9h1M22 9h1M26 9h1M28 9h1M33 9h1M38 9h1M42 9h1M44 9h1M49 9h1M54 9h1M58 9h1M60 9h1M65 9h1M70 9h1M74 9h1M76 9h1M2 10h2M8 10h4M18 10h2M24 10h4M34 10h2M40 10h4M50 10h2M56 10h4M66 10h2M72 10h4M0 13h2M6 13h1M11 13h1M13 13h3M17 13h1M22 13h1M27 13h1M29 13h5M38 13h1M43 13h1M46 13h4M54 13h1M59 13h1M61 13h5M70 13h1M75 13h1M77 13h3M0 14h1M3 14h1M5 14h1M10 14h1M19 14h1M26 14h1M32 14h1M35 14h1M37 14h1M42 14h1M48 14h1M51 14h1M53 14h1M58 14h1M64 14h1M67 14h1M69 14h1M74 14h1M1 16h1M33 16h1M49 16h1M65 16h1M2 17h2M6 17h1M10 17h2M26 17h2M34 17h2M42 17h2M50 17h2M59 17h1M66 17h2M70 17h1M74 17h2M0 18h1M4 18h1M6 18h1M11 18h2M27 18h2M36 18h1M43 18h2M59 18h2M64 18h1M68 18h1M70 18h1M75 18h2M12 20h2M28 20h1M44 20h1M60 20h1M76 20h2M0 21h1M3 21h1M5 21h1M9 21h2M15 21h1M19 21h1M26 21h1M31 21h1M35 21h1M42 21h1M47 21h1M51 21h1M58 21h1M63 21h2M67 21h1M69 21h1M73 21h2M79 21h1M2 22h1M4 22h3M11 22h2M18 22h1M20 22h1M37 22h1M44 22h1M53 22h1M59 22h2M66 22h1M68 22h3M75 22h2M4 24h2M20 24h2M36 24h2M52 24h2M68 24h2M1 25h1M6 25h1M10 25h1M12 25h1M17 25h1M22 25h1M26 25h1M28 25h1M33 25h1M38 25h1M42 25h1M44 25h1M49 25h1M54 25h1M58 25h1M60 25h1M65 25h1M70 25h1M74 25h1M76 25h1M2 26h2M8 26h4M18 26h2M24 26h4M34 26h2M40 26h1M42 26h2M50 26h2M56 26h4M66 26h2M72 26h4M0 29h2M6 29h1M11 29h1M13 29h5M22 29h1M27 29h1M30 29h4M38 29h1M43 29h1M45 29h1M48 29h2M54 29h1M59 29h1M61 29h5M70 29h1M75 29h1M77 29h3M0 30h1M3 30h1M5 30h1M10 30h1M16 30h1M19 30h1M21 30h1M26 30h1M32 30h1M35 30h1M48 30h1M51 30h1M53 30h1M58 30h1M64 30h1M67 30h1M69 30h1M74 30h1M1 32h1M17 32h1M49 32h1M65 32h1M2 33h2M6 33h1M10 33h2M18 33h2M22 33h1M26 33h2M35 33h1M38 33h1M43 33h1M50 33h2M54 33h1M58 33h2M66 33h2M70 33h1M74 33h2M0 34h1M4 34h1M6 34h1M11 34h2M16 34h1M20 34h1M22 34h1M27 34h1M38 34h1M43 34h2M48 34h1M52 34h1M54 34h1M59 34h2M64 34h1M68 34h1M70 34h1M75 34h2M12 36h2M28 36h2M44 36h1M60 36h2M76 36h2M0 37h1M3 37h1M5 37h1M9 37h2M15 37h2M19 37h1M21 37h1M25 37h2M31 37h2M35 37h1M37 37h1M41 37h2M47 37h2M51 37h1M53 37h1M57 37h2M63 37h2M67 37h1M69 37h1M73 37h2M79 37h1M2 38h1M4 38h3M11 38h2M18 38h1M20 38h3M27 38h2M34 38h1M36 38h3M43 38h2M50 38h1M52 38h3M59 38h2M66 38h1M68 38h3M75 38h2M4 40h2M20 40h2M36 40h2M52 40h2M68 40h2M1 41h1M6 41h1M10 41h1M12 41h1M17 41h1M22 41h1M26 41h1M28 41h1M33 41h1M38 41h1M42 41h1M44 41h1M49 41h1M54 41h1M58 41h1M60 41h1M65 41h1M70 41h1M74 41h1M76 41h1M2 42h2M8 42h4M18 42h2M24 42h4M34 42h2M40 42h4M50 42h2M56 42h4M66 42h2M72 42h4M0 45h2M6 45h1M11 45h1M13 45h5M22 45h1M27 45h1M29 45h5M38 45h1M43 45h1M45 45h5M54 45h1M59 45h1M61 45h5M70 45h1M75 45h1M77 45h3M0 46h1M3 46h1M5 46h1M10 46h1M16 46h1M19 46h1M21 46h1M26 46h1M32 46h1M35 46h1M37 46h1M42 46h1M48 46h1M51 46h1M53 46h1M58 46h1M64 46h1M67 46h1M69 46h1M74 46h1M1 48h1M17 48h1M33 48h1M49 48h1M65 48h1M2 49h2M6 49h1M10 49h2M18 49h2M22 49h1M26 49h2M34 49h2M38 49h1M42 49h2M50 49h2M54 49h1M58 49h2M66 49h2M70 49h1M74 49h2" />
<path stroke="#6c4921" d="M3 0h5M9 0h5M19 0h5M25 0h5M35 0h5M41 0h5M51 0h5M57 0h5M67 0h5M73 0h5M1 4h1M3 4h4M8 4h3M17 4h1M19 4h4M24 4h3M33 4h1M35 4h4M40 4h3M49 4h1M51 4h4M56 4h3M65 4h1M67 4h4M72 4h3M1 8h2M6 8h8M17 8h2M22 8h8M33 8h2M38 8h8M49 8h2M54 8h8M65 8h2M70 8h8M0 10h1M16 10h1M32 10h1M48 10h1M64 10h1M0 12h1M3 12h2M8 12h3M12 12h1M14 12h3M19 12h2M24 12h3M28 12h1M30 12h3M35 12h2M40 12h3M44 12h1M46 12h3M51 12h2M56 12h3M60 12h1M62 12h3M67 12h2M72 12h3M76 12h1M78 12h2M3 16h5M9 16h5M19 16h2M23 16h1M25 16h1M38 16h2M41 16h1M54 16h2M58 16h1M67 16h5M73 16h5M1 20h1M3 20h4M8 20h3M19 20h1M26 20h1M35 20h2M42 20h1M51 20h4M58 20h1M65 20h1M67 20h4M72 20h3M1 24h2M6 24h8M17 24h2M22 24h8M33 24h2M38 24h8M49 24h2M54 24h8M65 24h2M70 24h8M0 26h1M16 26h1M64 26h1M0 28h1M3 28h2M8 28h3M12 28h1M14 28h3M19 28h2M24 28h3M30 28h3M35 28h1M40 28h1M44 28h1M48 28h1M51 28h2M56 28h3M60 28h1M62 28h3M67 28h2M72 28h3M76 28h1M78 28h2M3 32h5M9 32h5M19 32h5M25 32h3M35 32h1M38 32h2M43 32h3M51 32h5M57 32h5M67 32h5M73 32h5M1 36h1M3 36h4M8 36h3M17 36h1M19 36h4M24 36h3M33 36h1M35 36h3M42 36h1M51 36h4M56 36h3M65 36h1M67 36h4M72 36h3M1 40h2M6 40h8M17 40h2M22 40h8M33 40h2M38 40h8M49 40h2M54 40h8M65 40h2M70 40h8M0 42h1M16 42h1M32 42h1M48 42h1M64 42h1M0 44h1M3 44h2M8 44h3M12 44h1M14 44h3M19 44h2M24 44h3M28 44h1M30 44h3M35 44h2M40 44h3M44 44h1M46 44h3M51 44h2M56 44h3M60 44h1M62 44h3M67 44h2M72 44h3M76 44h1M78 44h2M3 48h5M9 48h5M19 48h5M25 48h5M35 48h5M41 48h5M51 48h5M57 48h5M67 48h5M73 48h5" />
<path stroke="#4b2e15" d="M15 0h1M31 0h1M47 0h1M63 0h1M79 0h1M4 1h1M20 1h1M36 1h1M52 1h1M68 1h1M15 2h1M31 2h1M47 2h1M63 2h1M79 2h1M0 3h1M3 3h2M16 3h1M19 3h2M32 3h1M35 3h2M48 3h1M51 3h2M64 3h1M67 3h2M7 5h1M23 5h1M39 5h1M55 5h1M71 5h1M7 6h1M23 6h1M39 6h1M55 6h1M71 6h1M4 7h1M13 7h1M20 7h1M29 7h1M36 7h1M45 7h1M52 7h1M61 7h1M68 7h1M77 7h1M15 9h1M31 9h1M47 9h1M63 9h1M79 9h1M3 11h2M10 11h1M19 11h2M26 11h1M35 11h2M42 11h1M51 11h2M58 11h1M67 11h2M74 11h1M7 14h1M23 14h1M39 14h1M55 14h1M71 14h1M6 15h3M23 15h2M38 15h3M54 15h2M70 15h3M15 16h1M31 16h1M47 16h1M63 16h1M79 16h1M4 17h1M20 17h1M36 17h1M52 17h1M68 17h1M15 18h1M31 18h1M47 18h1M63 18h1M79 18h1M0 19h1M3 19h2M35 19h2M64 19h1M67 19h2M7 21h1M23 21h1M39 21h1M55 21h1M71 21h1M7 22h1M23 22h1M39 22h1M55 22h1M71 22h1M4 23h1M13 23h1M20 23h1M45 23h1M61 23h1M68 23h1M77 23h1M15 25h1M31 25h1M47 25h1M63 25h1M79 25h1M3 27h2M10 27h1M19 27h2M26 27h1M35 27h1M51 27h2M58 27h1M67 27h2M74 27h1M7 30h1M23 30h1M39 30h1M55 30h1M71 30h1M6 31h3M22 31h3M38 31h3M54 31h3M70 31h3M15 32h1M31 32h1M63 32h1M79 32h1M4 33h1M20 33h1M52 33h1M68 33h1M15 34h1M31 34h1M63 34h1M79 34h1M0 35h1M3 35h2M16 35h1M19 35h2M32 35h1M35 35h2M51 35h2M64 35h1M67 35h2M7 37h1M23 37h1M39 37h1M55 37h1M71 37h1M7 38h1M23 38h1M39 38h1M55 38h1M71 38h1M4 39h1M13 39h1M20 39h1M29 39h1M36 39h1M45 39h1M52 39h1M61 39h1M68 39h1M77 39h1M15 41h1M31 41h1M47 41h1M63 41h1M79 41h1M3 43h2M10 43h1M19 43h2M26 43h1M35 43h2M42 43h1M51 43h2M58 43h1M67 43h2M74 43h1M7 46h1M23 46h1M39 46h1M55 46h1M71 46h1M6 47h3M22 47h3M38 47h3M54 47h3M70 47h3M15 48h1M31 48h1M47 48h1M63 48h1M79 48h1M4 49h1M20 49h1M36 49h1M52 49h1M68 49h1" />
<path stroke="#503516" d="M5 1h1M14 1h2M21 1h1M30 1h2M37 1h1M46 1h2M53 1h1M62 1h2M69 1h1M78 1h2M7 2h4M23 2h4M39 2h4M55 2h4M71 2h4M2 4h1M7 4h1M14 4h1M18 4h1M23 4h1M30 4h1M34 4h1M39 4h1M46 4h1M50 4h1M55 4h1M62 4h1M66 4h1M71 4h1M78 4h1M4 5h1M6 5h1M8 5h1M20 5h1M22 5h1M24 5h1M36 5h1M38 5h1M40 5h1M52 5h1M54 5h1M56 5h1M68 5h1M70 5h1M72 5h1M0 6h2M13 6h5M29 6h5M45 6h5M61 6h5M77 6h3M15 8h1M31 8h1M47 8h1M63 8h1M79 8h1M7 9h3M11 9h1M13 9h2M23 9h3M27 9h1M29 9h2M39 9h3M43 9h1M45 9h2M55 9h3M59 9h1M61 9h2M71 9h3M75 9h1M77 9h2M4 10h4M12 10h2M15 10h1M20 10h4M28 10h2M31 10h1M36 10h4M44 10h2M47 10h1M52 10h4M60 10h2M63 10h1M68 10h4M76 10h2M79 10h1M1 12h1M7 12h1M11 12h1M17 12h1M23 12h1M27 12h1M33 12h1M39 12h1M43 12h1M49 12h1M55 12h1M59 12h1M65 12h1M71 12h1M75 12h1M4 13h2M7 13h2M20 13h1M23 13h2M36 13h2M39 13h2M52 13h2M55 13h2M68 13h2M71 13h2M1 14h2M6 14h1M11 14h5M18 14h1M27 14h5M33 14h2M38 14h1M43 14h2M47 14h1M49 14h2M54 14h1M59 14h5M65 14h2M70 14h1M75 14h5M5 17h1M14 17h2M31 17h1M47 17h1M63 17h1M69 17h1M78 17h2M7 18h4M23 18h1M26 18h1M39 18h1M42 18h1M55 18h1M58 18h1M71 18h4M2 20h1M7 20h1M14 20h1M23 20h1M34 20h1M39 20h1M50 20h1M55 20h1M66 20h1M71 20h1M78 20h1M4 21h1M6 21h1M8 21h1M20 21h1M36 21h1M52 21h1M54 21h1M68 21h1M70 21h1M72 21h1M0 22h2M13 22h3M29 22h1M31 22h2M47 22h2M63 22h3M77 22h3M15 24h1M31 24h1M47 24h1M63 24h1M79 24h1M7 25h3M11 25h1M13 25h2M23 25h3M27 25h1M29 25h2M39 25h3M43 25h1M45 25h2M55 25h3M59 25h1M61 25h2M71 25h3M75 25h1M77 25h2M4 26h4M12 26h2M15 26h1M20 26h4M28 26h1M37 26h3M52 26h4M60 26h2M63 26h1M68 26h4M76 26h2M79 26h1M1 28h1M7 28h1M11 28h1M17 28h1M23 28h1M27 28h1M39 28h1M43 28h1M49 28h1M55 28h1M59 28h1M65 28h1M71 28h1M75 28h1M4 29h2M7 29h2M20 29h2M23 29h2M39 29h2M52 29h2M55 29h2M68 29h2M71 29h2M1 30h2M6 30h1M11 30h5M17 30h2M22 30h1M27 30h1M30 30h2M33 30h2M38 30h1M43 30h3M49 30h2M54 30h1M59 30h5M65 30h2M70 30h1M75 30h5M5 33h1M14 33h2M21 33h1M30 33h2M53 33h1M62 33h2M69 33h1M78 33h2M7 34h4M23 34h4M39 34h2M55 34h4M71 34h4M2 36h1M7 36h1M14 36h1M18 36h1M23 36h1M50 36h1M55 36h1M62 36h1M66 36h1M71 36h1M78 36h1M4 37h1M6 37h1M8 37h1M20 37h1M22 37h1M24 37h1M36 37h1M38 37h1M40 37h1M52 37h1M54 37h1M56 37h1M68 37h1M70 37h1M72 37h1M0 38h2M13 38h5M29 38h5M45 38h5M61 38h5M77 38h3M15 40h1M31 40h1M47 40h1M63 40h1M79 40h1M7 41h3M11 41h1M13 41h2M23 41h3M27 41h1M29 41h2M39 41h3M43 41h1M45 41h2M55 41h3M59 41h1M61 41h2M71 41h3M75 41h1M77 41h2M4 42h4M12 42h2M15 42h1M20 42h4M28 42h2M31 42h1M36 42h4M44 42h2M47 42h1M52 42h4M60 42h2M63 42h1M68 42h4M76 42h2M79 42h1M1 44h1M7 44h1M11 44h1M17 44h1M23 44h1M27 44h1M33 44h1M39 44h1M43 44h1M49 44h1M55 44h1M59 44h1M65 44h1M71 44h1M75 44h1M4 45h2M7 45h2M20 45h2M23 45h2M36 45h2M39 45h2M52 45h2M55 45h2M68 45h2M71 45h2M1 46h2M6 46h1M11 46h5M17 46h2M22 46h1M27 46h5M33 46h2M38 46h1M43 46h5M49 46h2M54 46h1M59 46h5M65 46h2M70 46h1M75 46h5M5 49h1M14 49h2M21 49h1M30 49h2M37 49h1M46 49h2M53 49h1M62 49h2M69 49h1M78 49h2" />
<path stroke="#3d2711" d="M1 3h2M5 3h1M8 3h2M11 3h1M14 3h1M17 3h2M21 3h1M24 3h2M27 3h1M30 3h1M33 3h2M37 3h1M40 3h2M43 3h1M46 3h1M49 3h2M53 3h1M56 3h2M59 3h1M62 3h1M65 3h2M69 3h1M72 3h2M75 3h1M78 3h1M2 7h2M5 7h1M10 7h3M14 7h1M18 7h2M21 7h1M26 7h3M30 7h1M34 7h2M37 7h1M42 7h3M46 7h1M50 7h2M53 7h1M58 7h3M62 7h1M66 7h2M69 7h1M74 7h3M78 7h1M2 11h1M5 11h1M9 11h1M11 11h2M18 11h1M21 11h1M25 11h1M27 11h2M34 11h1M37 11h1M41 11h1M43 11h2M50 11h1M53 11h1M57 11h1M59 11h2M66 11h1M69 11h1M73 11h1M75 11h2M1 15h2M5 15h1M9 15h1M11 15h1M18 15h1M37 15h1M53 15h1M57 15h1M65 15h2M69 15h1M73 15h1M75 15h1M1 19h2M5 19h1M8 19h2M11 19h1M14 19h1M18 19h1M27 19h1M34 19h1M43 19h1M59 19h1M65 19h2M69 19h1M72 19h2M75 19h1M78 19h1M2 23h2M5 23h1M10 23h3M14 23h1M18 23h2M21 23h1M30 23h1M58 23h3M66 23h2M69 23h1M74 23h3M78 23h1M2 27h1M5 27h1M9 27h1M11 27h2M18 27h1M21 27h1M25 27h1M27 27h1M34 27h1M43 27h2M50 27h1M53 27h1M57 27h1M59 27h2M66 27h1M69 27h1M73 27h1M75 27h2M1 31h2M5 31h1M9 31h1M11 31h1M17 31h2M21 31h1M25 31h1M27 31h1M34 31h1M43 31h1M49 31h2M53 31h1M57 31h1M59 31h1M65 31h2M69 31h1M73 31h1M75 31h1M1 35h2M5 35h1M8 35h2M11 35h1M14 35h1M17 35h2M21 35h1M24 35h2M27 35h1M41 35h1M43 35h1M49 35h2M53 35h1M56 35h2M59 35h1M62 35h1M65 35h2M69 35h1M72 35h2M75 35h1M78 35h1M2 39h2M5 39h1M10 39h3M14 39h1M18 39h2M21 39h1M26 39h3M30 39h1M34 39h2M37 39h1M42 39h3M46 39h1M50 39h2M53 39h1M58 39h3M62 39h1M66 39h2M69 39h1M74 39h3M78 39h1M2 43h1M5 43h1M9 43h1M11 43h2M18 43h1M21 43h1M25 43h1M27 43h2M34 43h1M37 43h1M41 43h1M43 43h2M50 43h1M53 43h1M57 43h1M59 43h2M66 43h1M69 43h1M73 43h1M75 43h2M1 47h2M5 47h1M9 47h1M11 47h1M17 47h2M21 47h1M25 47h1M27 47h1M33 47h2M37 47h1M41 47h1M43 47h1M49 47h2M53 47h1M57 47h1M59 47h1M65 47h2M69 47h1M73 47h1M75 47h1" />
<path stroke="#35210f" d="M6 3h2M10 3h1M12 3h2M15 3h1M22 3h2M26 3h1M28 3h2M31 3h1M38 3h2M42 3h1M44 3h2M47 3h1M54 3h2M58 3h1M60 3h2M63 3h1M70 3h2M74 3h1M76 3h2M79 3h1M0 7h2M6 7h4M15 7h3M22 7h4M31 7h3M38 7h4M47 7h3M54 7h4M63 7h3M70 7h4M79 7h1M0 11h2M6 11h3M13 11h5M22 11h3M29 11h5M38 11h3M45 11h5M54 11h3M61 11h5M70 11h3M77 11h3M0 15h1M3 15h2M10 15h1M12 15h4M19 15h2M29 15h4M44 15h1M47 15h2M61 15h4M67 15h2M74 15h1M76 15h4M6 19h2M10 19h1M12 19h2M15 19h1M23 19h1M26 19h1M28 19h1M31 19h1M39 19h1M42 19h1M44 19h1M47 19h1M55 19h1M58 19h1M60 19h1M63 19h1M70 19h2M74 19h1M76 19h2M79 19h1M0 23h2M6 23h4M15 23h2M23 23h3M31 23h3M38 23h4M47 23h3M54 23h3M63 23h3M70 23h4M79 23h1M0 27h2M6 27h3M13 27h5M22 27h3M29 27h1M38 27h3M54 27h3M61 27h5M70 27h3M77 27h3M0 31h1M3 31h2M10 31h1M12 31h5M19 31h2M26 31h1M30 31h1M35 31h1M44 31h2M48 31h1M51 31h2M58 31h1M60 31h5M67 31h2M74 31h1M76 31h4M6 35h2M10 35h1M12 35h2M15 35h1M22 35h2M26 35h1M28 35h1M54 35h2M58 35h1M60 35h2M63 35h1M70 35h2M74 35h1M76 35h2M79 35h1M0 39h2M6 39h4M15 39h3M22 39h4M31 39h3M38 39h4M47 39h3M54 39h4M63 39h3M70 39h4M79 39h1M0 43h2M6 43h3M13 43h5M22 43h3M29 43h5M38 43h3M45 43h5M54 43h3M61 43h5M70 43h3M77 43h3M0 47h1M3 47h2M10 47h1M12 47h5M19 47h2M26 47h1M28 47h5M35 47h2M42 47h1M44 47h5M51 47h2M58 47h1M60 47h5M67 47h2M74 47h1M76 47h4" />
<path stroke="#ffffff" d="M16 13h1M21 13h1M45 13h1M16 14h1M21 14h1M45 14h1M16 15h1M21 15h1M25 15h4M33 15h4M41 15h3M45 15h1M49 15h4M56 15h1M58 15h3M16 16h1M21 16h1M24 16h1M29 16h1M32 16h1M37 16h1M40 16h1M44 16h2M48 16h1M53 16h1M56 16h2M61 16h1M16 17h1M18 17h2M21 17h1M24 17h1M29 17h1M32 17h1M37 17h1M40 17h1M45 17h1M48 17h1M53 17h1M56 17h1M61 17h1M16 18h1M18 18h2M21 18h1M24 18h1M29 18h1M32 18h1M37 18h1M40 18h1M45 18h1M48 18h6M56 18h1M61 18h1M16 19h2M20 19h2M24 19h1M29 19h1M32 19h1M37 19h1M40 19h1M45 19h1M48 19h1M56 19h1M61 19h1M16 20h2M20 20h2M24 20h1M29 20h1M32 20h1M37 20h1M40 20h1M45 20h1M48 20h1M56 20h1M61 20h1M16 21h1M21 21h1M24 21h1M29 21h1M32 21h1M37 21h1M40 21h1M44 21h2M48 21h1M53 21h1M56 21h1M61 21h1M16 22h1M21 22h1M25 22h4M33 22h4M41 22h3M45 22h1M49 22h4M56 22h1M61 22h1M29 26h4M36 26h1M41 26h1M44 26h5M28 27h1M33 27h1M36 27h1M41 27h1M46 27h1M28 28h1M33 28h1M36 28h1M41 28h1M46 28h1M28 29h1M36 29h1M41 29h1M46 29h1M28 30h1M36 30h1M41 30h1M46 30h1M28 31h1M31 31h3M36 31h1M41 31h1M46 31h1M28 32h1M33 32h1M36 32h1M41 32h1M46 32h1M28 33h1M33 33h1M36 33h1M41 33h1M46 33h1M28 34h1M32 34h2M36 34h1M41 34h1M46 34h1M29 35h3M33 35h1M37 35h4M44 35h5" />
<path stroke="#1f1509" d="M17 14h1M22 14h1M46 14h1M30 17h1M46 17h1M62 17h1M25 18h1M41 18h1M57 18h1M18 20h1M30 20h1M46 20h1M62 20h1M22 21h1M38 21h1M17 22h1M30 22h1M46 22h1M62 22h1M37 29h1M29 30h1M47 30h1M37 33h1M47 33h1M42 34h1M30 36h1M34 36h1M39 36h1M46 36h1" />
<path stroke="#180f07" d="M17 15h1M25 19h1M30 19h1M33 19h1M41 19h1M46 19h1M49 19h2M53 19h1M57 19h1M62 19h1M26 23h3M34 23h2M37 23h1M42 23h3M46 23h1M50 23h2M53 23h1M62 23h1M37 27h1M37 31h1M34 35h1" />
<path stroke="#1d1209" d="M22 15h1M19 19h1M51 19h2M29 23h1M36 23h1M52 23h1M42 27h1M47 32h1M47 34h1" />
<path stroke="#150d06" d="M46 15h1M22 19h1M38 19h1M54 19h1M17 23h1M22 23h1M57 23h1M30 27h3M45 27h1M47 27h3M29 31h1M42 31h1M47 31h1M42 35h1" />
<path stroke="#25180c" d="M17 16h1M22 17h1M38 17h1M54 17h1M58 17h1M20 18h1M22 18h1M38 18h1M54 18h1M25 21h1M41 21h1M57 21h1M22 22h1M38 22h1M54 22h1M29 29h1M47 29h1M37 30h1M42 30h1M34 33h1M42 33h1M45 36h1" />
<path stroke="#2a1d0d" d="M22 16h1M26 16h3M35 16h2M42 16h2M51 16h2M59 16h2M22 20h1M25 20h1M33 20h1M38 20h1M41 20h1M49 20h1M57 20h1M42 28h1M47 28h1M29 32h1M37 32h1M42 32h1M38 36h1M40 36h2M49 36h1" />
<path stroke="#28190c" d="M34 16h1M46 16h1M50 16h1M17 17h1M25 17h1M33 17h1M41 17h1M49 17h1M57 17h1M17 18h1M30 18h1M33 18h1M46 18h1M62 18h1M17 21h2M30 21h1M33 21h1M46 21h1M49 21h1M62 21h1M57 22h1M29 28h1M34 28h1M37 28h1M34 29h1M42 29h1M32 32h1M34 32h1M29 33h1M29 34h1M34 34h1M37 34h1M31 36h2M47 36h2" />
</svg>
